<svg xmlns="http://www.w3.org/2000/svg" width="50.213" height="50.049" viewBox="0 0 50.213 50.049">
  <g id="logo_small" transform="translate(-66.992 -91.89)">
    <g id="Group_8" data-name="Group 8">
      <g id="Group_1" data-name="Group 1">
        <path id="Path_1" data-name="Path 1" d="M86.168,105.427a.693.693,0,0,0-.667-.718.665.665,0,0,0-.183.017l-3.745.661v.851a.694.694,0,0,0,.852.7l1.893-.335-3.1,23.1v.373h0a.691.691,0,0,0,.849.7l3.923-.691v-.851a.693.693,0,0,0-.851-.7L83.1,128.9l3.072-23.1Z" fill="#86bc25"/>
      </g>
      <g id="Group_2" data-name="Group 2">
        <path id="Path_2" data-name="Path 2" d="M70.543,107.5a2.5,2.5,0,0,0-.9-.007,3,3,0,0,0-.9.323,3.293,3.293,0,0,0-1.76,2.8V133.44l.879-.154a1.1,1.1,0,0,0,.88-1.036V126.5l.9-.157a2.95,2.95,0,0,0,.895-.325,3.29,3.29,0,0,0,1.76-2.8V109.677A2.13,2.13,0,0,0,70.543,107.5Zm0,16.034a1.114,1.114,0,0,1-.895,1.054l-.9.158V110.3a1.115,1.115,0,0,1,.9-1.054.732.732,0,0,1,.9.737Z" fill="#86bc25"/>
      </g>
      <g id="Group_3" data-name="Group 3">
        <path id="Path_3" data-name="Path 3" d="M98.933,102.489a2.515,2.515,0,0,0-.895-.006,3,3,0,0,0-.894.323,3.3,3.3,0,0,0-1.761,2.8v22.825l.881-.155a1.094,1.094,0,0,0,.88-1.034V121.5l.9-.159a2.957,2.957,0,0,0,.894-.323,3.292,3.292,0,0,0,1.761-2.8V104.671A2.131,2.131,0,0,0,98.933,102.489Zm0,16.036a1.111,1.111,0,0,1-.894,1.054l-.893.157V105.3a1.117,1.117,0,0,1,.894-1.055.731.731,0,0,1,.877.547.712.712,0,0,1,.018.19Z" fill="#86bc25"/>
      </g>
      <g id="Group_4" data-name="Group 4">
        <path id="Path_4" data-name="Path 4" d="M79.754,108.364a2.132,2.132,0,0,0-1.76-2.182,2.539,2.539,0,0,0-.9-.007,3.044,3.044,0,0,0-.9.323,3.3,3.3,0,0,0-1.759,2.8v22.827l.88-.156a1.094,1.094,0,0,0,.879-1.035v-5.75l.9-.156h0a.732.732,0,0,1,.877.549.7.7,0,0,1,.018.188v5.727l1.76-.311v-5.725a2.195,2.195,0,0,0-.7-1.655,3.083,3.083,0,0,0,.7-1.9Zm-1.76,13.853a1.11,1.11,0,0,1-.9,1.053l-.9.16V108.989a1.115,1.115,0,0,1,.9-1.053.73.73,0,0,1,.877.547.713.713,0,0,1,.018.19Z" fill="#86bc25"/>
      </g>
      <g id="Group_5" data-name="Group 5">
        <path id="Path_5" data-name="Path 5" d="M93.085,122.167V105.884a2.132,2.132,0,0,0-1.76-2.181,2.51,2.51,0,0,0-.894-.006,3,3,0,0,0-.9.322,3.3,3.3,0,0,0-1.76,2.8V127.3a2.131,2.131,0,0,0,1.76,2.181,2.544,2.544,0,0,0,.9.006,3.027,3.027,0,0,0,.894-.321,3.3,3.3,0,0,0,1.76-2.8v-2.493l-.878.156a1.1,1.1,0,0,0-.881,1.034v1.614a1.115,1.115,0,0,1-.895,1.053.728.728,0,0,1-.895-.737V122.8Zm-3.55-15.659a1.114,1.114,0,0,1,.9-1.053.731.731,0,0,1,.894.737v14.583l-1.79.316Z" fill="#86bc25"/>
      </g>
      <g id="Group_6" data-name="Group 6">
        <path id="Path_6" data-name="Path 6" d="M104.752,126.782V101.3l-.878.156a1.1,1.1,0,0,0-.881,1.036v24.6Z" fill="#86bc25"/>
      </g>
      <g id="Group_7" data-name="Group 7">
        <path id="Path_7" data-name="Path 7" d="M110.394,111.824a12.226,12.226,0,0,1-1.582-5.091v-3.492a1.112,1.112,0,0,1,.9-1.054.728.728,0,0,1,.894.737v4.281a.72.72,0,0,0,.692.744.741.741,0,0,0,.188-.018l.881-.156v-5.162a2.132,2.132,0,0,0-1.761-2.181,2.487,2.487,0,0,0-.894-.006,2.973,2.973,0,0,0-.9.323,3.292,3.292,0,0,0-1.759,2.8v3.55a14.34,14.34,0,0,0,1.759,5.866,14.485,14.485,0,0,1,1.791,5.861v4.445a1.114,1.114,0,0,1-.895,1.053.73.73,0,0,1-.895-.736V118.56a.719.719,0,0,0-.693-.744.737.737,0,0,0-.187.018l-.879.155v5.91a2.129,2.129,0,0,0,1.76,2.181,2.487,2.487,0,0,0,.894.006,2.97,2.97,0,0,0,.895-.322,3.3,3.3,0,0,0,1.761-2.8v-4.506A14.782,14.782,0,0,0,110.394,111.824Z" fill="#86bc25"/>
      </g>
    </g>
    <g id="Group_9" data-name="Group 9">
      <path id="Path_8" data-name="Path 8" d="M115.408,97.632a1.759,1.759,0,1,0,1.8,1.758,1.7,1.7,0,0,0-1.628-1.76A1.568,1.568,0,0,0,115.408,97.632Zm0,3.148a1.34,1.34,0,0,1-1.39-1.287c0-.035,0-.069,0-.1A1.316,1.316,0,0,1,115.256,98a1.285,1.285,0,0,1,.152,0,1.39,1.39,0,0,1,.005,2.78Zm.8-1.616c0,.371-.275.567-.67.567h-.378v.478h-.322V98.617h.721c.4,0,.647.2.647.547Zm-.663-.268h-.386v.559h.389c.207,0,.332-.087.332-.28s-.13-.277-.335-.277Z" fill="#86bc25"/>
    </g>
    <g id="Group_10" data-name="Group 10">
      <path id="Path_9" data-name="Path 9" d="M89.678,141.939a24.864,24.864,0,0,1-17.695-7.331.618.618,0,0,1,.875-.874,23.789,23.789,0,0,0,37.735-5.482.618.618,0,1,1,1.087.589A25.023,25.023,0,0,1,89.678,141.939Z"/>
    </g>
    <g id="Group_11" data-name="Group 11">
      <path id="Path_10" data-name="Path 10" d="M68.536,105.331A.617.617,0,0,1,68,104.4,25.119,25.119,0,0,1,89.678,91.89h0A25.059,25.059,0,0,1,105.593,97.6a.619.619,0,1,1-.787.955h0a23.816,23.816,0,0,0-15.128-5.431h0a23.877,23.877,0,0,0-20.606,11.9A.619.619,0,0,1,68.536,105.331Z"/>
    </g>
  </g>
</svg>
