<svg xmlns="http://www.w3.org/2000/svg" xmlns:xlink="http://www.w3.org/1999/xlink" width="1920" height="297" viewBox="0 0 1920 297">
  <defs>
    <clipPath id="clip-path">
      <rect id="Rectangle_676" data-name="Rectangle 676" width="1920" height="297" fill="#8b2b2b"/>
    </clipPath>
  </defs>
  <g id="background_twojkoszyk" clip-path="url(#clip-path)">
    <g id="background_vector" transform="translate(-498.325 -604.867)">
      <g id="Group_306" data-name="Group 306" transform="translate(961 561)">
        <g id="Group_298" data-name="Group 298" transform="translate(-12.676 2.505)">
          <path id="Path_145" data-name="Path 145" d="M328.483,409.264c6.436,2.556,3.063,15-5,9C322.83,415.148,325.137,410.147,328.483,409.264Z" transform="translate(-301.483 -340.903)" fill="#d6d6d6" fill-rule="evenodd"/>
          <path id="Path_146" data-name="Path 146" d="M325.964,414.074c2.822,1.452,3.733,2.72,4,5C324.9,429.793,315.382,416.574,325.964,414.074Z" transform="translate(-320.964 -299.712)" fill="#d6d6d6" fill-rule="evenodd"/>
          <path id="Path_147" data-name="Path 147" d="M330.292,416.135c-9.552-3.411-1.753-12.438,3-9C336.6,409.553,334.658,415.262,330.292,416.135Z" transform="translate(-284.292 -363.774)" fill="#d6d6d6" fill-rule="evenodd"/>
          <path id="Path_148" data-name="Path 148" d="M329.613,401.817c2.105.083,4.417-.6,7,1-.276,2.464.142,4.929-2,8C329.428,413.869,324.538,405.8,329.613,401.817Z" transform="translate(-264.613 -401.455)" fill="#d6d6d6" fill-rule="evenodd"/>
          <path id="Path_149" data-name="Path 149" d="M328.932,422.641c-6.969-1.977-6.365-8.465-3-10C330.574,410.526,335.312,420.223,328.932,422.641Z" transform="translate(-298.931 -315.28)" fill="#d6d6d6" fill-rule="evenodd"/>
          <path id="Path_150" data-name="Path 150" d="M330.316,419.828c-.065,2.611.416,3.784-1,6C321.97,437.412,316.893,408.722,330.316,419.828Z" transform="translate(-312.316 -273.466)" fill="#d6d6d6" fill-rule="evenodd"/>
          <path id="Path_151" data-name="Path 151" d="M339.236,405.91c-.8,4.845-4.688,7.8-9,6C327.827,407.037,334.409,399.8,339.236,405.91Z" transform="translate(-250.236 -381.548)" fill="#d6d6d6" fill-rule="evenodd"/>
          <path id="Path_152" data-name="Path 152" d="M333.9,408.263c6.509,2.73,2.088,14.68-5,10C326.479,413.85,330.376,410.378,333.9,408.263Z" transform="translate(-261.897 -344.902)" fill="#d6d6d6" fill-rule="evenodd"/>
          <path id="Path_153" data-name="Path 153" d="M329.231,414.954c2.409,1.655,3.8,1.51,5,3,.4,2.353-.573,6.173-3,7a1.94,1.94,0,0,0-2,0C323.163,423.179,324.505,416.47,329.231,414.954Z" transform="translate(-285.231 -292.592)" fill="#d6d6d6" fill-rule="evenodd"/>
          <path id="Path_154" data-name="Path 154" d="M336.057,417.6c-7.208,12.642-13.5-8.023-4-6C335.284,412.3,335.174,415.235,336.057,417.6Z" transform="translate(-267.056 -318.236)" fill="#d6d6d6" fill-rule="evenodd"/>
          <path id="Path_155" data-name="Path 155" d="M335.7,409.626c3.448,1.4,3.9,2.84,5,5-1.214,3.08-2.656,5.4-5,5C331.836,417.41,330.972,411.924,335.7,409.626Z" transform="translate(-227.698 -338.264)" fill="#d6d6d6" fill-rule="evenodd"/>
          <path id="Path_156" data-name="Path 156" d="M339.337,420c-1.646,4.533-5.518,4.894-8,3C325.122,418.246,336.111,410.437,339.337,420Z" transform="translate(-251.337 -287.638)" fill="#d6d6d6" fill-rule="evenodd"/>
          <path id="Path_157" data-name="Path 157" d="M342.552,417.476c-2.289-2.648-4.38-.908-7-1C327.664,405.784,357.529,406.774,342.552,417.476Z" transform="translate(-212.552 -340.115)" fill="#d6d6d6" fill-rule="evenodd"/>
          <path id="Path_158" data-name="Path 158" d="M342.32,421.661c-.91,3.751-4.865,6.2-8,4C328.243,421.4,339.342,413.175,342.32,421.661Z" transform="translate(-225.32 -269.3)" fill="#d6d6d6" fill-rule="evenodd"/>
          <path id="Path_159" data-name="Path 159" d="M343.5,418.718c-1.94,4.2-3.325,6.4-6,6C328.7,423.376,339.441,408.072,343.5,418.718Z" transform="translate(-210.496 -291.357)" fill="#d6d6d6" fill-rule="evenodd"/>
          <path id="Path_160" data-name="Path 160" d="M336.893,412.341c3.466-.46,5.268,2.292,9,3,1.177,1.986-.272,5.067-2,8-1.545-.221-3.29.7-5,0C337.734,419.866,335.624,416.6,336.893,412.341Z" transform="translate(-195.892 -311.98)" fill="#d6d6d6" fill-rule="evenodd"/>
          <path id="Path_161" data-name="Path 161" d="M342.319,411.9a7.607,7.607,0,0,1,7,5C345.981,426.953,333.189,416.842,342.319,411.9Z" transform="translate(-169.319 -315.543)" fill="#d6d6d6" fill-rule="evenodd"/>
          <path id="Path_162" data-name="Path 162" d="M338.1,419.15c3.8-.166,10.5,4.7,6,10C337.911,431.77,335.12,422.2,338.1,419.15Z" transform="translate(-190.099 -256.789)" fill="#d6d6d6" fill-rule="evenodd"/>
          <path id="Path_163" data-name="Path 163" d="M349.266,419.09c-.331,4.349-3.929,8.66-7,9C335.628,423.319,344.743,415.165,349.266,419.09Z" transform="translate(-169.266 -267.729)" fill="#d6d6d6" fill-rule="evenodd"/>
          <path id="Path_164" data-name="Path 164" d="M351.784,417.51c-.11,1.949-1.814,3.692-3,6C337.623,424.071,343.583,408.639,351.784,417.51Z" transform="translate(-144.784 -295.149)" fill="#d6d6d6" fill-rule="evenodd"/>
          <path id="Path_165" data-name="Path 165" d="M345.983,417.881c2.05,1.406,2.016,3.253,3,5C343.743,436.074,334.886,418.322,345.983,417.881Z" transform="translate(-158.983 -266.519)" fill="#d6d6d6" fill-rule="evenodd"/>
          <path id="Path_166" data-name="Path 166" d="M344.177,422.814c6.674.506,7.652,7.883,3,11C340.971,434.448,338.982,427.245,344.177,422.814Z" transform="translate(-154.177 -224.452)" fill="#d6d6d6" fill-rule="evenodd"/>
          <path id="Path_167" data-name="Path 167" d="M344.822,424.173c.45-5.13,2.957-6.14,6-5C359.942,422.63,343.894,434.635,344.822,424.173Z" transform="translate(-123.822 -258.811)" fill="#d6d6d6" fill-rule="evenodd"/>
        </g>
        <g id="Group_299" data-name="Group 299" transform="translate(746.938 277.892)">
          <path id="Path_168" data-name="Path 168" d="M435.41,463.251c-6.436-2.556-3.063-15.995,5-10C441.063,456.377,438.757,462.378,435.41,463.251Z" transform="translate(-232.024 -321.277)" fill="#d6d6d6" fill-rule="evenodd"/>
          <path id="Path_169" data-name="Path 169" d="M438.614,457.122c-2.822-1.443-4.734-3.72-5-6C438.68,440.4,449.206,454.63,438.614,457.122Z" transform="translate(-213.228 -361.148)" fill="#d6d6d6" fill-rule="evenodd"/>
          <path id="Path_170" data-name="Path 170" d="M434.429,455.209c9.561,3.42,1.753,12.438-3,9C428.11,461.8,430.062,456.092,434.429,455.209Z" transform="translate(-250.042 -297.235)" fill="#d6d6d6" fill-rule="evenodd"/>
          <path id="Path_171" data-name="Path 171" d="M433.676,469.475a10.473,10.473,0,0,1-6-2c.276-2.455-1.133-3.939,1-7C433.862,457.423,438.751,465.495,433.676,469.475Z" transform="translate(-269.29 -259.501)" fill="#d6d6d6" fill-rule="evenodd"/>
          <path id="Path_172" data-name="Path 172" d="M434.916,449.028c6.959,1.968,5.356,8.464,2,10C432.264,461.142,428.536,451.437,434.916,449.028Z" transform="translate(-234.53 -346.054)" fill="#d6d6d6" fill-rule="evenodd"/>
          <path id="Path_173" data-name="Path 173" d="M433.643,452.846c.055-2.6-1.416-3.775,0-6C440.989,435.271,447.057,463.961,433.643,452.846Z" transform="translate(-221.257 -388.871)" fill="#d6d6d6" fill-rule="evenodd"/>
          <path id="Path_174" data-name="Path 174" d="M425.744,463.64c.809-4.855,4.7-7.811,9-6C437.153,462.5,430.58,469.754,425.744,463.64Z" transform="translate(-284.358 -278.666)" fill="#d6d6d6" fill-rule="evenodd"/>
          <path id="Path_175" data-name="Path 175" d="M430.4,462.845c-6.518-2.721-2.089-13.68,5-9C437.823,458.267,433.908,460.739,430.4,462.845Z" transform="translate(-272.01 -316.87)" fill="#d6d6d6" fill-rule="evenodd"/>
          <path id="Path_176" data-name="Path 176" d="M435.5,456.684c-2.4-1.646-4.8-1.511-6-3-.4-2.354,1.573-6.182,4-7,.57.377.669.34,1,0C440.573,448.459,440.221,455.176,435.5,456.684Z" transform="translate(-249.109 -368.71)" fill="#d6d6d6" fill-rule="evenodd"/>
          <path id="Path_177" data-name="Path 177" d="M427.185,453.67c7.217-12.641,13.5,7.032,4,5C427.958,457.981,428.077,456.033,427.185,453.67Z" transform="translate(-266.799 -342.696)" fill="#d6d6d6" fill-rule="evenodd"/>
          <path id="Path_178" data-name="Path 178" d="M428.507,462.288a11.205,11.205,0,0,1-6-6c1.214-3.08,2.656-4.414,5-4C431.368,454.5,433.233,460,428.507,462.288Z" transform="translate(-306.121 -323.314)" fill="#d6d6d6" fill-rule="evenodd"/>
          <path id="Path_179" data-name="Path 179" d="M425.31,450.559c1.636-4.523,6.518-5.894,9-4C440.525,451.312,428.537,460.129,425.31,450.559Z" transform="translate(-283.924 -372.584)" fill="#d6d6d6" fill-rule="evenodd"/>
          <path id="Path_180" data-name="Path 180" d="M424.249,452.053c2.28,2.639,5.38,1.908,8,2C440.137,464.746,409.272,462.755,424.249,452.053Z" transform="translate(-324.862 -320.079)" fill="#d6d6d6" fill-rule="evenodd"/>
          <path id="Path_181" data-name="Path 181" d="M421.834,448.5c.9-3.751,4.874-6.188,8-4C435.911,448.763,424.813,456.983,421.834,448.5Z" transform="translate(-309.447 -390.523)" fill="#d6d6d6" fill-rule="evenodd"/>
          <path id="Path_182" data-name="Path 182" d="M421,452.49c1.931-4.211,2.325-6.4,5-6C434.8,447.832,425.047,463.136,421,452.49Z" transform="translate(-323.615 -369.515)" fill="#d6d6d6" fill-rule="evenodd"/>
          <path id="Path_183" data-name="Path 183" d="M428.27,459.131c-3.466.459-5.258-2.292-9-3-1.168-1.995.271-5.076,2-8a13.015,13.015,0,0,1,4,1C426.428,452.606,429.547,454.874,428.27,459.131Z" transform="translate(-338.883 -350.156)" fill="#d6d6d6" fill-rule="evenodd"/>
          <path id="Path_184" data-name="Path 184" d="M421.732,457.691c-3.6-.257-4.86-1.14-6-4C419.079,443.643,430.862,452.764,421.732,457.691Z" transform="translate(-365.346 -344.717)" fill="#d6d6d6" fill-rule="evenodd"/>
          <path id="Path_185" data-name="Path 185" d="M426.264,452.675c-3.788.157-11.5-4.714-7-10C425.443,440.054,429.252,449.613,426.264,452.675Z" transform="translate(-343.878 -404.7)" fill="#d6d6d6" fill-rule="evenodd"/>
          <path id="Path_186" data-name="Path 186" d="M415.667,452.462c.322-4.34,3.93-8.669,7-9C429.3,448.224,420.181,456.4,415.667,452.462Z" transform="translate(-365.28 -393.487)" fill="#d6d6d6" fill-rule="evenodd"/>
          <path id="Path_187" data-name="Path 187" d="M412.6,453.411c.11-1.949,1.814-4.692,3-7C426.753,445.85,420.811,462.292,412.6,453.411Z" transform="translate(-389.214 -365.436)" fill="#d6d6d6" fill-rule="evenodd"/>
          <path id="Path_188" data-name="Path 188" d="M418.131,452.576a13.238,13.238,0,0,1-4-5C419.362,434.383,429.237,452.144,418.131,452.576Z" transform="translate(-374.744 -394.601)" fill="#d6d6d6" fill-rule="evenodd"/>
          <path id="Path_189" data-name="Path 189" d="M418.98,448.8c-6.674-.505-6.643-7.883-2-11C423.2,437.166,424.175,444.369,418.98,448.8Z" transform="translate(-379.594 -437.826)" fill="#d6d6d6" fill-rule="evenodd"/>
          <path id="Path_190" data-name="Path 190" d="M418.4,446.016c-.451,5.13-2.956,6.14-6,5C403.275,447.559,419.333,435.553,418.4,446.016Z" transform="translate(-410.018 -402.041)" fill="#d6d6d6" fill-rule="evenodd"/>
        </g>
        <g id="Group_300" data-name="Group 300" transform="translate(229.97 36.575)">
          <path id="Path_191" data-name="Path 191" d="M387.39,408.1c-2.105,1.756-3.108,4.426-4,7,8.568-4.468,15.691-4.368,23-4,.671,1.195,1.251,2.136,0,3a21.341,21.341,0,0,1-3,1c-2.685,1.012-4.8,3.3-6,4,3.76,1.361,8.387,1.982,12,6,1.49,3.347,3.786,6.444,1,9-1.112-1.839-.731-3.8-2-6-3.457-6.031-11.824-4.8-17-6-3.337-4.211,4.3-5.113,7-8-5.9-1.5-12.482,3.469-19,7-4.119-2.068,1.322-5.865,1-9-9.111,5.314-20.209,12.641-21,22a7.387,7.387,0,0,1-2,2,9.8,9.8,0,0,1-2-2c.781-2.758,1.988-5.306,3-8,5.277-8.32,17.836-14.169,26-21,.4.359.494.037,1,0C386.089,405.8,387.6,407.225,387.39,408.1Z" transform="translate(-307.036 -404.807)" fill="#d6d6d6" fill-rule="evenodd"/>
          <path id="Path_192" data-name="Path 192" d="M389.326,410.819c.588-3.448,4.444-3.377,7-3,2.437,1.793.821,5.279,3,8a5.2,5.2,0,0,0,3,0c7.079,2.74,15.606,1.353,24-1,.248.938.669.384,1,1-4.339,5.884-13.392,3.529-19,5a6.272,6.272,0,0,0-4-1c1.839,2.639,4.2,3.233,6,6,4.808-4.257,11.486-3.929,16-3,1.048-3.08,1.7-6.251,4-9,1.581-.386,2.271-1.421,4-2,6.721-2.2,16.67-.862,21,3a13.8,13.8,0,0,1,4,15c5.194-.551,11.9,1.208,14,7,2.905,8.017-7.9,19.112-16,14-.432,1.214.258,2.75,0,4,.91.009,1.906-.825,3-1,2.491-.386,7.775,1,10,3,2.648,2.362,2.312,5.389,2,8-.607,5.02-1.546,9.2-8,13,9.074,5.36,5.8,19.909-4,24,2.105,1.1,5.742,2.945,6,7,.018.34-.982.66-1,1-.019.809,1.028,2.4,1,3a13.877,13.877,0,0,1-1,4c-3.227,9.957-17.791,6.895-21-4-8.293,2.271-16.8-2.8-19-12-6.325,2.142-13.841,1.137-15-7-.671.432-.706.467-1,1-7.263,2.869-15.653.137-19-8-2.17-5.213-.073-10.083,4-14-5.057-1.894-10.926-9.408-11-16-4.459,4.5-8.095,7.824-11,13a24.57,24.57,0,0,0-2,7c-.165,1.14.487,2.356,0,3-.726.928-2.9.607-4,0-2.124-6.215-5.3-11.987-6-18-.4-3.429,1.23-5.911,1-9-3.052,1.977-6.451,5.478-10,5-.662-1-.026-1.265-1-2,4.836-7.309,4.967-15.27,12-22-2.6-.45-6.948,1.588-10,1a4.622,4.622,0,0,1-1-2C358.6,421.741,376.712,412.529,389.326,410.819Zm-14,7c-6.822,2.951-15.653,7.484-19,13,3.273-.073,10.772-3.388,10,2-6.666,5.948-9,12.838-11,20,3.77-1.452,6.12-5.071,10-6,.588.7,1.513.924,2,2-4.873,7.18-5.093,15.227,0,25,2.841-7,7.036-14.624,16-19-.258-3.742,1.593-6.69,3-10-1.232.671-1.621,1.917-3,2-1.232-3.77,4.265-8.281,9-10,4.2-3.3,4.412-8.265,5-13-1.462-3.2-.463-5.251-3-8-3.917,2.85-7.17,5.9-9,9-5.452,9.249-8,20.036-13,29-1.278,1.26-.216,2.887-2,4-.276-.221-.733-.77-1-1,2.51-7.281,4.956-14.764,8-22,3.006-7.144,6.188-14.465,13-20C386.115,413.541,380.989,415.374,375.326,417.819Zm17-4c.331-.248-.331.23,0,0v-1C391.82,413.067,392.316,413.442,392.326,413.819Zm6,21a23.367,23.367,0,0,1,8,0c-.166-2.731,2.338-4.49,3-7-2.666-1.544-5.38-4.272-8-6C401.289,426.15,399.263,430.728,398.326,434.819Zm12,9c-5.507-8.927-15.284-7.245-24,0,.736.947,2.237-.883,3,0,.616,1.885-1.4,3.161-2,5a23.892,23.892,0,0,0,0,12,13.833,13.833,0,0,0,9,9c9.58.754,15.182-8.362,16-15-.634-1.039-1.292-1.933-2-3,.8-.285,1.2-.715,2-1C411.811,448.6,411.613,445.916,410.326,443.819Zm40-9c.147-2.087,2.612-1.731,4-3,3.273-3.015,3.738-8.058,2-11-3.641-6.141-16.254-7.9-22-5-4.11,2.078-3.688,4.975-4,8,4.266,2.869,9.577,8.254,10,14C443.921,436.651,446.474,436.961,450.326,434.819Zm-15-1a17.337,17.337,0,0,0-7-7c-1.306-.634-2.685.239-4,0-1.9-.349-2.9-1.386-5-1-4.027.745-5.27,1.947-8,5a26.578,26.578,0,0,0-1,8c4.1,3.751,5.46,9.633,5,14C425.494,456.543,440.685,444.429,435.326,433.819Zm13,5c-2.97,1.848-8.8-1.68-8,3,4.937-3.153,7.936-.193,12,0-.12-1.342.57-2.538,0-4C450.441,438.738,449.971,440.878,448.326,438.819Zm-34,21c.919-.855,2.8-1.962,3-3a5.817,5.817,0,0,1-3,0A23.328,23.328,0,0,1,414.326,459.819Zm43-22c-4.56,4.652,1.813,14.631,8,11,2.749-2.933,6.48-7.414,5-11-2.39-5.82-9.6-4.977-15-3C455.427,435.739,456.682,436.955,457.326,437.819Zm-18,9c-1.278,1.72-4.246,4.511-5,6-1.158,2.308-.66,4.876-1,7,1.379,7.9,9.282,7.284,15,3,6.794-5.084,8.9-18.349-1-18,3.862,2.951,3.317,7.874,1,11-.2-.257-.779-.789-1-1,.533-3.089.135-6.391-3-8-.5-.837.5-1.164,0-2C442.34,445.03,440.061,445.826,439.326,446.819Zm-10,10c.469-.643.258-2.163,0-3-.828.634-1.163.3-2,1C427.933,455.435,428.719,456.194,429.326,456.819Zm-3,2c-4.992-1.066-9.808,3.442-14,7-.469.589-.3,1.467-1,2-2.8,2.391-4.108,7.433-1,11,2.85,3.282,8.587,2.133,13,0-.156-.929-.579-1.274,0-2,1.508-.717,2.209-2.023,3,0C432.762,473.574,433.635,460.4,426.326,458.819Zm-33,22c.469,1.131.064,1.768,0,3,1.94,3.779,6.286,7.021,10,6,.322-.083,1.329-.733,2-1,1-.4,1.439-.4,2-1,1.637-1.765-.352-6.373-3-8-.331-.745.267-1.274,0-2-1.122-1.2-2.906.269-4-1-.414-1.03.531-1.191,1-2C397.593,473.679,394.107,477.583,393.326,480.819Zm9-7c.965.276,1.869,1.368,3,1,.294-.7.8-2.025,0-3C403.523,471.755,403.714,473.718,402.326,473.819Zm32-3c.818.055,2.1-1.292,2-2-.6.166-.393-.248-1,0C435.215,469.509,433.949,470.01,434.326,470.819Zm-23,20c.248-2.565,2.8-3.674,4-6a4.069,4.069,0,0,0-3-1c1.03,4.192-4.194,7.989-8,9C406.367,493.012,409.23,490.865,411.326,490.819Zm44-29c-1.9,3.4-4.512,8.782-1,12,3.034,2.786,10.1,2.165,13-2,1.259-1.8,2.064-6.849,2-9-.165-4.992-7.4-5.874-11-5C459.144,459.621,456.9,460.642,455.326,461.819Zm-7,8a5.422,5.422,0,0,0,1-4c-1.811.892-2.876,2.081-5,3C445.889,469.352,446.983,468.477,448.326,469.819Zm1,5c-2.188-4-8.442-3.547-12-1-3.862,2.758-4.31,11.929-1,15,2.381,2.207,7.552,1.3,11-2C448.585,483.233,451.541,478.892,449.326,474.819Zm-22,6a12.765,12.765,0,0,0,4,2c-.285-1.554.166-3.474,0-5C430.195,478.73,428.668,479.955,427.326,480.819Zm0,15c1.967-2.161,3.271-8.444,1-11-1.36-1.536-5.005-.947-7,0-.543.257-.136,1.494-1,2-1,.6-2.31.393-3,1-4.79,4.192-2.668,12.507,5,11-1.352-2.17-5.869-5.621-3-7,3.972-1.9,2.911,5.844,6,6A15.214,15.214,0,0,0,427.326,495.819Zm26-16a5.76,5.76,0,0,0,2-2c-.607-.653-1.172-.221-2,0C453.767,478.812,452.976,478.854,453.326,479.819Zm-21,13c1.857-1.03,3.17.938,5,0-1.361-1.085-2.612-2.007-4-3C433.666,490.95,431.839,491.651,432.326,492.819Zm19,2c1.4,3.439,4.821,5.276,7,5,8.063-1.012,11.036-16.95,3-19-1.995-.515-4.428.741-6,2C451.345,486,449.57,490.489,451.326,494.819Zm-5,11a5.2,5.2,0,0,1,0-3c-1.324-4.146-4-5.191-7-6h-1c-1.931-1.627-6.1,1.633-8,2C426.685,507.682,442.639,515.647,446.326,505.819Zm3-3c1.241-.551,2.786-.568,4-1-3.255-1.747-6.687-5.945-7-10-1.673.68-2.069.292-4,1A11.305,11.305,0,0,1,449.326,502.819Zm12,16c1.379-1.6,2.305-8.61,1-11-1.177-2.188-4.775-3.212-7-3a15.915,15.915,0,0,0-5,2c-1.517,1.067-3.359,4.28-3,6,1.1,5.3,6.937,6.384,11,7C459.08,518.918,460.461,519.812,461.326,518.819Z" transform="translate(-349.971 -381.528)" fill="#d6d6d6" fill-rule="evenodd"/>
          <path id="Path_193" data-name="Path 193" d="M390.5,409.979c-1.067,1.02-2.685.046-4,0-7.521,1.324-17.158-.742-25,3-2.271,1.085-2.784,2.726-5,2-1.37-4.11,5.159-5.292,8-6a50.184,50.184,0,0,1,13-2,40.324,40.324,0,0,1,8,1C387.055,408.283,389.711,408.563,390.5,409.979Z" transform="translate(-298.147 -384.687)" fill="#d6d6d6" fill-rule="evenodd"/>
          <path id="Path_194" data-name="Path 194" d="M368.065,420.326c-4.3-.1-6.665-5.44-9-10,.175-1.011.759-2.138,2-2,.239.349.669,1.028,1,1,.671,1.664.906,3.262,2,5C365.491,416.578,368.194,418.239,368.065,420.326Z" transform="translate(-275.711 -372.034)" fill="#d6d6d6" fill-rule="evenodd"/>
          <path id="Path_195" data-name="Path 195" d="M359.751,412.576c-1.177,3.264-2.554,6.029-1,10,.423.68.586.274,1,1,.533.8-.119,1.31,0,2-1.26,1.012-1.694.669-3,1-2.721-2.289-2.441-5.672-2-9C355.184,414.322,357.452,409.258,359.751,412.576Z" transform="translate(-314.397 -348.285)" fill="#d6d6d6" fill-rule="evenodd"/>
          <path id="Path_196" data-name="Path 196" d="M359.221,409.918c2.133.919.872,2.327,1,4,.221,3.1,3.007,6.536,4,9-.874,1.186-1.952.147-3,0C359.217,419.884,354.449,411.14,359.221,409.918Z" transform="translate(-290.866 -360.626)" fill="#d6d6d6" fill-rule="evenodd"/>
          <path id="Path_197" data-name="Path 197" d="M358.291,415.489a10.754,10.754,0,0,1-1-3C360.454,408.876,363,416.206,358.291,415.489Z" transform="translate(-285.936 -348.198)" fill="#d6d6d6" fill-rule="evenodd"/>
          <path id="Path_198" data-name="Path 198" d="M356.7,413.525a3.5,3.5,0,0,1,2,3C356.265,419.771,352.087,415.134,356.7,413.525Z" transform="translate(-308.347 -334.234)" fill="#d6d6d6" fill-rule="evenodd"/>
          <path id="Path_199" data-name="Path 199" d="M365.394,410.6c2.859,3.043.515,6.3,0,9a.952.952,0,0,0-1,0c-1.168-1.306.276-2.869,0-4-.331-1.333-1.127-1.327-2-3C363.175,411.536,364.042,410.308,365.394,410.6Z" transform="translate(-251.039 -357.311)" fill="#d6d6d6" fill-rule="evenodd"/>
          <path id="Path_200" data-name="Path 200" d="M359.53,414.281a2.038,2.038,0,0,0,1,0c1.168,1.618.533,2.823,0,4,.625,3.742,4.237,1.966,5,5C360.428,428.117,352.662,416.653,359.53,414.281Z" transform="translate(-293.176 -329.989)" fill="#d6d6d6" fill-rule="evenodd"/>
          <path id="Path_201" data-name="Path 201" d="M364.42,412.905c.469.359.623,1.375,1,2a5.864,5.864,0,0,1,1,3c-.055.561.239,1.421,0,2-.644,1.545-.941,4.331-3,4-.359-2.887,2.347-6.216-1-8C361.943,414.627,362.894,412.74,364.42,412.905Z" transform="translate(-251.066 -335.614)" fill="#d6d6d6" fill-rule="evenodd"/>
          <path id="Path_202" data-name="Path 202" d="M360.625,414.808c4.91,3.218,4.05,9.479,2,13-.993-2.914.392-7.46-3-11C359.735,415.962,359.567,415.406,360.625,414.808Z" transform="translate(-269.27 -322.517)" fill="#d6d6d6" fill-rule="evenodd"/>
          <path id="Path_203" data-name="Path 203" d="M361.9,418.226c-.239,2.418,1.244,3.648,3,5,.515.533,1.623-.094,2,1,.533.524-.359.522,0,1-1.627,1.241-5.492-.527-7-3-.69-1.131-2.289-4.292,0-5C360.307,417.594,361.5,417.858,361.9,418.226Z" transform="translate(-278.547 -299.934)" fill="#d6d6d6" fill-rule="evenodd"/>
          <path id="Path_204" data-name="Path 204" d="M364.328,416.657c1.812,3.668,2.354,6.959,0,9-1-2.731-.014-5.012-2-8C362.31,416.536,363.179,416.179,364.328,416.657Z" transform="translate(-251.973 -311.366)" fill="#d6d6d6" fill-rule="evenodd"/>
          <path id="Path_205" data-name="Path 205" d="M363.447,418.664c.653,2.179,1.115,3.182,3,4a1.834,1.834,0,0,1,2,0c.607.662-.166.458,0,1C364.328,428.031,357.039,419.335,363.447,418.664Z" transform="translate(-261.093 -291.372)" fill="#d6d6d6" fill-rule="evenodd"/>
        </g>
        <g id="Group_301" data-name="Group 301" transform="matrix(-0.891, -0.454, 0.454, -0.891, 308.193, 520.893)">
          <path id="Path_206" data-name="Path 206" d="M359.331,436.059c.634,6.886-12.412,9.9-10.72,0C351.093,434.064,357.023,433.475,359.331,436.059Z" transform="translate(-275.681 -434.335)" fill="#d6d6d6" fill-rule="evenodd"/>
          <path id="Path_207" data-name="Path 207" d="M352.173,436.866c-.009,3.172-1.066,5.277-2.97,6.555C337.343,443.761,345.149,428.563,352.173,436.866Z" transform="translate(-319.769 -433.946)" fill="#d6d6d6" fill-rule="evenodd"/>
          <path id="Path_208" data-name="Path 208" d="M352.193,441.407c-1.287-10.067,10.444-6.978,9.534-1.186C361.083,444.276,354.951,444.9,352.193,441.407Z" transform="translate(-245.899 -430.149)" fill="#d6d6d6" fill-rule="evenodd"/>
          <path id="Path_209" data-name="Path 209" d="M365.272,435.415c.873,1.913,2.05,3.512,1.793,6.537-2.317.874-4.036,2.317-7.741,1.8C354.249,440.518,359.425,432.694,365.272,435.415Z" transform="translate(-203.566 -430.106)" fill="#d6d6d6" fill-rule="evenodd"/>
          <path id="Path_210" data-name="Path 210" d="M346.192,443.422c-1.4-7.1,4.854-8.863,7.741-6.565C357.923,440.038,351.24,448.018,346.192,443.422Z" transform="translate(-295.906 -421.434)" fill="#d6d6d6" fill-rule="evenodd"/>
          <path id="Path_211" data-name="Path 211" d="M350.312,443.961c-2.353,1.131-2.749,2.63-5.369,2.372C331.29,445.036,354.127,426.961,350.312,443.961Z" transform="translate(-340.544 -414.82)" fill="#d6d6d6" fill-rule="evenodd"/>
          <path id="Path_212" data-name="Path 212" d="M365.4,445.078c-4.689,1.48-9.185-.708-9.534-5.36C359.12,435.36,368.654,438,365.4,445.078Z" transform="translate(-215.002 -407.599)" fill="#d6d6d6" fill-rule="evenodd"/>
          <path id="Path_213" data-name="Path 213" d="M361.9,440.833c.524,7.051-11.667,8.44-10.72,0C354.021,436.677,358.425,438.663,361.9,440.833Z" transform="translate(-253.822 -400.982)" fill="#d6d6d6" fill-rule="evenodd"/>
          <path id="Path_214" data-name="Path 214" d="M353.332,440.391c-.386,2.887.782,4.229,0,5.967-1.931,1.416-6.509,1.784-8.348,0,.083-.69-.147-1.057-.6-1.2C343.209,438.948,349.838,436.861,353.332,440.391Z" transform="translate(-310.189 -398.747)" fill="#d6d6d6" fill-rule="evenodd"/>
          <path id="Path_215" data-name="Path 215" d="M354.3,448.26c-14.535-.69.5-15.345,3-5.958C358.139,445.492,356.015,446.4,354.3,448.26Z" transform="translate(-279.003 -394.692)" fill="#d6d6d6" fill-rule="evenodd"/>
          <path id="Path_216" data-name="Path 216" d="M361.3,443.5a10.355,10.355,0,0,1-2.381,7.75c-3.3.322-5.856-.11-6.555-2.39C352.585,444.416,357.108,440.325,361.3,443.5Z" transform="translate(-243.688 -368.48)" fill="#d6d6d6" fill-rule="evenodd"/>
          <path id="Path_217" data-name="Path 217" d="M352.9,452.082c-4.781.588-7.714-2.9-7.153-5.967C347.174,438.42,359.972,444.865,352.9,452.082Z" transform="translate(-298.452 -366.335)" fill="#d6d6d6" fill-rule="evenodd"/>
          <path id="Path_218" data-name="Path 218" d="M355.388,454.093c1.315-3.236-.68-4.772-1.793-7.153C359.553,435.061,371.716,462.588,355.388,454.093Z" transform="translate(-233.602 -355.833)" fill="#d6d6d6" fill-rule="evenodd"/>
          <path id="Path_219" data-name="Path 219" d="M352.348,455.165c-3.751.892-7.668-1.582-7.135-5.369C346.253,442.45,358.563,448.665,352.348,455.165Z" transform="translate(-302.678 -334.859)" fill="#d6d6d6" fill-rule="evenodd"/>
          <path id="Path_220" data-name="Path 220" d="M356.3,454.552c-4.634.184-6.9.2-7.76-2.372C345.755,443.731,363.95,446.121,356.3,454.552Z" transform="translate(-277.413 -331.276)" fill="#d6d6d6" fill-rule="evenodd"/>
          <path id="Path_221" data-name="Path 221" d="M359.537,447.16c1.986,2.878.129,5.893,1.195,9.543-1.25,1.949-4.358,1.995-7.75,1.783-.506-1.48-1.637-2.326-1.784-4.165C353.763,451.711,355.161,447.951,359.537,447.16Z" transform="translate(-253.243 -329.245)" fill="#d6d6d6" fill-rule="evenodd"/>
          <path id="Path_222" data-name="Path 222" d="M361.085,451.36c1.407,3.338.827,5.443-1.2,7.741C349.409,460.683,352.553,445.458,361.085,451.36Z" transform="translate(-236.311 -306.029)" fill="#d6d6d6" fill-rule="evenodd"/>
          <path id="Path_223" data-name="Path 223" d="M353.379,451.053c1.866,3.31.809,11.731-5.948,10.132C342.3,456.864,349.306,449.785,353.379,451.053Z" transform="translate(-298.928 -298.569)" fill="#d6d6d6" fill-rule="evenodd"/>
          <path id="Path_224" data-name="Path 224" d="M359.211,459.426c-4.018,1.683-9.626.2-11.317-2.381C349.134,448.972,360.663,453.625,359.211,459.426Z" transform="translate(-280.323 -283.7)" fill="#d6d6d6" fill-rule="evenodd"/>
          <path id="Path_225" data-name="Path 225" d="M360.659,461.412c-1.793.791-4.56.607-7.153.589C347.944,452.31,364.842,450.076,360.659,461.412Z" transform="translate(-243.636 -274.956)" fill="#d6d6d6" fill-rule="evenodd"/>
          <path id="Path_226" data-name="Path 226" d="M358.094,456.913c-.331,2.464-1.857,3.7-2.97,5.36C340.984,463.588,352.669,447.213,358.094,456.913Z" transform="translate(-276.237 -274.631)" fill="#d6d6d6" fill-rule="evenodd"/>
          <path id="Path_227" data-name="Path 227" d="M353.862,457.5c2.574,6.178-4.036,9.893-8.927,7.162C341.561,459.413,347.555,454.88,353.862,457.5Z" transform="translate(-312.531 -250.791)" fill="#d6d6d6" fill-rule="evenodd"/>
          <path id="Path_228" data-name="Path 228" d="M352.362,458.908c4.772-1.922,6.794-.257,7.162,2.969C360.582,471.586,342.617,462.824,352.362,458.908Z" transform="translate(-267.526 -239.677)" fill="#d6d6d6" fill-rule="evenodd"/>
        </g>
        <g id="Group_302" data-name="Group 302" transform="translate(102.309 264.786)">
          <path id="Path_229" data-name="Path 229" d="M340.565,441.185c.147,2.455-5.257,3.036-5-1A3.387,3.387,0,0,1,340.565,441.185Z" transform="translate(-251.55 -419.105)" fill="#d6d6d6" fill-rule="evenodd"/>
          <path id="Path_230" data-name="Path 230" d="M340.484,439.1c1.6,2.694.429,6.653-3,6C336.987,442.325,336.9,438.384,340.484,439.1Z" transform="translate(-238.469 -420.021)" fill="#d6d6d6" fill-rule="evenodd"/>
          <path id="Path_231" data-name="Path 231" d="M339.339,440.42a6.5,6.5,0,0,1,3,1c.487,1.168-.4.9,0,2-1.131.855-3.393,1.112-4,0C337.687,441.8,339.689,441.835,339.339,440.42Z" transform="translate(-229.324 -412.339)" fill="#d6d6d6" fill-rule="evenodd"/>
          <path id="Path_232" data-name="Path 232" d="M338.361,441.317c.588.009.283.193,1,0,1.011,2.5-1.033,5.839-3,4C336.426,443.589,338,442.853,338.361,441.317Z" transform="translate(-246.346 -406.237)" fill="#d6d6d6" fill-rule="evenodd"/>
          <path id="Path_233" data-name="Path 233" d="M334.756,441.93c2.592-2.574,5.473,2.7,3,4C335.724,447,333.009,443.668,334.756,441.93Z" transform="translate(-260.741 -402.85)" fill="#d6d6d6" fill-rule="evenodd"/>
          <path id="Path_234" data-name="Path 234" d="M338.136,446.077a9.429,9.429,0,0,1-1-3C339.508,438.406,344.286,445.682,338.136,446.077Z" transform="translate(-236.121 -400.996)" fill="#d6d6d6" fill-rule="evenodd"/>
          <path id="Path_235" data-name="Path 235" d="M339.3,442.722c2.059,2.391-1.839,4.177-4,3C335.194,443.671,336.96,442.336,339.3,442.722Z" transform="translate(-256.289 -395.641)" fill="#d6d6d6" fill-rule="evenodd"/>
          <path id="Path_236" data-name="Path 236" d="M342.359,442.728c.644,2.032-.566,3.329-2,4C336.617,445.5,339.3,440.016,342.359,442.728Z" transform="translate(-226.344 -398.647)" fill="#d6d6d6" fill-rule="evenodd"/>
          <path id="Path_237" data-name="Path 237" d="M334.449,444.393c.147.524-.184,1.457,0,2a2.572,2.572,0,0,1-3,0C330.7,443.828,333.309,442.582,334.449,444.393Z" transform="translate(-283.434 -385.313)" fill="#d6d6d6" fill-rule="evenodd"/>
          <path id="Path_238" data-name="Path 238" d="M338.049,443.963c.009,1.618-1.3,2.494-3,3a3.858,3.858,0,0,1-2-2C333.978,444.126,337.02,442.556,338.049,443.963Z" transform="translate(-271.034 -385.882)" fill="#d6d6d6" fill-rule="evenodd"/>
          <path id="Path_239" data-name="Path 239" d="M339.4,443.14c1.2,1.94.5,4.715-2,5C334.843,447.009,336.6,442.276,339.4,443.14Z" transform="translate(-247.385 -388.059)" fill="#d6d6d6" fill-rule="evenodd"/>
          <path id="Path_240" data-name="Path 240" d="M336.867,447.6c-2.234,1.729-6.329,1-7-2C331.6,444.29,335.3,446.189,336.867,447.6Z" transform="translate(-298.852 -371.515)" fill="#d6d6d6" fill-rule="evenodd"/>
          <path id="Path_241" data-name="Path 241" d="M335.417,446.145a3.394,3.394,0,0,1-3,3C329.392,447.288,333.44,443.644,335.417,446.145Z" transform="translate(-286.402 -374.065)" fill="#d6d6d6" fill-rule="evenodd"/>
          <path id="Path_242" data-name="Path 242" d="M337.467,445.13c.846,2.556-2.483,4.857-4,3C332.713,446.007,335.977,444.211,337.467,445.13Z" transform="translate(-270.452 -376.05)" fill="#d6d6d6" fill-rule="evenodd"/>
          <path id="Path_243" data-name="Path 243" d="M339.252,445.856c.055,1.627-2.262,2.322-4,2a1.307,1.307,0,0,0-1-1C333.443,444.576,338.5,444.164,339.252,445.856Z" transform="translate(-259.237 -375.775)" fill="#d6d6d6" fill-rule="evenodd"/>
          <path id="Path_244" data-name="Path 244" d="M337.283,447.28c-.248,2.344-4.308,3.278-6,2C329.794,445,335.876,445.993,337.283,447.28Z" transform="translate(-287.268 -367.2)" fill="#d6d6d6" fill-rule="evenodd"/>
          <path id="Path_245" data-name="Path 245" d="M338.663,446.21c.956,3.181-4.575,4.959-6,3C332.249,445.707,336.19,446.651,338.663,446.21Z" transform="translate(-277.647 -362.129)" fill="#d6d6d6" fill-rule="evenodd"/>
          <path id="Path_246" data-name="Path 246" d="M459.448,496.46c5.378,4.045,1.477,12.2-3,15,1.591,2.979-.384,5.628-1,8,2.133,3.806-1.761,7.12-2,11-19.362,15.317-43.561,26.792-69,38-.561-.561-1.623-.154-2-1-.322-1.737.731-2.311,2-3a8.151,8.151,0,0,1-3-5c-3.273,1.866-.01,6.6-4,8-2.722.956-10.113-1.779-13-2-3.659-.267-7.3-.789-5-5,3.871.671,6.614,2.1,11,2-3.834-1.526-8.224-5.666-15-3-6.969-2.675-1.672-9.1-5-16-1.71-3.567-8.426-4.672-11-8-1.012-1.306.142-2.357-2-3-2.353,2.684,1.244,4.97,3,6-.2,1.306-1.158,3.639,0,5,1.094-.138-.386-1.412,0-2,1.149-.009,1.044-.853,2-1,2.63,2.216,5.43,3.376,6,8-.469,1.646-2.379,2.15-1,5-4.165.414-5.3-2.782-9-2a7.829,7.829,0,0,1-1-3c-1.3-2.372-4.219-3.224-5-6-.432-1.553.954-3.308,1-5,.073-2.28-1.32-6.1-2-8-1.508-4.2-4.669-6.091-5-11a10.627,10.627,0,0,1,2-7c2.611-3.144,6.349-3.6,6-9,12.264-10.61,25.085-20.151,37-31-2.777-1.839-7.552-3.462-11-2,1.02,6.1.218,7.709-3,11-3.439,3.54-9.841,3.311-11,8,.552,1.149-.246,3.062-1,4-2.418.974-1.446-2.65-3-3-1.83-9.874,11.766-6.958,14-14,.046-1.793-1.211-3.191-1-4,.8-5.948,7.153-7.039,13-6,1.7.294,2.63,1.211,4,1,2.243-.34,3.821-2.559,6-3,1.388-.616.29-2.6,2-3-1.122-8.182,2.587-13.431,7-18,8.468-4.358,15.569-6.14,24-5a32.538,32.538,0,0,1,4,1c6.647,2.188,14.155,5.534,19,9,6.39,1.554,11.063,6.484,16,12,.634.717,2.448,1.127,3,2,1.278,2,3.09,7.692,4,10a53.387,53.387,0,0,1,3,11C461.285,488.528,460.938,491.5,459.448,496.46Zm-113,1c-1.848,1.324-6.11,4.309-6,6,.111,1.627,3.108,3.961,4,5,4.045,4.744,7.879,10.056,13,14,1.223.938,2.713,1.007,4,2,1.342,1.038,2.639,3.21,4,4,2.721,1.581,5.892,1.419,9,3,1.756.91,3.2,3.156,5,3,1.462-.12,4-1.731,6-3,1.9-1.222,4.217-3.1,6-4,1.067-.542,2.163-.531,3-1s1.878-1.209,3-2c1.048-.745,1.934-1.228,3-2,6.5-4.753,13.291-10.5,19-15,3.08-2.427,4.125-3.223,6-6,.625-.929,2.476-2.145,3-3,.947-1.526.851-4.136,2-5,3.181-2.4,7.467.26,12-1,11.695-3.227,10.088-21.553,3-29a14.852,14.852,0,0,0,0-3c-6.473-6.574-17.273-12.736-27-16-3.7-1.241-6.782-2.77-10-3-12.016-.864-24.294,6.924-24,17,.735,1.535,1.515,4.106,1,6-7.208,5.286-13.647,12.152-20,18C358.884,487.719,353.8,492.22,346.448,497.46Zm-7,31c1.866-3.944-3.163-3.444-4-6-.984-2.97,1.905-6.945-1-11C325.512,513.777,332.213,529.628,339.448,528.46Zm86-20c1.315-.156,1.835,1.513,2,2a35.278,35.278,0,0,1,2-4c3.19.3,2.819-2.724,6-3a4.3,4.3,0,0,0,0-2A57.536,57.536,0,0,0,425.448,508.46Zm-64,24c-.791-5.58-6.92-6.681-10-10A30.912,30.912,0,0,0,361.448,532.46Zm96-32c-2.317.947-5.632,3.929-6,7C455.282,512,460.252,504.726,457.448,500.46Zm-113,28c-5.516,8.55,7.812,7.629,10,14,.248.736-.064,1.274,0,2a62.452,62.452,0,0,0,2,11c5.176-.019,5.6-5.274,11-6,2.363.653,4.279,4.372,7,2C365.19,542.422,355,535.493,344.448,528.46Zm74-7a2.4,2.4,0,0,0,2-1c-1.875-1.811-1.945-4.885-2-7C415.7,514.609,418.641,518.747,418.448,521.46Zm35-8c-.653-2.069-4.023-4.157-6-4-3.016.239-4.681,3.432-8,3a57.43,57.43,0,0,1-9,6c-5.425,2.8-9.815,6.745-15,10-5.434,3.42-10.52,7.4-16,11,2.473.965,6,2.211,9,2,6.877-.5,7.322-9.391,11-11,4.615-2.023,9.534.177,13-1,2.51-.845,4.612-4.235,6-6,1.177-1.48,1.446-3.163,3-4C446.7,521.832,455.324,519.426,453.448,513.46Zm-45,10c1.112.257,1.057-2.442,0-2A3.009,3.009,0,0,0,408.448,523.46Zm-6,2c1.775,1.637-.69,3.674,0,6,1.756-.781,1.6-5.842,1-7C403.577,525.223,402.742,524.973,402.448,525.46Zm7,2c.386-.717-1.117-2.064-2-2C407.338,526.232,408.253,527.644,409.448,527.46Zm-11,7a45.923,45.923,0,0,1,1-6c-.386.055-.54-.184-1,0C397.888,529.747,396.849,533.448,398.448,534.46Zm-21,10c-.239.763-2.184.952-2,2,.092.377.982-.487,1,0a8.006,8.006,0,0,0,2,0c-.331-2.188.9-3.564,1-6-2.905-1.379-4.975-3.8-8-5C372,539.312,376.492,539.955,377.448,544.46Zm15-7c2.841-1.167,1.154-3.941,2-6C391.359,531.993,393.165,535.392,392.448,537.46Zm57-14c-6.169-1.627-9.729,3.276-12,7,1.848.055,4.508-2.432,7-2,.193-1.388-.48-2.449,1-3a3.167,3.167,0,0,1,3,2c2.537-.542,2.476-2.143,3-4C449.83,523.708,450.4,522.587,449.448,523.46Zm-30,13c2.335,2.528,2.446,6.6,4,9,1.554-1.931-2.225-7.271,0-9a3.115,3.115,0,0,1,3,0c1.241,1.655-.252,5.062,2,6a20.585,20.585,0,0,0,2-1c-1.866-3.457-1.953-9.942,2-7a11.24,11.24,0,0,0,2,5c1.306-.175,1.035-1.614,2-2-.174-2.326-1.614-3-2-5C429.419,533.434,420.726,530.98,419.448,536.46Zm-29,8c3.172.542,1.789,4.333,2,7l2-1c.138-2.528-.129-5.462,0-8C392.977,541.081,391.009,543,390.448,544.46Zm26-4c2.069,1.636-.815,7.156,3,7-.625-2.381-2.441-4.479-2-8C416.547,538.955,416.356,539.549,416.448,540.46Zm-35,11c.892,2.464,5.014,1.673,7,0,.046-1.82-.294-4.327,0-6C385.524,546.866,384.822,550.357,381.448,551.46Zm16-2c3.19-1.048,5.134-3.088,7-5a11.04,11.04,0,0,0-6-1A19.611,19.611,0,0,0,397.448,549.46Zm13-5c1.131,1.756,1.888,4.207,3,6a2.667,2.667,0,0,0,2-1c-.552-1.885-2.349-3.839-2-6C412.234,542.44,411.763,544.083,410.448,544.46Zm-1,8c-.211-.717-.961-4.246-2-5C406.373,549.188,408.152,551.945,409.448,552.46Zm-29,4c-.487-1.2-1.686-1.073-3-1C377.88,556.757,378.775,557.085,380.448,556.46Zm-5,1c.368,1.306,3.414,1.7,3,0C377.152,557.4,376.791,557.1,375.448,557.46Zm19-3c-.662.331-1.917.292-2,1C393.506,555.046,394.66,556.253,394.448,554.46Zm7,3c.211-1.141-1.88-2.143-2-4h-1C399.239,554.839,399.839,557.331,401.448,557.46Z" transform="translate(-326.433 -437.379)" fill="#d6d6d6" fill-rule="evenodd"/>
        </g>
        <g id="Group_303" data-name="Group 303" transform="translate(591.657 287.925)">
          <path id="Path_247" data-name="Path 247" d="M394.449,441.376c3.356.184,8.647.067,11,3-1.186,1.3-2.4-.862-4-1-3.144-.276-6.235,1.342-8,0C393.808,442.76,393.971,441.762,394.449,441.376Z" transform="translate(-384.781 -392.434)" fill="#d6d6d6" fill-rule="evenodd"/>
          <path id="Path_248" data-name="Path 248" d="M406.773,446.043c-.4.579-1.926-.366-2-1-2.179.028-4.088-.4-6,0-1.434.3-3.4,1.361-5,0-.551-2.528,2.122-1.65,5-2C400.723,442.8,406.194,442.521,406.773,446.043Z" transform="translate(-379.106 -382.101)" fill="#d6d6d6" fill-rule="evenodd"/>
          <path id="Path_249" data-name="Path 249" d="M396.987,438.59c.837.9,1.219,2.053,2,3,1,1.2,3.138,3.308,3,5-2.032-1.26-4.886-4.2-7-6C395.088,439.487,396.426,438.829,396.987,438.59Z" transform="translate(-369.319 -411.648)" fill="#d6d6d6" fill-rule="evenodd"/>
          <path id="Path_250" data-name="Path 250" d="M396.282,440.3c4.018.432,7.807,1.543,8,5-1.968-.533-3.306-2.476-6-3-1.057-.2-2.476.131-3-1C395.365,440.286,395.951,440.858,396.282,440.3Z" transform="translate(-370.614 -404.356)" fill="#d6d6d6" fill-rule="evenodd"/>
          <path id="Path_251" data-name="Path 251" d="M397.639,439.533c1.784,1.591,2.053,4.014,3,6,.607,1.278,2.073,2.446,2,4-4.082-1.6-4.446-6.039-6-9A1.8,1.8,0,0,1,397.639,439.533Z" transform="translate(-355.972 -409.591)" fill="#d6d6d6" fill-rule="evenodd"/>
          <path id="Path_252" data-name="Path 252" d="M398.174,440.98c4.67,1.462,7.764,5.058,11,8,3.338,3.034,6.518,5.5,9,9,1.609.515,2.274,2.016,3,3-9.157-5.351-14.512-12.824-24-18A1.708,1.708,0,0,1,398.174,440.98Z" transform="translate(-355.506 -397.038)" fill="#d6d6d6" fill-rule="evenodd"/>
          <path id="Path_253" data-name="Path 253" d="M408.2,443.819c-.128,1.471-2.053.046-3,0-2.758.083-5.04,1.294-8,1-.193-.616-.5-1.458,0-2C400.109,442.065,404.95,441.925,408.2,443.819Z" transform="translate(-356.536 -386.877)" fill="#d6d6d6" fill-rule="evenodd"/>
          <path id="Path_254" data-name="Path 254" d="M405.9,444.62a2.689,2.689,0,0,1,0,2c-.534,1.894-1.775.083-4,0-2.032-.073-4.814,1.809-6,1C394.412,444.393,402.793,443.921,405.9,444.62Z" transform="translate(-362.233 -367.678)" fill="#d6d6d6" fill-rule="evenodd"/>
          <path id="Path_255" data-name="Path 255" d="M398.292,438.554c.156-.248.862-.724,1-1,.68,1.793,5.3,7.032,4,9C401.123,449.863,398.586,439.8,398.292,438.554Z" transform="translate(-341.625 -420.612)" fill="#d6d6d6" fill-rule="evenodd"/>
          <path id="Path_256" data-name="Path 256" d="M404.535,445.556c-.055.193-.147-.092,0,0,.285.763-.7,1.32-1,2-2.326-.46-2.878,1.49-4,4a2.765,2.765,0,0,1-2-1C397.737,446.309,401.437,445.455,404.535,445.556Z" transform="translate(-349.867 -362.614)" fill="#d6d6d6" fill-rule="evenodd"/>
          <path id="Path_257" data-name="Path 257" d="M400.779,441c1.26.285.864,2.127,0,3-.248,1.977.46,4.474,0,6C398.876,448.037,397.8,442.981,400.779,441Z" transform="translate(-338.112 -397.063)" fill="#d6d6d6" fill-rule="evenodd"/>
          <path id="Path_258" data-name="Path 258" d="M401.292,439.105c1.242,2.418.223,5.382,3,7C401.166,452.311,398.727,441.3,401.292,439.105Z" transform="translate(-330.624 -414.163)" fill="#d6d6d6" fill-rule="evenodd"/>
          <path id="Path_259" data-name="Path 259" d="M401.935,439.642c1.26.478.752,2.731,1,4,.322,1.728,2.021,2.226,1,4a4.126,4.126,0,0,0-1,1C400.636,447.06,400.785,442.5,401.935,439.642Z" transform="translate(-320.267 -403.7)" fill="#d6d6d6" fill-rule="evenodd"/>
          <path id="Path_260" data-name="Path 260" d="M401.366,442.675c2.785,1.839,6.577,4.472,7,7-2.372-1.029-5.481-3.474-8-5A1.389,1.389,0,0,1,401.366,442.675Z" transform="translate(-325.698 -378.734)" fill="#d6d6d6" fill-rule="evenodd"/>
          <path id="Path_261" data-name="Path 261" d="M407.955,448.5c-2.51-.156-5.373-3.226-7-5l1-1c1.719-1.26,1.86,1.455,3,3C406.013,446.942,408.258,447.543,407.955,448.5Z" transform="translate(-320.288 -388.557)" fill="#d6d6d6" fill-rule="evenodd"/>
          <path id="Path_262" data-name="Path 262" d="M401.025,447.078c4.275,4.523,8.1,8.883,15,12-1.149.956-5.032-.694-7-2-3.457-2.3-7.336-7.076-9-10C400.154,446.554,400.823,447.446,401.025,447.078Z" transform="translate(-330.358 -350.137)" fill="#d6d6d6" fill-rule="evenodd"/>
          <path id="Path_263" data-name="Path 263" d="M402.474,441.606c1.223.524,2.053,2.071,3,3,.772.754,2.735,1.382,2,3C405.332,446.916,399.247,443.518,402.474,441.606Z" transform="translate(-316.807 -389.664)" fill="#d6d6d6" fill-rule="evenodd"/>
          <path id="Path_264" data-name="Path 264" d="M402.492,445.23c1.793,3.632,4.711,6.635,7,10a53.552,53.552,0,0,0,6,5,11.642,11.642,0,0,1,3,3c-5.259-1.729-10.617-6.688-14-11C402.846,450.144,399.476,447.318,402.492,445.23Z" transform="translate(-318.824 -361.289)" fill="#d6d6d6" fill-rule="evenodd"/>
          <path id="Path_265" data-name="Path 265" d="M403.452,440.339c2.528.018,3.4,6.285,1,6C402.006,446.054,403.875,441.92,403.452,440.339Z" transform="translate(-303.785 -402.397)" fill="#d6d6d6" fill-rule="evenodd"/>
          <path id="Path_266" data-name="Path 266" d="M402.706,446.093c1.673.055,2.584,1.971,4,3,1.02.735,3.266.409,3,2C406.175,449.833,402.7,449.255,402.706,446.093Z" transform="translate(-308.038 -357.151)" fill="#d6d6d6" fill-rule="evenodd"/>
          <path id="Path_267" data-name="Path 267" d="M405.382,442.189a9.169,9.169,0,0,1,8,7c-2.611-2.1-5.911-4.695-9-6C404.438,442.416,405.282,442.86,405.382,442.189Z" transform="translate(-294.715 -385.247)" fill="#d6d6d6" fill-rule="evenodd"/>
          <path id="Path_268" data-name="Path 268" d="M405.164,468.031c.524-1.462-1.549-2.318-2-4-1.885-7.079.7-16.439,8-17,1.361-5.783,5.906-9.273,11-6,1.14-.534,1.256-1.713,2-3,2.924-2.427,8.766-2.732,11,1a5.348,5.348,0,0,0,4-1c2.694-.074,5.324-.214,8,1a23.42,23.42,0,0,0,3,1c2.142.616,3.895-.954,6-1,2.317-.055,5.354,1.713,7,3,1.4,1.094,1.17,2.612,3,4,8.458-.248,14.373,5.015,16,11,6.592,2.261,8.888,6.815,10,12a10.111,10.111,0,0,1,4,1c1.434.929,4.568,6.72,5,9a20.75,20.75,0,0,1,0,4c.828,4.11,6.808,5.113,11,8,1.959,1.37,2.95,3.347,5,4,5.029,5.443,10.067,12.156,9,21-.883,7.3-3.4,16.136-8,21-.506.441-1.513.531-2,1-1.673,4.376-3.166,8.678-7,9-.929,3.006-4.766,3.483-7,5-1.949,1.315-3,4.391-5,6-.4.331-1.642-.331-2,0-1.443,1.324-2.51,3.713-4,5-7.042,3.613-17.238,3.572-26-2a33.9,33.9,0,0,1-7-7c-3.108-4.109-5.725-8.387-10-12-2.023.8-3.582,3.322-6,3-3.907-.524-5.924-4.38-7-7a29.166,29.166,0,0,1-11-3c-4.974-2.464-8.428-5.752-10-10-9.359-2.482-12.237-10.349-13-19-.285-3.172-1.655-5.12,0-9-5.351-2.73-11.229-7.691-7-15,.441-.763,1.632-1.9,2-3,.9-2.666-2.556-6.9,0-10C397.791,467.035,402.157,467.589,405.164,468.031Zm-6,3c-2.887,2.51.542,6.766,0,9-.5,2.105-3.43,2.251-4,5-.809,3.871,3.442,7.327,7,9a9.364,9.364,0,0,1,3,0c.083.524-.083.476,0,1-.028,2.1-1.476,2.3-2,4a4.826,4.826,0,0,0,1,5c-.092.791.018,2.246,0,3,1.554,3.613,6.9,6.906,12,8,2.216.478,3.115-.441,5,0a5.378,5.378,0,0,1,1,4c1.379,2.556,3.2,5.979,6,7,3.466,1.26,5.69-1.991,9-2,1.765,1.756,2.853,8,7,8,3.493,0,1.4-6.735,5-6a10.6,10.6,0,0,1,4,2,28.648,28.648,0,0,1,4,5c1.361,1.912,2.988,3.685,4,5a55.094,55.094,0,0,0,4,5c1.636,1.719,3.364,4.51,5,6a24.383,24.383,0,0,0,20,6c1.968-.846,3.832-3.74,5-5-.588-.827-.154-2.3-1-3-5.378,1.71-12.81-3.819-16-7a51.426,51.426,0,0,1-11-16c-3.816-4.027-6.667-8.782-12-12-2.363,1.83-4.644,3.892-8,3-4.688-1.232-8.917-5.945-9-10-7.824-1.7-15.471-6.185-14-14-7.263-5.507-15.51-10.413-17-19C404.884,471.359,400.8,469.606,399.164,471.031Zm9-5c.5-.459.393-.742,1-1-.34-.671-.274-.54-1-1-.864-1.094-.695-2.163-2-3C405.75,463.476,406.73,464.56,408.164,466.031Zm2-15c1.048,1.333.492,3.915,2,5,.386-1.729.173-3.464,1-5C412.135,450.911,410.633,450.093,410.164,451.031Zm1,8c.653-.874-.568-1.266-1-1C410.642,458.408,410.7,458.653,411.164,459.031Zm3-9a34.907,34.907,0,0,1,5-1c-.1-2.179-2.34-3.582-2-6C415.233,444.143,414.385,448.1,414.164,450.031Zm0,14c-.432,1.14-1.7,2.035-2,3-.818,2.648.869,4.106,2,6,2.436,4.036,5.737,6.46,9,10,.635.69,1.016,2.172,2,3,1.177,1,2.6,1.209,3,2,.726,1.489-.338,3.584-1,5,1.066,4.183,5.732,8.927,11,9,1.48.028,2.768-1.324,4,0-1.572,5.553,2.052,9.55,8,10,2.243.074,2.941-4.055,5-4,1.719.037,2.09,1.127,3,2a98.464,98.464,0,0,1,7,7,74.427,74.427,0,0,1,10,16c4.054,4.707,12.241,13.954,20,10,.4-1.315.366-2.971,1-4,1.866-3.052,6.425-7.648,9-9,1.039-.542,3.458-.007,4-1,.827-1.536-1-6.17-2-8a22.928,22.928,0,0,0-12-11,85.291,85.291,0,0,1-15-7c-4.468-2.832-7.69-6.9-11-10-1.012-.469-1.228,2.048-2,1,.671-2.869,3.126-3.527,4-6,.956-2.73-.812-6.228-3-7-1.885-.662-3.455,2.067-5,1-1.434-.984.586-3.648,1-5-1.085-3.365-4.276-4.239-8-4-3.328.211-6.952,3.484-8,0,3.613-8.146-.921-12.262-8-14-4.1-1.011-9.04-.687-12-1-.791-1.351.287-2.667-1-4-2.905-3-9.527-3.253-12-1C412.838,458.041,415.24,461.171,414.164,464.031Zm11-14c-.828-1.673-.665-4.126-3-5C421.677,446.741,424.024,448.624,425.164,450.031Zm-1-7c2.115,1.5,2.738,4.584,5,6,.551-1.177-.312-1.685,0-3-1.315-1.59-1.8-3.345-3-5C425.658,441.6,424.385,441.964,424.164,443.031Zm4-3c.313-.515-.129-.6,0-1-.717-.046-.642.384-1,1C427.817,440.169,427.622,440.086,428.164,440.031Zm-23,73c-.092.258.046-.349,0,0,1.655,2.85,3.118,8.448,8,9,1.057.12,2.612-.809,4,0,1.167,1.434-.276,2.547,0,4,.928,4.845,10.833,8.687,16,9a11.621,11.621,0,0,1,3-1,4.191,4.191,0,0,1,2,4,21.4,21.4,0,0,0,4,4,5.769,5.769,0,0,0,2-1c.625-.874,1.237-2.4,2-3a3.044,3.044,0,0,1,4,2c3.172,1.729,5.244,5.775,7,8,.561.708,1.31,1.2,2,2,1.094,1.306,1.869,2.722,3,4,.266.3.65-.294,1,0,.689.6,1.209,2.283,2,3,3.88,3.5,8.491,5.412,15,6,3.742-1.14,8.518-1.5,11-5a31.7,31.7,0,0,1-19-4c-1.563-.929-2.016-2.126-3-3a80.519,80.519,0,0,1-11-12,18.614,18.614,0,0,0-5-5c-.717-1.508-1.619-3.384-4-4-.616.781-.421,2.163-1,3,.441.616.522-.5,1,0,1.26,3.622,5.814,6.911,7,10-3.374-2.767-7.336-5.313-9-9-4.827,3.954-10.161-5.467-12-6-.79-.23-1.924.844-3,1a11.686,11.686,0,0,1-3,0c-6.813-1.057-9.29-5.75-11-11C413.3,517.957,407.931,515.3,405.164,513.031Zm26-70c.248-.193.917-.5,1-1-1.324-.294-3.025-1.653-4-1C429.368,441.812,429.84,442.3,431.164,443.031Zm2-2c.368-1.057-.329-1.5-1-2C432.026,439.968,432.061,440.755,433.164,441.031Zm-3,13c.212.055-.157-.1,0,0,2.721,1.931,6.773,1.118,10,2a25.57,25.57,0,0,1,10,6c2.087,2.253,1.818,4.844,1,9,4.753-.009,12.72-1.084,15,4,.451,1.03-.1,2.035,1,3,6.583.662,8.852,7.787,5,13,1.683,1.894,2.364,4.382,4,6,3.337,3.319,8.054,5.417,13,8,11.428,2.3,20.216,9.788,22,19,.478,2.464-.169,5.1,2,7,1.168-1.848,2.14-6.263,1-8,.616-13.726-9.34-21.362-22-28-1.278-1.443-2.7-2.584-4-4-.864-.947-2.688-2.823-3-4-.818-3.1,2.5-2.07,3-4,.643-2.547-3.288-5.46-6-5-2.023-1.6-.019-3.152,0-5a11.081,11.081,0,0,0-2-5c-2.694-3.283-4.691-.485-8-1-.8-2.262.2-2.895,0-5-.377-3.76-4.927-6.122-9-5-1.738.478-2.7,1.965-4,1-.919-.68-.009-3.155,0-4-.717-3.991-6.477-6.3-11-5-1.949.322-3.115,3.34-5,3-2.886-.524.064-3.639,0-5-.128-2.583-3.354-3.557-5-5C433.337,441.792,431.847,450.3,430.164,454.031Zm13-12c.589-.506,1.558-.219,2-1-1.278-.23-3.274-.782-4,0A4.307,4.307,0,0,0,443.164,442.031Zm8,4c.386-.837-.295-1.209,0-2a3.586,3.586,0,0,0-2,0C448.87,445.216,450.042,446.113,451.164,446.031Zm2-3c.726.763-.076,2.126,1,3,.644.524,2.108,1.421,3,2,2.611,1.738,3.18,5.136,5,6,1.508.726,3.492-.644,5,0,.138-1.158-.977-2.457,1-3,1.048,1.729,2.853,2.794,3,5,3.245,1.591,2.878,5.288,4,8,6.187-.34,9.478,5.575,9,11,4.514,2.252,9.413,7.109,5,12,3.126,6.27,11.978,8.357,18,13,2.032,1.563,3.005,3.758,5,5,4.827,7.336,7,17.583,5,28,4.091-5.084,5.035-13.445,6-20-.974-1.747-.632-3.318-1-5-1.342-5.994-6.732-11.369-12-15-2.289-1.572-5.858-1.584-8-3-3.144-2.069-4.32-5.828-5-9a7.284,7.284,0,0,0,1-2c-.754-2.105-1.435-5.035-4-6-1.352-.515-3.336.763-5,0-.818-1.462.119-4.17,0-6-1.591-1.839-2.538-4.088-4-6-3.42-1.342-9.252-.017-7-5-1.333-3.806-3.723-7.88-9-8-2-.046-3.446,2.627-5,1C464.146,444.765,457.283,440.07,453.164,443.031Zm54,90c-1.9.6-7.09,6.244-8,8-1.4,2.694-2.74,7.256,0,8a13.107,13.107,0,0,1,5-1c1.784-1.26,2.649-2.941,4-5,.828-.285,1.4.23,2,0C514.31,538.9,512.836,531.22,507.164,533.031Z" transform="translate(-392.497 -436.089)" fill="#d6d6d6" fill-rule="evenodd"/>
        </g>
        <g id="Group_304" data-name="Group 304" transform="translate(698.143 50.235)">
          <path id="Path_269" data-name="Path 269" d="M402.466,408.41c2.455,3.439-1.9,5.105-3,3C398.51,409.6,400.278,408.08,402.466,408.41Z" transform="translate(-347.285 -382.779)" fill="#d6d6d6" fill-rule="evenodd"/>
          <path id="Path_270" data-name="Path 270" d="M403.786,410.873c-.506.717-2.311,1.441-3,1C398.294,408.664,404.08,407.453,403.786,410.873Z" transform="translate(-338.605 -381.241)" fill="#d6d6d6" fill-rule="evenodd"/>
          <path id="Path_271" data-name="Path 271" d="M399.915,413.026c-.809-.883-.136-.924-1-2C402.27,407.063,405.909,412.759,399.915,413.026Z" transform="translate(-352.734 -374.394)" fill="#d6d6d6" fill-rule="evenodd"/>
          <path id="Path_272" data-name="Path 272" d="M423.877,408.769c1.2,3.356-3.014,6.705-5,3-6.739-2.28-11.244,4.145-13,9,.331,1.48,1.076,3.044,0,4-2.3-.147-2.374-2.968-3-5a8.88,8.88,0,0,0,1-4c2.216-2.96,3.862-6.529,8-8,3.641-1.287,6.727.386,10,0C422.264,408.614,423.344,408.31,423.877,408.769Z" transform="translate(-318.696 -391.138)" fill="#d6d6d6" fill-rule="evenodd"/>
          <path id="Path_273" data-name="Path 273" d="M403.756,410.612c-.735,1.839-1.915,2.809-3,2C398.053,410.571,402.459,406.87,403.756,410.612Z" transform="translate(-343.575 -374.981)" fill="#d6d6d6" fill-rule="evenodd"/>
          <path id="Path_274" data-name="Path 274" d="M399.877,411.835a5.507,5.507,0,0,1,1,3C396.731,417.474,396,410.29,399.877,411.835Z" transform="translate(-362.696 -354.203)" fill="#d6d6d6" fill-rule="evenodd"/>
          <path id="Path_275" data-name="Path 275" d="M408.586,410.59c.5,3.007-6.788,9.013-7,3C403.618,412.478,406.674,410.545,408.586,410.59Z" transform="translate(-330.405 -363.959)" fill="#d6d6d6" fill-rule="evenodd"/>
          <path id="Path_276" data-name="Path 276" d="M402.533,414.791c-1.443,1.333-2.108,3.464-3,5C393.613,420.37,399.518,408.052,402.533,414.791Z" transform="translate(-368.352 -345.16)" fill="#d6d6d6" fill-rule="evenodd"/>
          <path id="Path_277" data-name="Path 277" d="M399.26,416.226c-.166-.4.331-.046,0,0C396.18,409.065,406.946,414.682,399.26,416.226Z" transform="translate(-355.079 -349.595)" fill="#d6d6d6" fill-rule="evenodd"/>
          <path id="Path_278" data-name="Path 278" d="M406.316,411.82c.892,1.83-.143,2.715-2,3C401.861,412.337,404.091,410.873,406.316,411.82Z" transform="translate(-312.136 -355.188)" fill="#d6d6d6" fill-rule="evenodd"/>
          <path id="Path_279" data-name="Path 279" d="M406.941,411.882c.193,1.122.644,2.54,0,3C403.815,417.079,402.932,409.013,406.941,411.882Z" transform="translate(-304.76 -358.25)" fill="#d6d6d6" fill-rule="evenodd"/>
          <path id="Path_280" data-name="Path 280" d="M403.076,416.161c-.46-.505-.412.137-1,0C399.906,410.728,407.71,413.026,403.076,416.161Z" transform="translate(-330.895 -344.53)" fill="#d6d6d6" fill-rule="evenodd"/>
          <path id="Path_281" data-name="Path 281" d="M405.857,413.744c.055,1.609-1.244,3.186-3,2C400.678,412.5,404.248,411.86,405.857,413.744Z" transform="translate(-321.676 -348.113)" fill="#d6d6d6" fill-rule="evenodd"/>
          <path id="Path_282" data-name="Path 282" d="M407.936,414.168c-.781.515-1.4-.037-2,0C403.334,410.306,409.37,411.464,407.936,414.168Z" transform="translate(-297.755 -356.536)" fill="#d6d6d6" fill-rule="evenodd"/>
          <path id="Path_283" data-name="Path 283" d="M403.573,416.681a7.778,7.778,0,0,1-3,1C397.613,413.029,405.5,413.124,403.573,416.681Z" transform="translate(-343.392 -335.05)" fill="#d6d6d6" fill-rule="evenodd"/>
          <path id="Path_284" data-name="Path 284" d="M398.574,418.2c-3.641-6.123,7.383-1.664,0,0Z" transform="translate(-357.393 -327.572)" fill="#d6d6d6" fill-rule="evenodd"/>
          <path id="Path_285" data-name="Path 285" d="M406.657,414.494a1.756,1.756,0,0,1-2,2,7.242,7.242,0,0,0-1-2C404.494,412.2,405.306,412.242,406.657,414.494Z" transform="translate(-315.476 -345.863)" fill="#d6d6d6" fill-rule="evenodd"/>
          <path id="Path_286" data-name="Path 286" d="M398.065,417.42c.321,1.6.161,3.32-2,4C392.977,419.875,395.1,416.123,398.065,417.42Z" transform="translate(-385.884 -312.788)" fill="#d6d6d6" fill-rule="evenodd"/>
          <path id="Path_287" data-name="Path 287" d="M401.626,413.976c1.112.69,3.066,1.63,2,3-1.278.828-2.026-.018-3,0C400.553,415.919,400.017,414.408,401.626,413.976Z" transform="translate(-336.445 -335.345)" fill="#d6d6d6" fill-rule="evenodd"/>
          <path id="Path_288" data-name="Path 288" d="M399.655,416.3c1.94,2.933-2.053,2.793-3,1C396.628,415.512,398.221,415.992,399.655,416.3Z" transform="translate(-367.474 -319.673)" fill="#d6d6d6" fill-rule="evenodd"/>
          <path id="Path_289" data-name="Path 289" d="M398.707,417.53c.248.873-.862,1.274-1,2a5.461,5.461,0,0,1-2-1C394.383,415.911,397.53,416.372,398.707,417.53Z" transform="translate(-378.526 -313.899)" fill="#d6d6d6" fill-rule="evenodd"/>
          <path id="Path_290" data-name="Path 290" d="M401.956,417.823c.193-2.179,2.439-2.4,3-1C405.728,418.763,403.133,420.333,401.956,417.823Z" transform="translate(-326.775 -321.192)" fill="#d6d6d6" fill-rule="evenodd"/>
          <path id="Path_291" data-name="Path 291" d="M406.349,414.634c3.135,1.351-.318,4.869-2,2A2.654,2.654,0,0,1,406.349,414.634Z" transform="translate(-307.168 -330.003)" fill="#d6d6d6" fill-rule="evenodd"/>
          <path id="Path_292" data-name="Path 292" d="M408.59,415.1c-.083,5.59-6.454-1.866,0,0Z" transform="translate(-297.409 -333.464)" fill="#d6d6d6" fill-rule="evenodd"/>
          <path id="Path_293" data-name="Path 293" d="M409.175,416.654c-5.645,1.747-.754-6.013,0,0Z" transform="translate(-288.994 -337.023)" fill="#d6d6d6" fill-rule="evenodd"/>
          <path id="Path_294" data-name="Path 294" d="M402.489,416.407a7.511,7.511,0,0,0,2-1c.524,1.268,1.451,1.732,1,3,.689.4,2.173-.037,3,0,2.85,2.657-2.621,4.776-4,2-.414-.8,1.138-.31,1-1-.607-.662-1.108.137-2,0A3.264,3.264,0,0,1,402.489,416.407Z" transform="translate(-319.308 -322.776)" fill="#d6d6d6" fill-rule="evenodd"/>
          <path id="Path_295" data-name="Path 295" d="M399.443,418.841c1.646-1.719,3.743-1.223,4,0C404.022,421.654,399.084,422.748,399.443,418.841Z" transform="translate(-343.262 -308.209)" fill="#d6d6d6" fill-rule="evenodd"/>
          <path id="Path_296" data-name="Path 296" d="M400.559,417.163a3.973,3.973,0,0,1,3,1c.883,2.381-1.455,3.94-3,2C400.476,419.289,400.642,418.036,400.559,417.163Z" transform="translate(-335.378 -310.531)" fill="#d6d6d6" fill-rule="evenodd"/>
          <path id="Path_297" data-name="Path 297" d="M402.65,419.922c-1.057,1.591-3.952,2.268-5,1C397.346,418.412,401.684,417.431,402.65,419.922Z" transform="translate(-357.469 -300.29)" fill="#d6d6d6" fill-rule="evenodd"/>
          <path id="Path_298" data-name="Path 298" d="M402.03,418.431a2.147,2.147,0,0,1,1,2c-1.738,1.03-3.329.848-4-1A2.941,2.941,0,0,1,402.03,418.431Z" transform="translate(-349.849 -303.8)" fill="#d6d6d6" fill-rule="evenodd"/>
          <path id="Path_299" data-name="Path 299" d="M401.394,417.886a1.9,1.9,0,0,1,3,2c-.965.524-2.274.12-3,0C400.723,418.856,401.283,418.612,401.394,417.886Z" transform="translate(-331.212 -311.254)" fill="#d6d6d6" fill-rule="evenodd"/>
          <path id="Path_300" data-name="Path 300" d="M398.528,422.038c-2.4-3.586,1.265-4.271,2-2C400.915,421.27,400.275,422.81,398.528,422.038Z" transform="translate(-362.347 -296.406)" fill="#d6d6d6" fill-rule="evenodd"/>
          <path id="Path_301" data-name="Path 301" d="M399.775,419.685c.2.717-.542,1.154,0,2a2.815,2.815,0,0,1-3,1C395.3,420.386,398.075,418.1,399.775,419.685Z" transform="translate(-374.594 -291.053)" fill="#d6d6d6" fill-rule="evenodd"/>
          <path id="Path_302" data-name="Path 302" d="M400.778,420.681a3.507,3.507,0,0,1-2,2c-.551-.763-1.641-.712-2-2C396.99,418.428,399.914,418.943,400.778,420.681Z" transform="translate(-367.597 -290.049)" fill="#d6d6d6" fill-rule="evenodd"/>
          <path id="Path_303" data-name="Path 303" d="M452.818,409.19c.607,1.324-.469,1.731,0,3,4.652-.359,6.035-7.322,11-7,1.627,3.374-.294,6.113,0,9,2.28.6,5.262-2.048,7-1,4.863-3.622,10.04-2.707,13,2,2.225.763,5.189.124,7,2,.313,1.333.552,1.971,0,3-1.82,1.6-3.18-.835-5-1-4.284-.377-7.812,2.92-10,6-1.59,2.243-1.793,5.987-4,8-2.262-.478-1.441-4.584-1-6,.6-1.9,3.9-6.271,6-8a15.98,15.98,0,0,0,3-3,4.126,4.126,0,0,0-5-1c-1.508.7-1.977,3.781-4,3-1.452,2.427-2.067,5.134-5,7,3.034,5.121,2.655,11.1,1,16-1.765,5.231-7.631,14.837-13,18a22.088,22.088,0,0,1-4,2,23.648,23.648,0,0,1-7,1c-2.326-.129-7.621-2.18-9-4-1.168-1.536-2.044-4.087-3-6-3.917,2.8-6.407,7.074-9,11-3.319,5.047-6.341,11.09-10,16-3.512,7.327-7.957,13.5-11,21,6.757,1.351,14.921-4.964,22-9,9.58-5.452,21.694-11.024,32-17,2.225-1.287,4.078-2.8,6-4,7.475-4.661,16.325-10.07,23-16,2.491-2.216,6.538-7.112,8-2,4.68-4.4,13.074-6.052,13-12-.046-5.5-7.376-8.473-12-6-4.5,2.4-4.012,6.9-7,9-3-.837-.855-4.327,0-6,1.581-3.053,3.4-6.676,8-8a11.539,11.539,0,0,1,13,5c.92,1.554.979,3.538,2,5,1.324,1.885,3.557,1.653,5,5a12.181,12.181,0,0,1,0,10c6.491,11.272,10.361,23.335,9,34a12.416,12.416,0,0,1-6,5c-9.883,4.514-19.273,9.465-29,15-3.926,2.234-8.129,4.748-12,7-1.278.735-2.731,1.209-4,2-4.33,2.712-8.725,5.444-13,8-5.627,3.365-11.171,6.617-17,10-1.039.6-2.786,1.265-4,2a81.43,81.43,0,0,1-15,7c-6.564,2.317-11.092,4.795-15,2a207.169,207.169,0,0,1-14-38c.708-1.213.18-3.2,2-4,.441-.423.12-1.375,0-2,3.935-9.653,9.373-18.082,15-27,5.618-8.89,10.994-18.8,18-27a6.063,6.063,0,0,1,2-1c1.067-9.322,4.013-17.884,11-25l4-1c1.085-3.723-1.048-9.267,0-13C448.558,407.06,450.759,408.519,452.818,409.19Zm-9,17c-6.445,5.9-10.333,16.367-9,25,.625,3.991,4.683,5.559,7,6a14.623,14.623,0,0,0,10-2c3.512-2.271,6.738-7.139,9-11,2.9-4.955,5.691-14.651,0-19-4.155-3.163-10.215-2.822-17,0-.137.083-.128-.175,0,0C443.432,425.429,443.506,425.685,443.818,426.19Zm65,17h-1c-1.251,5.36-8.9,8.545-15,11-.956.487-.961-.726-2,0-4.349,1.793-6.049,4.922-9,7-12.035,8.477-26.071,16.093-40,24,.478.8,1.761.566,2,2,.148,1.168-1.5,2.027-3,2a3.267,3.267,0,0,1-1-2c-8.633,3.751-11.057,5.973-19,10,.359,1.462,1.688.437,2,2-.276.671.057,1.614-1,2-1.572.092-2.375-1.943-3-3-6.169,3.264-13.6,7.312-19,7-2.923,3.907.29,10.033,2,16,10.444-4.726,20.986-12.776,32-19a194.1,194.1,0,0,1,18-9c2.868-1.269,5.985-1.786,9-3,5.4-2.161,10.585-6.536,16-9,4.606-2.105,9.5-5.683,14-8,5.7-2.933,10.631-5.177,16-8,1.425-.754,2.932-2.737,5-1,.479.9-.487,1.117,0,2,1.021-.147,1.924.294,3,0-2.133-4.1-2.763-9.7-6-12C509.389,450.605,513.231,447.4,508.818,443.19Zm2,37c-2.767,1.526-6.417,2.584-9,4-3.108,1.7-5.828,4.5-9,6-11.649,5.5-23.381,9.548-34,15,.138.5,3.212.437,3,2a3.173,3.173,0,0,1-4,1c-.929-.938.671-.786,0-2-17.68,6.6-32.429,18.847-51,26,1.4,3.567,2.131,7.534,5,11,8.091-1.232,17.542-6.063,26-11-.358-1.462-1.623-.6-2-2,.533-.635.575-1.7,2-2,1.361.156,1.706,2.522,2,3,21.349-10.417,38.67-25.429,60-35,5.985-2.685,12.73-5.378,19-9,1-5.8-.848-13.013-3-20-1.186,1.416-.4,3.732-2,5,.506,1.03,1.531-.149,2,1C516.241,477.208,514.606,478.112,510.818,480.19Zm-32,5c1.03,1.5,3.082.113,3-1C480.623,484.641,479.618,484.583,478.818,485.19Zm-5,4c-.745-.588-1.887-.4-3,0C471.012,490.947,474.342,490.4,473.818,489.19Zm34-13c.91-.009,2.081-1.384,3-2C509.494,472.021,508.158,475.133,507.818,476.19Zm-15,8c1.7-.717,4.191-1.511,5-3C495.612,480.657,493.011,481.763,492.818,484.19Zm6-3c1.241-.625,3.246-1.181,4-2C501.3,477.2,499.784,480.216,498.818,481.19Zm-13,7c.781.184,1.421-1.522,2-2h0C486.678,486.061,485.249,487.059,485.818,488.19Zm-82,37c.984.91.035,2.181,1,3,.938-1.388,2.028-3.253,2-5A22.706,22.706,0,0,1,403.818,525.19Zm30-13c2.17-.367,4.248-.968,4-3C436.587,510.965,433.552,509.322,433.818,512.19Zm-5,4c.451.184.844.451,1,0-.3-.589-.356-1.331-1-1C429,515.769,428.386,515.51,428.818,516.19Zm-6,4c1.4-.441.549-1.2,1-2C423.3,518.972,422.221,519,422.818,520.19Zm-6,4c1.581-.377,1.147-1.98,1-3A3.262,3.262,0,0,0,416.818,524.19Z" transform="translate(-393.637 -405.559)" fill="#d6d6d6" fill-rule="evenodd"/>
        </g>
        <g id="Group_305" data-name="Group 305" transform="translate(831.164 10)">
          <path id="Path_304" data-name="Path 304" d="M426.4,403.049c.635,6.9-11.691,9.9-10,0C418.9,401.054,424.1,400.466,426.4,403.049Z" transform="translate(-343.243 -401.182)" fill="#d6d6d6" fill-rule="evenodd"/>
          <path id="Path_305" data-name="Path 305" d="M419.492,403.661c-.009,3.172-1.1,5.722-3,7C404.632,411,412.468,395.359,419.492,403.661Z" transform="translate(-387.331 -400.795)" fill="#d6d6d6" fill-rule="evenodd"/>
          <path id="Path_306" data-name="Path 306" d="M419.621,407.864c-1.287-10.068,10.91-6.792,10-1C428.977,410.918,422.38,411.357,419.621,407.864Z" transform="translate(-313.461 -396.997)" fill="#d6d6d6" fill-rule="evenodd"/>
          <path id="Path_307" data-name="Path 307" d="M433.29,401.821a13.165,13.165,0,0,1,1,7c-2.317.874-3.294,2.515-7,2C422.215,407.585,427.443,399.1,433.29,401.821Z" transform="translate(-271.129 -396.954)" fill="#d6d6d6" fill-rule="evenodd"/>
          <path id="Path_308" data-name="Path 308" d="M413.628,410.149c-1.4-7.1,5.113-8.3,8-6C425.619,407.33,418.676,414.746,413.628,410.149Z" transform="translate(-363.468 -388.282)" fill="#d6d6d6" fill-rule="evenodd"/>
          <path id="Path_309" data-name="Path 309" d="M418.266,410.532c-2.353,1.131-3.38,3.267-6,3C398.613,412.236,422.082,393.542,418.266,410.532Z" transform="translate(-408.106 -381.665)" fill="#d6d6d6" fill-rule="evenodd"/>
          <path id="Path_310" data-name="Path 310" d="M432.725,412.312c-4.689,1.48-8.651-1.348-9-6C426.979,401.954,435.979,405.242,432.725,412.312Z" transform="translate(-282.564 -374.445)" fill="#d6d6d6" fill-rule="evenodd"/>
          <path id="Path_311" data-name="Path 311" d="M429.544,407.695c.524,7.042-11.947,8.431-11,0C421.385,403.53,426.069,405.516,429.544,407.695Z" transform="translate(-321.384 -367.828)" fill="#d6d6d6" fill-rule="evenodd"/>
          <path id="Path_312" data-name="Path 312" d="M420.912,407.462c-.386,2.887.781,4.262,0,6-1.931,1.416-6.161,1.784-8,0,.082-.689-.55-.871-1-1C410.735,406.238,417.418,403.932,420.912,407.462Z" transform="translate(-377.752 -365.595)" fill="#d6d6d6" fill-rule="evenodd"/>
          <path id="Path_313" data-name="Path 313" d="M421.725,415.407c-14.535-.69.5-15.387,3-6C425.562,412.6,423.435,413.549,421.725,415.407Z" transform="translate(-346.565 -361.54)" fill="#d6d6d6" fill-rule="evenodd"/>
          <path id="Path_314" data-name="Path 314" d="M428.411,410.194a10.977,10.977,0,0,1-2,8c-3.292.322-5.3.28-6-2C420.632,411.754,424.219,407.022,428.411,410.194Z" transform="translate(-311.251 -335.328)" fill="#d6d6d6" fill-rule="evenodd"/>
          <path id="Path_315" data-name="Path 315" d="M420.174,419.046c-4.781.588-7.561-2.929-7-6C414.6,405.36,427.244,411.829,420.174,419.046Z" transform="translate(-366.014 -333.18)" fill="#d6d6d6" fill-rule="evenodd"/>
          <path id="Path_316" data-name="Path 316" d="M423.324,420.548c1.315-3.236-.887-4.619-2-7C427.282,401.669,439.652,429.043,423.324,420.548Z" transform="translate(-301.163 -322.681)" fill="#d6d6d6" fill-rule="evenodd"/>
          <path id="Path_317" data-name="Path 317" d="M420.4,421.574c-3.751.892-8.533-1.212-8-5C413.439,409.229,426.615,415.074,420.4,421.574Z" transform="translate(-370.24 -301.708)" fill="#d6d6d6" fill-rule="evenodd"/>
          <path id="Path_318" data-name="Path 318" d="M424.136,420.992c-4.634.184-7.136.575-8-2C413.35,410.543,431.785,412.561,424.136,420.992Z" transform="translate(-344.975 -298.125)" fill="#d6d6d6" fill-rule="evenodd"/>
          <path id="Path_319" data-name="Path 319" d="M426.965,413.959c1.986,2.878-.066,6.35,1,10-1.25,1.949-3.608,1.212-7,1-.506-1.48-1.853-2.161-2-4C421.53,418.348,422.589,414.75,426.965,413.959Z" transform="translate(-320.805 -296.092)" fill="#d6d6d6" fill-rule="evenodd"/>
          <path id="Path_320" data-name="Path 320" d="M429.033,417.741c1.407,3.338.032,5.7-2,8C416.562,427.322,420.5,411.848,429.033,417.741Z" transform="translate(-303.873 -272.874)" fill="#d6d6d6" fill-rule="evenodd"/>
          <path id="Path_321" data-name="Path 321" d="M420.65,418.284c1.866,3.31.758,11.609-6,10C409.52,423.963,416.577,417.016,420.65,418.284Z" transform="translate(-366.49 -265.417)" fill="#d6d6d6" fill-rule="evenodd"/>
          <path id="Path_322" data-name="Path 322" d="M427.045,426.414c-4.018,1.683-10.308-.417-12-3C416.287,415.342,428.5,420.613,427.045,426.414Z" transform="translate(-347.885 -250.547)" fill="#d6d6d6" fill-rule="evenodd"/>
          <path id="Path_323" data-name="Path 323" d="M428.358,428.668c-1.793.791-4.408.018-7,0C415.8,418.988,432.542,417.332,428.358,428.668Z" transform="translate(-311.198 -241.802)" fill="#d6d6d6" fill-rule="evenodd"/>
          <path id="Path_324" data-name="Path 324" d="M425.959,423.346c-.331,2.464-1.888,4.336-3,6C408.819,430.651,420.535,413.647,425.959,423.346Z" transform="translate(-343.799 -241.479)" fill="#d6d6d6" fill-rule="evenodd"/>
          <path id="Path_325" data-name="Path 325" d="M421.254,424.506c2.574,6.178-4.109,9.73-9,7C408.88,426.256,414.947,421.885,421.254,424.506Z" transform="translate(-380.094 -217.639)" fill="#d6d6d6" fill-rule="evenodd"/>
          <path id="Path_326" data-name="Path 326" d="M420.249,425.391c4.781-1.922,6.632-.227,7,3C428.306,438.1,410.5,429.308,420.249,425.391Z" transform="translate(-335.088 -206.524)" fill="#d6d6d6" fill-rule="evenodd"/>
        </g>
      </g>
    </g>
  </g>
</svg>
