<svg xmlns="http://www.w3.org/2000/svg" xmlns:xlink="http://www.w3.org/1999/xlink" width="1920" height="297" viewBox="0 0 1920 297">
  <defs>
    <clipPath id="clip-path">
      <rect id="Rectangle_676" data-name="Rectangle 676" width="1920" height="297" fill="#8b2b2b"/>
    </clipPath>
  </defs>
  <g id="background_potwierdzenie" clip-path="url(#clip-path)">
    <g id="background_vector" transform="translate(-498.325 -604.867)">
      <g id="Group_306" data-name="Group 306" transform="translate(961 561)">
        <g id="Group_298" data-name="Group 298" transform="translate(879.324 24.628)">
          <path id="Path_145" data-name="Path 145" d="M328.321,408.845c6.436,2.556,3.2,15.556-4.863,9.552C322.8,415.281,324.974,409.728,328.321,408.845Z" transform="translate(-301.483 -340.903)" fill="#86bc25" fill-rule="evenodd"/>
          <path id="Path_146" data-name="Path 146" d="M325.635,413.872c2.822,1.452,4.22,3.346,4.487,5.627C325.056,430.218,315.053,416.373,325.635,413.872Z" transform="translate(-320.964 -299.712)" fill="#86bc25" fill-rule="evenodd"/>
          <path id="Path_147" data-name="Path 147" d="M329.894,415.857c-9.552-3.411-1.48-12.476,3.273-9.037C336.477,409.237,334.261,414.983,329.894,415.857Z" transform="translate(-284.292 -363.774)" fill="#86bc25" fill-rule="evenodd"/>
          <path id="Path_148" data-name="Path 148" d="M330.037,401.455c2.105.083,4.064-.239,6.647,1.361-.276,2.464.23,4.652-1.912,7.723C329.587,413.591,324.962,405.436,330.037,401.455Z" transform="translate(-264.613 -401.455)" fill="#86bc25" fill-rule="evenodd"/>
          <path id="Path_149" data-name="Path 149" d="M328.711,422.149c-6.969-1.977-5.709-8.339-2.344-9.874C331.009,410.16,335.092,419.731,328.711,422.149Z" transform="translate(-298.931 -315.28)" fill="#86bc25" fill-rule="evenodd"/>
          <path id="Path_150" data-name="Path 150" d="M330.1,419.694c-.065,2.611,1.094,3.641-.322,5.857C322.43,437.134,316.674,408.588,330.1,419.694Z" transform="translate(-312.316 -273.466)" fill="#86bc25" fill-rule="evenodd"/>
          <path id="Path_151" data-name="Path 151" d="M339.205,406.215c-.8,4.845-4.79,7.86-9.1,6.059C327.695,407.4,334.378,400.1,339.205,406.215Z" transform="translate(-250.236 -381.548)" fill="#86bc25" fill-rule="evenodd"/>
          <path id="Path_152" data-name="Path 152" d="M333.8,408.357c6.509,2.73,2.225,14.232-4.864,9.552C326.522,413.5,330.282,410.472,333.8,408.357Z" transform="translate(-261.897 -344.902)" fill="#86bc25" fill-rule="evenodd"/>
          <path id="Path_153" data-name="Path 153" d="M329.279,414.741c2.409,1.655,4.128,1.223,5.323,2.712.4,2.353-1.361,6.6-3.788,7.428-.57-.386-1-.349-1.333,0C323.413,423.108,324.553,416.258,329.279,414.741Z" transform="translate(-285.231 -292.592)" fill="#86bc25" fill-rule="evenodd"/>
          <path id="Path_154" data-name="Path 154" d="M336.323,417.125c-7.208,12.642-13.45-7.391-3.953-5.369C335.6,412.455,335.441,414.763,336.323,417.125Z" transform="translate(-267.056 -318.236)" fill="#86bc25" fill-rule="evenodd"/>
          <path id="Path_155" data-name="Path 155" d="M335.257,409.167A10.384,10.384,0,0,1,341.1,414.8c-1.214,3.08-2.758,5.167-5.1,4.763C332.131,417.35,330.531,411.466,335.257,409.167Z" transform="translate(-227.698 -338.264)" fill="#86bc25" fill-rule="evenodd"/>
          <path id="Path_156" data-name="Path 156" d="M339.829,419.7c-1.646,4.533-6.077,5.571-8.559,3.677C325.054,418.622,336.6,410.136,339.829,419.7Z" transform="translate(-251.337 -287.638)" fill="#86bc25" fill-rule="evenodd"/>
          <path id="Path_157" data-name="Path 157" d="M342.728,417.839c-2.289-2.648-4.569-1.563-7.189-1.655C327.65,405.492,357.705,407.137,342.728,417.839Z" transform="translate(-212.552 -340.115)" fill="#86bc25" fill-rule="evenodd"/>
          <path id="Path_158" data-name="Path 158" d="M342.451,421.292c-.91,3.751-4.891,6.123-8.026,3.926C328.347,420.961,339.472,412.806,342.451,421.292Z" transform="translate(-225.32 -269.3)" fill="#86bc25" fill-rule="evenodd"/>
          <path id="Path_159" data-name="Path 159" d="M343.522,418.664c-1.94,4.2-2.961,6.234-5.636,5.829C329.088,423.15,339.467,408.017,343.522,418.664Z" transform="translate(-210.496 -291.357)" fill="#86bc25" fill-rule="evenodd"/>
          <path id="Path_160" data-name="Path 160" d="M336.559,412.422c3.466-.46,5.314,2.556,9.046,3.263,1.177,1.986-.193,4.781-1.921,7.714-1.545-.221-2.813.4-4.524-.294C338,419.63,335.29,416.679,336.559,412.422Z" transform="translate(-195.892 -311.98)" fill="#86bc25" fill-rule="evenodd"/>
          <path id="Path_161" data-name="Path 161" d="M342.807,411.94c3.6.266,5.222,1.728,6.353,4.588C345.823,426.577,333.678,416.877,342.807,411.94Z" transform="translate(-169.319 -315.543)" fill="#86bc25" fill-rule="evenodd"/>
          <path id="Path_162" data-name="Path 162" d="M338.074,419.115c3.8-.166,10.83,4.6,6.334,9.893C338.221,431.628,335.1,422.167,338.074,419.115Z" transform="translate(-190.099 -256.789)" fill="#86bc25" fill-rule="evenodd"/>
          <path id="Path_163" data-name="Path 163" d="M349.043,418.811c-.331,4.349-4.192,8.67-7.263,9.01C335.142,423.049,344.519,414.885,349.043,418.811Z" transform="translate(-169.266 -267.729)" fill="#86bc25" fill-rule="evenodd"/>
          <path id="Path_164" data-name="Path 164" d="M351.407,417.1c-.11,1.949-1.526,4.339-2.712,6.647C337.533,424.313,343.206,408.233,351.407,417.1Z" transform="translate(-144.784 -295.149)" fill="#86bc25" fill-rule="evenodd"/>
          <path id="Path_165" data-name="Path 165" d="M345.941,417.923c2.05,1.406,2.455,3.337,3.438,5.084C344.139,436.2,334.844,418.365,345.941,417.923Z" transform="translate(-158.983 -266.519)" fill="#86bc25" fill-rule="evenodd"/>
          <path id="Path_166" data-name="Path 166" d="M344.536,423.057c6.674.506,6.987,8.081,2.335,11.2C340.665,434.89,339.341,427.489,344.536,423.057Z" transform="translate(-154.177 -224.452)" fill="#86bc25" fill-rule="evenodd"/>
          <path id="Path_167" data-name="Path 167" d="M345.063,424.319c.45-5.13,2.859-6.178,5.9-5.038C360.085,422.737,344.134,434.781,345.063,424.319Z" transform="translate(-123.822 -258.811)" fill="#86bc25" fill-rule="evenodd"/>
        </g>
        <g id="Group_299" data-name="Group 299" transform="translate(489.472 307.651) rotate(-16)">
          <path id="Path_168" data-name="Path 168" d="M435.161,463.166c-6.436-2.556-3.208-15.547,4.854-9.552C440.668,456.74,438.507,462.293,435.161,463.166Z" transform="translate(-232.024 -321.277)" fill="#d6d6d6" fill-rule="evenodd"/>
          <path id="Path_169" data-name="Path 169" d="M438.522,456.82c-2.822-1.443-4.22-3.338-4.487-5.617C439.1,440.482,449.113,454.328,438.522,456.82Z" transform="translate(-213.228 -361.148)" fill="#d6d6d6" fill-rule="evenodd"/>
          <path id="Path_170" data-name="Path 170" d="M434.406,454.984c9.561,3.42,1.489,12.476-3.264,9.038C427.823,461.613,430.038,455.867,434.406,454.984Z" transform="translate(-250.042 -297.235)" fill="#d6d6d6" fill-rule="evenodd"/>
          <path id="Path_171" data-name="Path 171" d="M433.831,469.342c-2.1-.083-4.064.23-6.638-1.37.276-2.455-.23-4.652,1.9-7.714C434.282,457.206,438.906,465.361,433.831,469.342Z" transform="translate(-269.29 -259.501)" fill="#d6d6d6" fill-rule="evenodd"/>
          <path id="Path_172" data-name="Path 172" d="M434.725,449.026c6.959,1.968,5.7,8.339,2.344,9.875C432.417,461.014,428.344,451.435,434.725,449.026Z" transform="translate(-234.53 -346.054)" fill="#d6d6d6" fill-rule="evenodd"/>
          <path id="Path_173" data-name="Path 173" d="M433.45,452.475c.055-2.6-1.1-3.631.312-5.856C441.108,435.044,446.863,463.591,433.45,452.475Z" transform="translate(-221.257 -388.871)" fill="#d6d6d6" fill-rule="evenodd"/>
          <path id="Path_174" data-name="Path 174" d="M425.354,463.84c.809-4.855,4.8-7.87,9.1-6.059C436.865,462.645,430.19,469.954,425.354,463.84Z" transform="translate(-284.358 -278.666)" fill="#d6d6d6" fill-rule="evenodd"/>
          <path id="Path_175" data-name="Path 175" d="M430.079,463.246c-6.518-2.721-2.234-14.232,4.854-9.552C437.36,458.116,433.591,461.141,430.079,463.246Z" transform="translate(-272.01 -316.87)" fill="#d6d6d6" fill-rule="evenodd"/>
          <path id="Path_176" data-name="Path 176" d="M435.026,456.393c-2.4-1.646-4.119-1.214-5.314-2.7-.4-2.354,1.352-6.61,3.779-7.429.57.377,1,.34,1.333,0C440.9,448.035,439.751,454.885,435.026,456.393Z" transform="translate(-249.109 -368.71)" fill="#d6d6d6" fill-rule="evenodd"/>
          <path id="Path_177" data-name="Path 177" d="M427.5,453.648c7.217-12.641,13.459,7.392,3.963,5.36C428.232,458.319,428.389,456.011,427.5,453.648Z" transform="translate(-266.799 -342.696)" fill="#d6d6d6" fill-rule="evenodd"/>
          <path id="Path_178" data-name="Path 178" d="M428.527,462.243a10.335,10.335,0,0,1-5.829-5.636c1.214-3.08,2.749-5.167,5.094-4.753C431.653,454.07,433.253,459.953,428.527,462.243Z" transform="translate(-306.121 -323.314)" fill="#d6d6d6" fill-rule="evenodd"/>
          <path id="Path_179" data-name="Path 179" d="M425.407,450.356c1.636-4.523,6.068-5.563,8.55-3.668C440.173,451.441,428.634,459.927,425.407,450.356Z" transform="translate(-283.924 -372.584)" fill="#d6d6d6" fill-rule="evenodd"/>
          <path id="Path_180" data-name="Path 180" d="M424.66,452.2c2.28,2.639,4.56,1.554,7.181,1.646C439.729,464.534,409.684,462.9,424.66,452.2Z" transform="translate(-324.862 -320.079)" fill="#d6d6d6" fill-rule="evenodd"/>
          <path id="Path_181" data-name="Path 181" d="M422.292,448.372c.9-3.751,4.891-6.123,8.017-3.935C436.386,448.7,425.271,456.858,422.292,448.372Z" transform="translate(-309.447 -390.523)" fill="#d6d6d6" fill-rule="evenodd"/>
          <path id="Path_182" data-name="Path 182" d="M420.563,452.049c1.931-4.211,2.951-6.233,5.627-5.838C434.988,447.553,424.609,462.7,420.563,452.049Z" transform="translate(-323.615 -369.515)" fill="#d6d6d6" fill-rule="evenodd"/>
          <path id="Path_183" data-name="Path 183" d="M428.182,459.555c-3.466.459-5.3-2.556-9.047-3.264-1.168-1.995.193-4.79,1.922-7.713,1.554.221,2.823-.414,4.523.294C426.739,452.347,429.46,455.3,428.182,459.555Z" transform="translate(-338.883 -350.156)" fill="#d6d6d6" fill-rule="evenodd"/>
          <path id="Path_184" data-name="Path 184" d="M421.823,458.152c-3.6-.257-5.213-1.719-6.353-4.579C418.817,443.524,430.953,453.224,421.823,458.152Z" transform="translate(-365.346 -344.717)" fill="#d6d6d6" fill-rule="evenodd"/>
          <path id="Path_185" data-name="Path 185" d="M425.868,452.215c-3.788.157-10.821-4.606-6.326-9.892C425.721,439.7,428.856,449.154,425.868,452.215Z" transform="translate(-343.878 -404.7)" fill="#d6d6d6" fill-rule="evenodd"/>
          <path id="Path_186" data-name="Path 186" d="M415.478,452.238c.322-4.34,4.184-8.67,7.254-9C429.37,448,419.992,456.173,415.478,452.238Z" transform="translate(-365.28 -393.487)" fill="#d6d6d6" fill-rule="evenodd"/>
          <path id="Path_187" data-name="Path 187" d="M412.557,453.313c.11-1.949,1.535-4.33,2.721-6.638C426.43,446.114,420.767,462.194,412.557,453.313Z" transform="translate(-389.214 -365.436)" fill="#d6d6d6" fill-rule="evenodd"/>
          <path id="Path_188" data-name="Path 188" d="M417.753,453.03c-2.041-1.407-2.455-3.328-3.429-5.075C419.554,434.762,428.859,452.6,417.753,453.03Z" transform="translate(-374.744 -394.601)" fill="#d6d6d6" fill-rule="evenodd"/>
          <path id="Path_189" data-name="Path 189" d="M419.2,449.062c-6.674-.505-6.978-8.081-2.335-11.2C423.08,437.23,424.4,444.631,419.2,449.062Z" transform="translate(-379.594 -437.826)" fill="#d6d6d6" fill-rule="evenodd"/>
          <path id="Path_190" data-name="Path 190" d="M418.743,446.376c-.451,5.13-2.85,6.178-5.894,5.038C403.72,447.957,419.671,435.913,418.743,446.376Z" transform="translate(-410.018 -402.041)" fill="#d6d6d6" fill-rule="evenodd"/>
        </g>
        <g id="Group_305" data-name="Group 305" transform="translate(-86.584 107.399) rotate(-51)">
          <path id="Path_304" data-name="Path 304" d="M426.893,402.906c.635,6.9-12.412,9.9-10.72,0C418.665,400.911,424.586,400.323,426.893,402.906Z" transform="translate(-343.243 -401.182)" fill="#d6d6d6" fill-rule="evenodd"/>
          <path id="Path_305" data-name="Path 305" d="M419.735,403.714c-.009,3.172-1.067,5.277-2.97,6.555C404.906,410.609,412.711,395.412,419.735,403.714Z" transform="translate(-387.331 -400.795)" fill="#d6d6d6" fill-rule="evenodd"/>
          <path id="Path_306" data-name="Path 306" d="M419.755,408.255c-1.287-10.068,10.444-6.978,9.534-1.186C428.645,411.123,422.513,411.748,419.755,408.255Z" transform="translate(-313.461 -396.997)" fill="#d6d6d6" fill-rule="evenodd"/>
          <path id="Path_307" data-name="Path 307" d="M432.834,402.264c.874,1.912,2.05,3.512,1.793,6.537-2.317.874-4.036,2.317-7.741,1.8C421.811,407.366,426.987,399.542,432.834,402.264Z" transform="translate(-271.129 -396.954)" fill="#d6d6d6" fill-rule="evenodd"/>
          <path id="Path_308" data-name="Path 308" d="M413.754,410.27c-1.4-7.1,4.854-8.863,7.741-6.565C425.486,406.886,418.8,414.866,413.754,410.27Z" transform="translate(-363.468 -388.282)" fill="#d6d6d6" fill-rule="evenodd"/>
          <path id="Path_309" data-name="Path 309" d="M417.874,410.8c-2.353,1.131-2.749,2.639-5.369,2.372C398.852,411.881,421.689,393.815,417.874,410.8Z" transform="translate(-408.106 -381.665)" fill="#d6d6d6" fill-rule="evenodd"/>
          <path id="Path_310" data-name="Path 310" d="M432.961,411.924c-4.689,1.48-9.185-.708-9.534-5.36C426.682,402.206,436.216,404.854,432.961,411.924Z" transform="translate(-282.564 -374.445)" fill="#d6d6d6" fill-rule="evenodd"/>
          <path id="Path_311" data-name="Path 311" d="M429.462,407.688c.524,7.042-11.667,8.431-10.72,0C421.583,403.523,425.987,405.509,429.462,407.688Z" transform="translate(-321.384 -367.828)" fill="#d6d6d6" fill-rule="evenodd"/>
          <path id="Path_312" data-name="Path 312" d="M420.894,407.239c-.386,2.887.781,4.229,0,5.967-1.931,1.416-6.509,1.784-8.348,0,.082-.689-.147-1.057-.6-1.186C410.771,405.8,417.4,403.708,420.894,407.239Z" transform="translate(-377.752 -365.595)" fill="#d6d6d6" fill-rule="evenodd"/>
          <path id="Path_313" data-name="Path 313" d="M421.867,415.108c-14.535-.69.5-15.345,3-5.958C425.7,412.341,423.577,413.251,421.867,415.108Z" transform="translate(-346.565 -361.54)" fill="#d6d6d6" fill-rule="evenodd"/>
          <path id="Path_314" data-name="Path 314" d="M428.863,410.345a10.354,10.354,0,0,1-2.381,7.75c-3.292.322-5.856-.11-6.555-2.39C420.147,411.264,424.67,407.173,428.863,410.345Z" transform="translate(-311.251 -335.328)" fill="#d6d6d6" fill-rule="evenodd"/>
          <path id="Path_315" data-name="Path 315" d="M420.464,418.926c-4.781.588-7.714-2.9-7.153-5.967C414.736,405.273,427.534,411.709,420.464,418.926Z" transform="translate(-366.014 -333.18)" fill="#d6d6d6" fill-rule="evenodd"/>
          <path id="Path_316" data-name="Path 316" d="M422.949,420.94c1.315-3.236-.68-4.772-1.793-7.153C427.115,401.909,439.278,429.436,422.949,420.94Z" transform="translate(-301.163 -322.681)" fill="#d6d6d6" fill-rule="evenodd"/>
          <path id="Path_317" data-name="Path 317" d="M419.91,422.013c-3.751.892-7.668-1.581-7.135-5.369C413.814,409.3,426.125,415.513,419.91,422.013Z" transform="translate(-370.24 -301.708)" fill="#d6d6d6" fill-rule="evenodd"/>
          <path id="Path_318" data-name="Path 318" d="M423.863,421.4c-4.634.184-6.9.2-7.759-2.372C413.317,410.579,431.512,412.97,423.863,421.4Z" transform="translate(-344.975 -298.125)" fill="#d6d6d6" fill-rule="evenodd"/>
          <path id="Path_319" data-name="Path 319" d="M427.1,414.008c1.986,2.878.129,5.893,1.2,9.543-1.25,1.949-4.358,1.995-7.75,1.783-.506-1.48-1.637-2.326-1.784-4.165C421.325,418.559,422.723,414.8,427.1,414.008Z" transform="translate(-320.805 -296.092)" fill="#d6d6d6" fill-rule="evenodd"/>
          <path id="Path_320" data-name="Path 320" d="M428.647,418.205c1.407,3.338.828,5.443-1.2,7.741C416.971,427.528,420.115,412.312,428.647,418.205Z" transform="translate(-303.873 -272.874)" fill="#d6d6d6" fill-rule="evenodd"/>
          <path id="Path_321" data-name="Path 321" d="M420.941,417.9c1.866,3.31.809,11.741-5.948,10.132C409.862,423.712,416.868,416.633,420.941,417.9Z" transform="translate(-366.49 -265.417)" fill="#d6d6d6" fill-rule="evenodd"/>
          <path id="Path_322" data-name="Path 322" d="M426.773,426.273c-4.018,1.683-9.626.2-11.318-2.381C416.7,415.82,428.225,420.472,426.773,426.273Z" transform="translate(-347.885 -250.547)" fill="#d6d6d6" fill-rule="evenodd"/>
          <path id="Path_323" data-name="Path 323" d="M428.221,428.257c-1.793.791-4.56.607-7.153.588C415.506,419.164,432.4,416.921,428.221,428.257Z" transform="translate(-311.198 -241.802)" fill="#d6d6d6" fill-rule="evenodd"/>
          <path id="Path_324" data-name="Path 324" d="M425.656,423.761c-.331,2.464-1.857,3.705-2.97,5.369C408.546,430.435,420.231,414.061,425.656,423.761Z" transform="translate(-343.799 -241.479)" fill="#d6d6d6" fill-rule="evenodd"/>
          <path id="Path_325" data-name="Path 325" d="M421.425,424.348c2.574,6.178-4.037,9.893-8.928,7.162C409.123,426.261,415.117,421.728,421.425,424.348Z" transform="translate(-380.094 -217.639)" fill="#d6d6d6" fill-rule="evenodd"/>
          <path id="Path_326" data-name="Path 326" d="M419.924,425.756c4.781-1.922,6.794-.257,7.162,2.97C428.143,438.434,410.179,429.672,419.924,425.756Z" transform="translate(-335.088 -206.524)" fill="#d6d6d6" fill-rule="evenodd"/>
        </g>
        <g id="Group_324" data-name="Group 324" transform="matrix(0.946, 0.326, -0.326, 0.946, 720.06, -375.48)">
          <path id="Path_328" data-name="Path 328" d="M323.907,544.853c-1.254,1.638-4.09,1.7-5.213,3.474-.781.131-1.051-.253-1.52-.43v-1.519C318.581,545.368,322.4,542.945,323.907,544.853Z" transform="translate(8.36 56.82)" fill="#d6d6d6" fill-rule="evenodd"/>
          <path id="Path_329" data-name="Path 329" d="M322.2,545.728c-.658,1.511-2.49,1.849-4.339,2.173a5.315,5.315,0,0,1-.426-1.743C318.818,545.471,320.988,544.525,322.2,545.728Z" transform="translate(9.194 60.072)" fill="#d6d6d6" fill-rule="evenodd"/>
          <path id="Path_330" data-name="Path 330" d="M324.8,547.341a42.527,42.527,0,0,1-7.163,4.558c-.372-.211-.439-.717-.87-.865.532-1.98,1.984-2.245,4.339-3.254C322.386,547.223,323.538,545.86,324.8,547.341Z" transform="translate(7.036 64.972)" fill="#d6d6d6" fill-rule="evenodd"/>
          <path id="Path_331" data-name="Path 331" d="M331.717,551.7a9.515,9.515,0,0,1-5.428-1.3,5.486,5.486,0,0,1,.224-2.174c1.92-.709,2.537,1.376,3.685,1.95C331.071,550.617,331.97,550.089,331.717,551.7Z" transform="translate(37.672 69.513)" fill="#d6d6d6" fill-rule="evenodd"/>
          <path id="Path_332" data-name="Path 332" d="M323.033,548.684A9.312,9.312,0,0,1,316.3,552.6c-.815-1.646.35-1.655,1.3-2.178C318.854,549.731,321.8,547.506,323.033,548.684Z" transform="translate(4.672 70.361)" fill="#d6d6d6" fill-rule="evenodd"/>
          <path id="Path_333" data-name="Path 333" d="M335.906,549.806c-.367,1.435,1.482,2.284.43,3.913-2.22-.173-2.169-2.6-3.474-3.689A1.635,1.635,0,0,1,335.906,549.806Z" transform="translate(58.888 72.058)" fill="#d6d6d6" fill-rule="evenodd"/>
          <path id="Path_334" data-name="Path 334" d="M334.255,550.877c.021,1.722,1.1,2.376,1.089,4.124-2.647.35-3.288-2.275-3.25-3.9C332.854,550.615,333.246,550.771,334.255,550.877Z" transform="translate(56.407 78.155)" fill="#d6d6d6" fill-rule="evenodd"/>
          <path id="Path_335" data-name="Path 335" d="M330.118,553.535c-1.161,1.118-2.342-.6-4.119-.215C322.461,549.938,330.38,550.141,330.118,553.535Z" transform="translate(33.843 78.536)" fill="#d6d6d6" fill-rule="evenodd"/>
          <path id="Path_336" data-name="Path 336" d="M324.137,552.088c.262,2.051-3.377,4.01-5.648,2.824-.165-.823.266-1.039.22-1.743C320.782,553.489,322.369,551.919,324.137,552.088Z" transform="translate(12.473 82.372)" fill="#d6d6d6" fill-rule="evenodd"/>
          <path id="Path_337" data-name="Path 337" d="M336.169,557.512c-.051.895-.907.984-1.747,1.085-.861-1.95-2.224-2.511-2.381-5.424C334.772,551.109,334.848,556.124,336.169,557.512Z" transform="translate(56.241 84.325)" fill="#d6d6d6" fill-rule="evenodd"/>
          <path id="Path_338" data-name="Path 338" d="M332.692,559.34c-.388-.029-.456.266-.865.215-1.359-1.4-1.583-3.921-2.82-5.428C331.328,551.079,333.114,556.208,332.692,559.34Z" transform="translate(46.469 85.976)" fill="#d6d6d6" fill-rule="evenodd"/>
          <path id="Path_339" data-name="Path 339" d="M329.842,555.589c-1.2,1.258-4.824.312-6.074-.439.025-.62-.122-1.422.215-1.735C326.208,553.867,328.968,553.791,329.842,555.589Z" transform="translate(29.561 86.688)" fill="#d6d6d6" fill-rule="evenodd"/>
          <path id="Path_340" data-name="Path 340" d="M334.832,557.949c-1.726,1.566-4.259-.684-4.124-1.954C330.991,553.235,334.7,556.033,334.832,557.949Z" transform="translate(51.93 91.27)" fill="#d6d6d6" fill-rule="evenodd"/>
          <path id="Path_341" data-name="Path 341" d="M323.311,556.269c-.823,2.043-2.554,3.947-5.209,3.469C318.157,557.016,320.989,556.037,323.311,556.269Z" transform="translate(11.346 95.774)" fill="#d6d6d6" fill-rule="evenodd"/>
          <path id="Path_342" data-name="Path 342" d="M329.123,556.457c.076,1.258,2.444,3.63,0,4.124-1.232-.73-1.76-2.153-2.174-3.693C327.4,556.068,328.093,556.33,329.123,556.457Z" transform="translate(39.84 96.026)" fill="#d6d6d6" fill-rule="evenodd"/>
          <path id="Path_343" data-name="Path 343" d="M329.359,558.166c-1.017,1.781-5.55.612-5.652-1.3C325.957,556.73,328.371,556.633,329.359,558.166Z" transform="translate(29.398 97.571)" fill="#d6d6d6" fill-rule="evenodd"/>
          <path id="Path_344" data-name="Path 344" d="M321.745,558.147a2.136,2.136,0,0,0,.654,1.3c-.8.692-1.781,2.216-3.474,1.3A2.7,2.7,0,0,1,321.745,558.147Z" transform="translate(13.996 101.929)" fill="#d6d6d6" fill-rule="evenodd"/>
          <path id="Path_345" data-name="Path 345" d="M320.969,562.492c.013,1.144.815,1.494.865,2.6a1.114,1.114,0,0,0-.654.654,3.664,3.664,0,0,1-2.82-1.524C318.314,562.454,319.457,562.213,320.969,562.492Z" transform="translate(12.172 115.607)" fill="#d6d6d6" fill-rule="evenodd"/>
          <path id="Path_346" data-name="Path 346" d="M411.513,600.592c3.157-3.288,6.023-8.75,9.991-11.941a6.816,6.816,0,0,1,1.95,1.081c.038,8.864-4.959,12.692-7.6,18.892,2.212-.4,3.82-4.862,7.386-3.258,1.11,2.022-.4,3.845-.224,5.428-3.043,3.322-4.744,7.986-8.458,10.632-3.119,4.926-7.07,9.007-11.075,13.034-.7,2.562-1.718,4.8-3.693,6.082-2.845,6.061-8.809,9.822-13.68,14.106-1.883,1.663-3.828,3.322-5.854,4.778-7.032,5.031-14.57,11.008-23.231,14.765-1.5,3.3-2.967,7.04-4.563,10.636-.388.869-.684,2.039-1.089,2.828-.24.473-.895.6-1.085,1.085-.363.912-.135,2.009-.435,2.82-.81,2.2-2.874,5.1-4.128,7.813-.9,1.971-1.224,4.837-3.9,4.348-1.043-.194-1.718-1.469-2.6-1.739.287-1.739-.346-2.549-1.309-3.039A64.668,64.668,0,0,0,339,688.3c-3.107-.11-6.293,2.807-8.9,4.554-3.216,2.165-5.715,3.795-8.471,5.428-2.9.1-6.15,2.051-6.952-1.735,1.165-1.152,1.271-3.372,2.613-4.343-3.537-2.136,2.389-5.863,2.6-8.682.658.009.84-.46,1.3-.65,2.495-4.529,6.441-7.6,9.771-11.295-1.055-3.482-2.047-6.365-3.039-10.2-.561-2.178-1.832-4.111-2.608-6.293-.806-2.317-1.258-4.951-1.946-7.382-.519-1.815-1.532-3.486-1.958-5.217-3.892-15.781-7.264-31.377-4.778-48.189,1.258-1.574,2.072-3.584,3.908-4.567a3.737,3.737,0,0,0-1.3-2.6c-1.908-11.135-5.8-26.342-4.343-39.515.1-.924.886-2.609,1.085-3.693.587-3.267,1.655-7.914,2.385-11.941.5-2.722,1.212-5.668,3.909-3.258a179.856,179.856,0,0,0-.865,41.685c1.2-1.473.388-4.339.65-6.939.2-1.958.388-4.069.65-6.086.861-6.5,3.453-12.739,4.128-18.015,1.638-3.87,3.4-7.754,4.993-12.156.958-.274,1.574-.886,3.043-.659,1.258,3.617.874,7.758.211,11.941-.945,6-2.98,12.114-3.478,18.462,3.508-7.062,6.948-14.195,10.645-21.066a6.375,6.375,0,0,1,.211-2.389c3.7-2.136,4.352.447,3.258,4.563a59.992,59.992,0,0,1-1.735,5.859c-.173.447-.743.671-.865,1.093-1.034,3.47-.971,6.4-2.6,8.682-2.731,10.885-7.543,22.7-10.86,33,3.052,1.034,4.993,3.761,6.736,6.948.325.6,1.064,1.072,1.3,1.524,1.469,2.807,1.68,6.424,2.165,9.552a86.7,86.7,0,0,1,1.3,11.071c.376,12.658,1.022,28.571,1.735,44.289,1.984-.409,1.667-4.985,2.169-7.593.519-.359.46-1.275.87-1.739,3.524-16.833,7.623-33.2,14.325-47.332-.059-.806-.95-.781-.646-1.95,3.381-2.705,3.989-8.176,8.686-9.56.4-8.864,2.549-16.921,4.339-26.486,1.072-5.728,2.389-11.844,4.347-16.5,1.866-4.436,3.71-8.745,6.293-12.16.447-2.013,1.363-4.706,3.9-3.908,2.034,7.661-1.958,17.394-2.819,23.666,2.883-5.078,5.462-10.464,8.686-15.2.751.182,2.034,0,2.82.65.523,1.646-.025,4.643-.654,7.163-1.232,5.04-3.6,10.421-4.774,14.769,1.435-.916,2.245-2.414,3.478-3.913,1.359-1.659,4.955-6.255,6.078-1.95.869,3.351-3.115,10.763-4.343,12.591-3.757,9.345-8.94,17.259-13.9,25.405.051,1.038,1.034,1.135,1.313,1.946,1.469,10.143-2.385,19.829-5.217,28.233,5.344-3.423,10.755-9.788,18.892-10.426a239.879,239.879,0,0,0,10.2-24.316c.544-1.439.865-2.988,1.3-4.559.553-1.984,1.5-2.967,1.739-5.428,2.917-3.309,2.891-9.556,8.463-10.206,1.739,1.211,1.224,2.169,1.089,4.343a18.19,18.19,0,0,1-.43,4.343c-.692,2.592-2.389,6.352-3.478,9.332-.456,1.249-.422,2.583-.87,3.693C414.007,594.9,412.214,598.528,411.513,600.592Zm-82.939-59.273c-.122.7.152,1,.215,1.515-3.942,9.315-4.693,23.932-4.343,34.522,2.583-10.573,4.613-22.311,6.948-33.437a43.569,43.569,0,0,0,1.089-12.587C331,534.472,329.874,537.988,328.574,541.319Zm50.371,7.163c-1.8,7.327-4.255,15.068-5.213,23.012-.684,5.7-2.313,11.489-2.17,17.588a207.882,207.882,0,0,0,13.46-51.237c-.009-.139-.025-.257-.211-.22C382.486,540.871,381.1,545.058,378.945,548.481Zm-61,13.249c-.456-5.5.042-13.794,0-19.547C316.709,548.519,316.435,555.543,317.942,561.73Zm11.067,18.234c5.133-12,8.5-24.4,12.38-37.557-.046-.173-.182-.262-.435-.224C335.4,553.209,329.832,566.141,329.009,579.964Zm57.1-21.062c-2.334,4.926-3.731,10.282-6.078,15.195-1.6,6.513-5.074,12.278-5.863,18.892,1.912-1.384,2.63-3.98,3.478-6.078,2.7-6.732,6.226-13.317,9.117-19.762,1.532-6.863,4.921-13.025,5.432-20.188C389.742,550.655,388.109,554.7,386.108,558.9Zm-8.247,35.607c1.178-.236,1.444.439,2.393.435,6.175-10.539,13.08-21.5,16.714-33.872-.051-.165-.181-.249-.439-.211C388.294,570.058,382.474,581.682,377.86,594.509Zm-59.712-28.875c-.131-1.169.359-2.963-.426-3.478A4.381,4.381,0,0,0,318.149,565.635Zm90.321,36.692c2.283-9.375,7.986-17.394,8.247-27.359-.038-.169-.177-.253-.426-.215a41.1,41.1,0,0,0-7.821,18.453c-3.182,8.256-5.356,16.254-9.332,24.316.574.3.823.916,1.52,1.085C404.051,613.967,405.4,607.286,408.47,602.326Zm-79.461-11.295c-6.77-.65-9.936,4.723-9.767,11.076,1.055.426,2.473-1.672,4.128-.646-.831,2.87-5.673,2.862-4.128,7.378,1.444-.62,3.837-3.136,5.428-1.52-1.659,1.452-2.68,3.545-5.428,3.908.009,6.027,1.363,12.7,2.385,18.023,1.722-.122,3.132-1.6,4.343-1.528.544,2.174-2.022,3.022-3.693,3.693,1.249,5.559,2.123,10.5,4.128,14.984.916-1.6,4.643-4.478,6.517-2.82-1.887,1.5-3.427,4.318-6.293,4.124,1.773,7.479,4.757,13.76,6.724,21.058,1.861-.215,3.233-1.68,4.778-.65-.536,1.849-2.845,1.933-3.693,3.469,1.4,3.744,2.891,7.386,5.428,9.991,1.752-5.93-.186-11.476-.431-16.719-.105-2.1.405-4.411.215-7.167-.62-8.94-.642-18.192-1.089-28.216-1.5.726-2.8,1.676-4.769,1.946-.228-.5-.751-.7-.65-1.519,1.089-1.22,2.993-1.634,5.2-1.735.135-.713-.1-2.748,0-4.128-1.473.27-2.267,1.211-3.689,1.524-.452-.426-1.055-.675-1.089-1.524.988-1.321,2.87-1.764,4.563-2.385-.608-5.567-.283-15.782-2.389-22.147-.641-1.933-2.414-5.386-3.685-5.643-1.536-.317-4.255,2.148-4.132-.87.051-1.16,1.139-1.27,2.608-1.089C330.748,591.627,329.511,590.056,329.009,591.031Zm87.282,7.163c-3.52,6.909-8.383,12.468-11.295,19.985a4.236,4.236,0,0,0-1.081.865c-.266,2.271-1.089,3.415-1.524,4.778,7.163-8.4,12.861-18.268,17.592-29.1-.051-.165-.013-.426-.215-.426A14.521,14.521,0,0,1,416.291,598.194Zm-37.346,2.178c-2.22-2.845-6.272-3.854-11.291-3.913a13.638,13.638,0,0,0-2.385,4.563c.671.7,2.334.418,2.385,1.735-.325,1.161-2.237.494-3.254.439a13.352,13.352,0,0,0-1.524,3.254c1.435.709,4.288.76,3.913,2.608-1.3.836-3.254-.249-4.993.211a27.867,27.867,0,0,0-1.528,4.993c1,.312,2.537.072,3.047.874-1.127.823-2.959.95-4.343,1.52-.139,3.507-2.1,6.825-3.043,10.421-.452,1.718-.291,3.689-.865,5.424-.148.464-1.009,1.3-1.085,1.739-.5,2.841-1.334,5.6-1.743,7.813-.329,1.845-1.414,3.6-1.735,5.213-.566,2.9-.891,6.234-1.735,9.341,1.452.793,4.255.228,4.563,2.174a14.474,14.474,0,0,1-5.213.215,64.248,64.248,0,0,0-1.3,8.032c.658-.536,4.656-1.047,5.854.215-.68,1.722-4.879,2.254-6.074.87a67.43,67.43,0,0,0-1.954,9.121c2.2-.169,4.85-.6,6.508.431-.367-1.676,1.418-2.338,1.085-3.259-.983.768-1.8-.5-1.95-1.3.452-1.224,2.009-1.448,3.478-1.085,2.857-6.551,5.964-12.852,8.686-19.538-1.646-.35-5.854-1.811-2.828-3.482,1.507.236,2.195,1.283,4.124,1.085a32.929,32.929,0,0,0,2.389-5.42c-.443-.5-1.946.063-2.389-.435.165-.671-.371-.646-.211-1.308.523-1.355,2.283-.709,3.254-.215,4.234-9.45,9.729-19.424,11.506-29.955-2.2-.477-8.644-2.089-4.563-4.128a41.05,41.05,0,0,0,5,2.6C379.933,608,380.621,603.694,378.945,600.372Zm40.824,8.467c-1.372,1.228-2.917,2.845-4.132,3.913a24.681,24.681,0,0,0-3.689,3.685c-.806,1-2,2.11-2.608,3.039-.173.279-.013.836-.215,1.085-.371.473-1.144.6-1.52,1.089-.447.586-.447,1.511-.869,2.173-1.574,2.482-4.293,4-3.039,7.593,6.158-6.935,12.38-13.819,16.715-22.577Zm-29.107,12.586c-2.528,1.3-5.175,2.592-6.715,4.563.363.979.127,3.149.865,4.559-.3.363-1.237.076-1.524.439-.789-.8-.65-2.537-1.524-3.263-2.372,1.03-2.583,4.217-4.989,5.217.8.561.317,2.495-.865,2.385-.532-.2-.35-1.1-.874-1.3-2.292,1.469-2.642,4.884-3.908,7.386.772,1.541,1.254,3.372,1.954,4.989-.8-.084-.57.878-1.52.65-1.211-.165-.827-1.92-1.735-2.385-2.541,5.559-5.47,10.738-7.378,16.934a7.114,7.114,0,0,1,2.6-.219c.519,1.435,1.819,2.089,3.258,2.6,2.207-1.473,4.8-2.579,6.293-4.778a1.768,1.768,0,0,1-1.519-1.734c.815-1.823,2.794-.19,3.693.435,6.466-4.6,11.966-10.168,18.019-15.2.549-1.693,1.891-2.6,2.608-4.124-1.2-.928-3.123-5.584.219-5.428.663.929.228,2.959,1.081,3.693,2.807-4.47,1.553-13.941-2.174-17.158C393.819,618.918,392.41,620.548,390.662,621.425ZM359.4,668.977c2.452-.658,3.875-2.351,6.082-3.258-.709-1.676-2.95-1.819-3.259-3.9C361.378,664.3,360.116,666.365,359.4,668.977ZM326.839,680.7c.076,1.085,1.072,1.245,1.3,2.174-.376.414-.253,1.334-1.085,1.3-.891-.047-1.224-.659-2.169-.646a13.686,13.686,0,0,0-3.258,4.339c.929,1.131,2.6,3.246,1.743,4.778-2.1.287-2.051-1.57-3.263-2.169a20.74,20.74,0,0,1-1.958,1.735c1.059.5.844,1.642.443,2.609a25.356,25.356,0,0,0,11.941-6.513,3.98,3.98,0,0,1-2.393-1.739c.426-.447.308-1.435,1.089-1.52,1.57.376,2.317,1.591,4.124,1.735,1.266-.9,2.811-1.524,3.685-2.819a83.464,83.464,0,0,1-5.2-9.556C330.385,676.723,328.388,678.487,326.839,680.7Zm23.886-1.735c-.025-.266-.067-.519-.439-.435-1.57.6-4.217,1.709-6.078.65.051,3.938-2.275,6.272-1.954,11.075,1.119.131,2.9-.624,3.254,1.081a4.627,4.627,0,0,1-3.043,1.519,14.081,14.081,0,0,0-.211,5.648C346.419,693.34,347.8,685.384,350.725,678.968Z" transform="translate(0 0)" fill="#d6d6d6" fill-rule="evenodd"/>
        </g>
        <g id="Group_325" data-name="Group 325" transform="translate(-235.514 353.851) rotate(-47)">
          <path id="Path_347" data-name="Path 347" d="M570.342,203.268c2.537-1.432,6.711-4.411,11.712-3.771,3.774.482,7.858,2.725,6.153,7.344,2.93,2.362,5.724,5.249,5.559,10.122a20.888,20.888,0,0,1-1.785,4.17,3.571,3.571,0,0,0-1.99.993c-.135,1.194.723,3.009.4,4.365a5.72,5.72,0,0,1-1.59,2.184c-2.319,1.5-6.615.056-9.327-.4a38.607,38.607,0,0,0-1.587,7.743,18.076,18.076,0,0,1,7.538,2.379c3.18,3.906,5.783,7.294,6.552,13.5.109.917.3,1.838.392,2.577.67,5.463.112,11.712.8,16.871,1.085,1.495,3.477,1.686,4.764,2.979-1.013.9-3.8.257-4.962,0-.835,4.124-.937,8.987-1.389,13.5a13.748,13.748,0,0,1,5.757,3.573c-1.715.079-4.516.462-5.955-.6a153.876,153.876,0,0,1-5.955,25.8,24.452,24.452,0,0,1-4.368,3.771c1.211,1.673,1.517,5.341.8,7.344-1.329.135-.947-1.435-1.2-2.379a10.037,10.037,0,0,0-2.184-3.177c-2.082,1.105.478,3.942-.195,5.556-2.458-.122-1.438-3.721-4.167-3.57-1.8,3-.313,8.314-1.191,10.917-1.092-.445-1.561-3.883-1.785-5.559-.214-1.59.1-3.349-.2-4.563-2.989.119-1.887,4.328-3.972,5.358-1.065-1.336.017-3.748.4-5.556a21.89,21.89,0,0,0-2.781-2.382c-4.837-7.928-8.327-17.208-11.309-27-1.574.412-1.884,2.088-3.576,2.382.076-1.993,2.181-3.632,3.181-5.358-2.1-6.634-3.085-14.387-4.566-21.639-2.24,1.013-4.008,3.527-5.955,4.17,0-3.424,5.272-5.315,5.955-8.333.336-1.488-.241-3.457,0-5.163a50.61,50.61,0,0,1,1.983-9.132c1.254-3.55,2.755-7.014,5.357-9.726.353-2.906.05-6.212-1.986-8.136-1.478-.023-2.59-1.287-3.767-1.59-.792-.2-1.682.02-2.382-.195-3.946-1.227-5.773-6.8-4.761-11.715-9.145-3.2-1.867-18.58,5.754-18.653.914-.01,1.814.7,2.577.594,1.194-.168,2.6-2.214,3.576-2.979,2.725-2.121,5.533-3.576,9.525-3.375A11.27,11.27,0,0,1,570.342,203.268Zm-1.587,4.764c-2.019-.442-.518-2.676-.6-3.771a7.252,7.252,0,0,0-3.969-5.16c-4.388-1.5-7.875,2.873-10.521,4.962-.109,3.563-3.579,3.236-4.958.993-5.269,1.029-8.63,5.81-7.538,11.906,1.32,2.715,6.984-1.867,6.545,2.184-.115,1.049-1.435,1.534-2.382,2.184a7.876,7.876,0,0,0,2.382,8.931,11.956,11.956,0,0,0,3.177-.594c1.461.732,2.851.307,3.969,1.389,1.29-.657,1.778-.026,2.976.2,1.861-.983,1.953-3.388,4.767-2.976a5.96,5.96,0,0,0,6.549,2.382c.056-1.247-.732-1.656-.8-2.778,1.518-1.824,2.936-.059,4.17.195,1.583.333,2.474-.191,3.969-.594.082-1.475-1.561-1.221-1.194-2.976,1.349-1.831,3.962-.119,4.173,1.587,2.517.983,6.021,2.026,8.33.6,1.795-3.639-3.424-4.229-2.976-6.156.531-2.273,3.972.389,5.757-.993,1.976-4.3-.208-9.158-3.969-10.118-1.729.109-2.557-.086-2.781-1-.393-1.633,3.833-2.672,1.792-4.962-4.625-3.57-11.722-.462-14.886,2.58C570.837,206.9,569.81,208.263,568.755,208.032Zm4.17,22.229c-.195,2.088-1.112,4.045-.4,5.958a9.836,9.836,0,0,0,3.771-.4,32.311,32.311,0,0,0,.2-5.757A11.032,11.032,0,0,1,572.925,230.261Zm-8.34,3.177c-.215.442-.785.534-.99.993a17.876,17.876,0,0,1,.194,3.174c4.068.422,1.749-5.11.2-5.955C563.915,232.521,564.562,232.673,564.585,233.438Zm-6.941.2a38.2,38.2,0,0,0,.594,6.156c-.571.221-1.343.247-1.392.99,1.7.023,3.088-1.927,4.965-2.382-.442-1.953-.188-4.378-1.389-5.955A8.194,8.194,0,0,1,557.643,233.636Zm10.122,2.781a3.571,3.571,0,0,0,2.774-.2,5.393,5.393,0,0,0-.6-3.177,4.118,4.118,0,0,1-1.785,0C567.729,233.873,568.138,235.539,567.765,236.417Zm14.288,3.174c-3.814-1.465-9.1-.759-12.9-.2-5.473.808-10.534,3.428-13.1,6.747-.6,2.045-1.99,3.306-2.583,5.358,1.138-.066,2.342-.868,2.979.2-1.227,1.818-3.665,2.421-3.969,5.16,1.752-.515,3.19-3.177,4.958-2.382-2.167,3.071-5.734,4.935-6.35,9.132-.67,4.559.4,9.323.993,13.694.65,4.751,2.2,9.185,2.979,13.3,2,.132,2.115,2.4.792,3.375,1.052,2.487,1.118,5.262,1.986,7.74,1.148,3.263,2.827,6.047,3.972,8.733a82.9,82.9,0,0,0,4.563,9.729c.864.129,1.072.917,1.986.99.769.106.97-.356,1.788-.195.439.218.538.782.993.99,4.945-.742,7.413-3.966,10.913-6.153,4.153-9.61,6.347-21.556,7.344-33.938.789-9.759,1.462-19.969-.4-29.58-2.56-.125-5.8,1.851-7.74.4.531-3.794,4.939-.64,7.74-1.389.34-1.046-.389-1.739-.6-2.781-1.692,1.089-4.849.709-6.351,1.986-.907-.5-1.841-.706-1.785-1.788.155-2.956,6.308-.148,7.937-1.191C586.21,244.9,585.362,240.861,582.053,239.591Z" transform="translate(0 0)" fill="#86bc25" fill-rule="evenodd"/>
          <path id="Path_348" data-name="Path 348" d="M554.678,203.449c3.246-.185,9.3-2.065,11.118.8.983,1.544-.1,5.087-2.184,5.754-.574-1.811,1.933-3.919-.2-5.16-3.282-.036-6.456.033-8.538,1.191-1.419,1.63-2.6,5.364-5.757,3.969-.34-3.25,2.144-3.682,3.177-5.556-.993-3.207-5.6-1.138-6.549.8.145,1.046,1.165,1.214,1.392,2.181a4.95,4.95,0,0,1-3.774,0C541.1,201.611,552.1,197.748,554.678,203.449Z" transform="translate(10.504 9.544)" fill="#86bc25" fill-rule="evenodd"/>
          <path id="Path_349" data-name="Path 349" d="M553.872,217.016c-1.877,1.692-5.034,2.111-5.757,4.965,1.97.112,2.586-1.122,4.368-1.191v1.191c-1.415.238-2.319.986-3.771,1.188-.4,1.066-1.343,1.574-2.184,2.184-1.059,0-1.28-.841-1.389-1.788.449-.673,1.379-.864,2.184-1.188-4.249-2.814,2.606-5.015,5.16-5.958A2.878,2.878,0,0,1,553.872,217.016Z" transform="translate(15.282 45.797)" fill="#86bc25" fill-rule="evenodd"/>
          <path id="Path_350" data-name="Path 350" d="M559.623,222.965c-2.893.152-5.4-1.076-7.344.594a2.759,2.759,0,0,1-1.587-2.976c.158-.036.191-.2.4-.2,1.524-.683,3.005.271,4.566.2C556.36,221.992,559.576,220.893,559.623,222.965Z" transform="translate(27.99 54.338)" fill="#86bc25" fill-rule="evenodd"/>
          <path id="Path_351" data-name="Path 351" d="M557.63,223.666c-2.042.129-2.909-.076-5.357,0-.172-.165-.115-.548-.4-.6C551.979,219.994,556.987,222.013,557.63,223.666Z" transform="translate(30.773 57.411)" fill="#86bc25" fill-rule="evenodd"/>
          <path id="Path_352" data-name="Path 352" d="M557.87,225.559c0,.528.079,1.135-.194,1.389-1.346-1.475-4.2-.934-5.358.4a4.184,4.184,0,0,1-2.184-1.188c-.046-.775.429-1.033.594-1.59A9.471,9.471,0,0,1,557.87,225.559Z" transform="translate(26.759 63.851)" fill="#86bc25" fill-rule="evenodd"/>
          <path id="Path_353" data-name="Path 353" d="M554.177,225.347v1.191c-1.31.472-1.316-.389-2.379-.594-2.531-.346-3.286,2.745-5.757,1.188C545.992,223.45,551.4,224.1,554.177,225.347Z" transform="translate(17.356 64.063)" fill="#86bc25" fill-rule="evenodd"/>
          <path id="Path_354" data-name="Path 354" d="M553.237,226.288c-.564.828-1.534.5-2.778,1.191-.986.544-3.282,3.556-3.969,1.191C545.923,226.7,551.4,225.038,553.237,226.288Z" transform="translate(18.295 67.49)" fill="#86bc25" fill-rule="evenodd"/>
          <path id="Path_355" data-name="Path 355" d="M555.842,226.738c-.178.719.35,1.056,0,1.389-.881.033-2.629-.472-3.573.4-.917-.32-1.26-.689-.993-1.785C552.385,225.5,554.559,226.058,555.842,226.738Z" transform="translate(29.19 67.835)" fill="#86bc25" fill-rule="evenodd"/>
          <path id="Path_356" data-name="Path 356" d="M555.976,230.572c.056.581-.442.607-.393,1.191-2.6-.838-4.183,3.111-6.351.8C549.058,229.609,554.825,229.1,555.976,230.572Z" transform="translate(24.685 76.504)" fill="#86bc25" fill-rule="evenodd"/>
          <path id="Path_357" data-name="Path 357" d="M555.245,230.888c-.172,1.013-1.234,1.138-1.983,1.587-.129,1.976-3.744,3.863-3.969,1.587C549.128,232.4,553.147,230.551,555.245,230.888Z" transform="translate(24.822 78.97)" fill="#86bc25" fill-rule="evenodd"/>
        </g>
        <g id="Group_326" data-name="Group 326" transform="matrix(0.788, 0.616, -0.616, 0.788, 652.78, -35.441)">
          <path id="Path_358" data-name="Path 358" d="M203.1,74.364c4.73,4.093,7.987,9.66,12.08,14.4-2.05,5.319-.836,13.9-2.828,19.28a27.764,27.764,0,0,1-.769,14.139c-2.868,3.128-4.678,7.322-6.688,11.311-3.71,3.738-7.678,9.43-13.364,12.338a69.9,69.9,0,0,1-9.516,3.343c-3.465,1.02-9.724-.711-10.282-3.857-.794-4.479,8.137-8.989,3.343-14.4,2.957-2.9,1.21-6.8,1.8-11.308-6.265-2.393-7.9-9.412-11.054-14.911-8.551,5.5-25.025,4.458-33.68-.515-2.135,4.972-6.345,7.88-9.253,12.083.668,2.751-.205,5.493.512,8.226.119,1,1.262.965,1.541,1.8,1.177,7.629,12.123,7.249,14.657,13.367,2.914,7.053-8.064,9.688-15.423,8.744-6.756-.867-13.625-5.19-17.485-9.516-2.439-2.733-3.661-3.814-4.626-6.936-4.712.135-5.408-2.632-7.711-6.173C89.9,118.932,85.066,104.5,86.9,94.928c.267-1.412,2.007-3.428,2.313-5.138.221-1.241-.322-2.347,1.029-3.085.585-1.78-1.412-4.2-1.287-6.428.141-2.46,4.265-7.865,5.65-10.025,1.584-2.454,2.852-3.3,4.629-5.4,1.489-1.749,2.338-3.413,4.375-5.141,3.845-3.269,9.5-7.111,15.423-7.712a22.4,22.4,0,0,1-.257-4.626c2.439-3.392,6.82-4.832,10.8-6.685.944-.172.631-1.6,1.284-2.056,3.447-2.957,13.107-5.735,20.055-4.887,3.257.4,6.134,1.86,9,2.313,1.752.282,3.569-.181,5.4,0,7.715.766,15.025,2.4,15.941,9.77,4.418,2.656,9.069,5.169,13.367,8.487,2.577,1.985,5.885,4.105,7.2,6.425C203.781,64.229,202.635,68.812,203.1,74.364ZM143.195,55.6c1.259,2.077,5.089,6.8,7.715,6.688,3.428-.159,5.055-5.794,6.428-9,1.9-4.436,3.738-7.466,2.313-11.823-2.5-2.727-7.289-1.841-12.087-1.287-2.95.343-6.109.839-7.966,1.8C138.875,46.628,140.836,51.7,143.195,55.6Zm19.283-4.884c-2.12,5.239-4.776,14.063-10.028,15.426-1.464.38-2.647-.141-4.115,0a36.209,36.209,0,0,1-13.367-23.652c-4.277,1.676-9.449,2.316-11.569,5.656-.79,1.244-.922,3.631-.772,5.656.086,1.072.175,2.093.26,3.085.858,9.825,5.432,19.078,8.484,28.793.536,1.71.536,3.517,1.026,5.141,1.011,3.321,3.41,5.895,4.118,8.744-.193,1.094-1.461,1.109-2.062,1.8,7.473,3.94,23.19,5.9,29.048-.769,0-1.026-.509-1.544-.509-2.574.432-.766,1.7-.692,2.567-1.026,4.249-6.428,8.529-17.81,10.539-28.279,1.2-6.229,1.207-14.6,1.287-20.567.095-6.976-7.3-8.628-13.885-8.484C165.15,43.358,163.759,47.544,162.478,50.712Zm11.048,60.669c.738,1.29,1.468,2.678,2.319,3.088,2.39,1.146,4.28-.205,6.167-1.029,1.213-.53,2.886-.622,3.86-1.287,3.444-2.359,6.388-9.73,8.738-16.2,3.462-9.522,5.741-19.3,4.884-29.565-.5-5.99-5.974-9.063-9.507-11.566-1.995-1.409-5.708-4.433-8.744-4.372A99.385,99.385,0,0,1,167.616,101.1C169.559,104.386,171.639,108.065,173.526,111.38ZM113.89,57.136a43.264,43.264,0,0,0-16.2,15.683c.956.113,2.436-.858,2.828.26-.2,2.319-2.411,2.525-4.369,1.8-1.48,3.811-2.822,7.439-1.547,12.087,1.314,1.256,1.541,3.6,2.828,4.884,2.644,8.33,9.053,12.886,14.657,18.251,2.555.622,3.441,2.9,6.685,2.828.821-.037.567-1.149,1.033-1.544.8-.536,1.431.236,2.056-.254,3.238-3.012,6.584-5.925,9.25-9.513a2.958,2.958,0,0,1,.769-3.857c-3.254-5.429-3.854-11.845-5.91-17.736-.916-2.635-2.488-5.031-3.343-7.715-1.6-5.037-2.246-10.591-3.082-16.449A13.211,13.211,0,0,0,113.89,57.136Zm88.175,26.995a134.423,134.423,0,0,1-7.454,21.6c-1.042,2.322-1.991,5.147-3.082,6.685-2.828,3.971-7.172,3.882-11.314,6.425-.169,3.781-.067,6.593,1.029,9.513,3.8,3.281,6.48,1.109,10.025-1.541a43.78,43.78,0,0,0,14.654-19.541c2.31-5.772,5.524-11.924,4.626-18.766-2.647-3.012-4.228-7.083-7.711-9.256C202.056,80.614,202.436,82.495,202.065,84.131ZM98.721,102.385c-2.08-3.235-3.585-7.041-6.167-9.77h-.512c-.018.331-.331.358-.26.772-3.082,12.408,1.55,29.486,10.8,34.964,3.067,1.817,10.938,3,14.4,1.026,3.79-2.163,2.31-6.134,2.57-11.823C109.555,115.544,104.846,108.258,98.721,102.385Zm109,9.51c-2.289,3.744-4.262,8.634-7.966,12.856-1.658,1.884-3.989,3.306-6.177,4.887-2.279,1.648-4.639,4.256-6.679,4.623-2.074.377-5.08-.885-6.942-2.056-.444,4.436-1.857,7.883-3.343,11.829,2.577,2.794,6.223,1.271,9,.254A31.636,31.636,0,0,0,201.3,132.2a54.885,54.885,0,0,0,3.082-4.626c2.855-4.982,5-8.946,4.884-14.911C208.738,112.422,208.242,112.143,207.721,111.895ZM125.97,134.26c-1.985-1.419-2.632-3.56-4.109-3.6-2.675,4.188-10.022,3.98-15.426,2.828,4.884,7.4,17.295,14.412,28.793,9.51C136.179,137.873,130.419,137.447,125.97,134.26Z" transform="translate(0 0)" fill="#d6d6d6" fill-rule="evenodd"/>
          <path id="Path_359" data-name="Path 359" d="M108.756,37.236c.04,1.069.089,2.145-.515,2.57-1.366-.086-2.206-.708-2.313-2.059A2.139,2.139,0,0,1,108.756,37.236Z" transform="translate(40.095 6.794)" fill="#d6d6d6" fill-rule="evenodd"/>
          <path id="Path_360" data-name="Path 360" d="M116.493,38.15a4.018,4.018,0,0,1-.515,2.056,1.929,1.929,0,0,1-2.059-.769A1.486,1.486,0,0,1,116.493,38.15Z" transform="translate(56.525 8.45)" fill="#d6d6d6" fill-rule="evenodd"/>
          <path id="Path_361" data-name="Path 361" d="M108.508,40.1a2.061,2.061,0,0,1-2.31,1.8,1.774,1.774,0,0,0-.772-.512A1.743,1.743,0,0,1,108.508,40.1Z" transform="translate(39.056 12.154)" fill="#d6d6d6" fill-rule="evenodd"/>
          <path id="Path_362" data-name="Path 362" d="M102.886,42.382c.123,2.093-2.169,3.006-3.082,1.287A1.828,1.828,0,0,1,102.886,42.382Z" transform="translate(27.454 17.07)" fill="#d6d6d6" fill-rule="evenodd"/>
          <path id="Path_363" data-name="Path 363" d="M97.95,42.292c.781,1.3.224,3.416-1.541,3.6C95.055,44.985,94.84,41.413,97.95,42.292Z" transform="translate(18.507 17.675)" fill="#d6d6d6" fill-rule="evenodd"/>
          <path id="Path_364" data-name="Path 364" d="M121.944,43.217a3.291,3.291,0,0,1-.769,2.059c-1.471-.074-2.485-.6-2.828-1.8C119.275,42.66,121.077,42.068,121.944,43.217Z" transform="translate(65.725 18.548)" fill="#d6d6d6" fill-rule="evenodd"/>
          <path id="Path_365" data-name="Path 365" d="M115.325,44.381c-1.235,5.432-5.49-2.494,0,0Z" transform="translate(53.836 21.239)" fill="#d6d6d6" fill-rule="evenodd"/>
          <path id="Path_366" data-name="Path 366" d="M121.776,46.547c-.558,2.267-3.015,1.391-3.6-.257C118.77,44.509,121.1,45.551,121.776,46.547Z" transform="translate(65.378 24.217)" fill="#d6d6d6" fill-rule="evenodd"/>
          <path id="Path_367" data-name="Path 367" d="M124.285,48.083a1.3,1.3,0,0,0-.775.772A2.389,2.389,0,0,1,121.2,46.8C121.88,44.967,124.684,45.9,124.285,48.083Z" transform="translate(71.613 25.252)" fill="#d6d6d6" fill-rule="evenodd"/>
          <path id="Path_368" data-name="Path 368" d="M95.7,46.97c-.129,1.327-1.167,1.749-2.313,2.059C90.676,47.791,94.613,44.3,95.7,46.97Z" transform="translate(12.28 25.593)" fill="#d6d6d6" fill-rule="evenodd"/>
          <path id="Path_369" data-name="Path 369" d="M106.108,46.762c-.037.3.055.46.257.515a1.9,1.9,0,0,1-1.023,2.059c-.729.208-.665-.365-1.287-.26C103.035,47.546,104.542,45.745,106.108,46.762Z" transform="translate(35.543 26.572)" fill="#d6d6d6" fill-rule="evenodd"/>
          <path id="Path_370" data-name="Path 370" d="M97.437,47.927a2.28,2.28,0,0,1-.518,2.056C93.926,50.274,95.4,45.917,97.437,47.927Z" transform="translate(17.997 28.492)" fill="#d6d6d6" fill-rule="evenodd"/>
          <path id="Path_371" data-name="Path 371" d="M107.308,67.106c-1.422-1.627-.9-4.191-1.29-6.17-.858-4.4-2.987-8.379-4.369-12.083,2.267-2.7,4.289,3.539,5.144,6.942C107.587,58.972,108.49,63.739,107.308,67.106Z" transform="translate(31.264 30.138)" fill="#d6d6d6" fill-rule="evenodd"/>
          <path id="Path_372" data-name="Path 372" d="M106.6,48.828c2.209,1.152,2.31,5.634,2.313,9A17.325,17.325,0,0,1,108.14,64c-2.592.512-1.3-2.374-1.287-3.857.025-3.483-1.783-8.211-1.287-10.282C105.676,49.392,105.634,48.908,106.6,48.828Z" transform="translate(39.17 31.449)" fill="#d6d6d6" fill-rule="evenodd"/>
          <path id="Path_373" data-name="Path 373" d="M105.034,49c1.811,1.425,3.214,6.661,3.6,10.028.221,1.872.76,5.1-1.541,5.4A39.782,39.782,0,0,0,103.5,49.767C104.035,49.54,104.253,48.986,105.034,49Z" transform="translate(35.076 31.793)" fill="#d6d6d6" fill-rule="evenodd"/>
          <path id="Path_374" data-name="Path 374" d="M112.7,49.122c.9,3.171-.4,7.739-1.8,10.8.006,1.2.135,2.534-1.029,2.57-2.472-2.414,2.117-7.641.518-12.341C111.14,49.786,111.275,48.806,112.7,49.122Z" transform="translate(46.691 31.927)" fill="#d6d6d6" fill-rule="evenodd"/>
          <path id="Path_375" data-name="Path 375" d="M108.807,49.182c2.457,1.792,2.129,10.438-.769,11.569-.362-2.417.349-7.417-.515-11.054C108.313,49.89,108.016,48.992,108.807,49.182Z" transform="translate(43.386 32.124)" fill="#d6d6d6" fill-rule="evenodd"/>
          <path id="Path_376" data-name="Path 376" d="M115.162,49.362c1.942,1.979.594,5.953-.769,9-.858,1.921-1.762,4.982-3.6,4.887.662-4.216,3.919-8.015,2.564-12.6C113.556,49.969,114.528,48.74,115.162,49.362Z" transform="translate(50.141 32.199)" fill="#d6d6d6" fill-rule="evenodd"/>
          <path id="Path_377" data-name="Path 377" d="M95.163,50.613c-.107,1.176-.558,2.013-1.8,2.059a3.961,3.961,0,0,1-1.026-1.8C93.046,50.065,94.394,49.418,95.163,50.613Z" transform="translate(12.042 33.775)" fill="#d6d6d6" fill-rule="evenodd"/>
          <path id="Path_378" data-name="Path 378" d="M97.353,50.422c2.378,1.6,2.681,6.529,3.6,8.741,1.241,2.065,3.811,5.077,3.343,7.2-2.669-.895-3.9-4.393-5.144-7.2C98,56.559,95.952,53,97.353,50.422Z" transform="translate(21.421 34.738)" fill="#d6d6d6" fill-rule="evenodd"/>
          <path id="Path_379" data-name="Path 379" d="M120.412,50.674c1.118,2.494-.7,5.775-1.8,8.223-.983,2.184-2.022,6.1-4.629,5.659,1.857-4.571,3.919-8.937,5.4-13.882Z" transform="translate(56.72 35.259)" fill="#d6d6d6" fill-rule="evenodd"/>
          <path id="Path_380" data-name="Path 380" d="M121.109,52.1c.38,2.883-1.048,5.2-2.313,7.708-.784,1.572-1.587,3.45-2.822,4.372-2.353-1.811,1.829-6.14,2.567-8.484a5.994,5.994,0,0,1,.512-2.828c-.07-.417.248-.441.26-.769Z" transform="translate(59.36 38.204)" fill="#d6d6d6" fill-rule="evenodd"/>
          <path id="Path_381" data-name="Path 381" d="M127.051,55.131c-.938.732-2.73.7-3.082-.518C124.036,52.269,127.774,51.816,127.051,55.131Z" transform="translate(77.327 39.543)" fill="#d6d6d6" fill-rule="evenodd"/>
          <path id="Path_382" data-name="Path 382" d="M122.518,53.365c1.066,2.408-.79,5.907-2.062,8.229-.965,1.783-2.751,5.411-4.878,4.112,1.489-3.906,4.406-6.388,4.878-11.308C121.155,54.063,121.376,53.255,122.518,53.365Z" transform="translate(60.012 40.791)" fill="#d6d6d6" fill-rule="evenodd"/>
          <path id="Path_383" data-name="Path 383" d="M123.255,54.945c1.746,4.035-2.7,12.782-5.916,11.311,1.167-2.286,4.173-5.015,4.118-8.226-.009-.591-1.213-2.1-1.029-2.57C120.859,54.311,122.177,54.774,123.255,54.945Z" transform="translate(63.644 43.582)" fill="#d6d6d6" fill-rule="evenodd"/>
          <path id="Path_384" data-name="Path 384" d="M104.81,62.9c-5.221.242-8.833-3.324-10.8-7.2,2.135-2.169,4.881,3.5,7.969,5.4C103.308,61.917,104.47,61.172,104.81,62.9Z" transform="translate(15.505 44.626)" fill="#d6d6d6" fill-rule="evenodd"/>
          <path id="Path_385" data-name="Path 385" d="M125.346,56.593c-.043.3.058.46.26.518-.135.977-.922,1.308-2.062,1.284C122.2,57.252,123.882,55.567,125.346,56.593Z" transform="translate(75.435 46.818)" fill="#d6d6d6" fill-rule="evenodd"/>
          <path id="Path_386" data-name="Path 386" d="M91.047,57.4c.9.852,1.075,2.828-.26,3.343a3.289,3.289,0,0,1-2.31-1.541C88.6,57.872,89.429,57.24,91.047,57.4Z" transform="translate(4.078 49.094)" fill="#d6d6d6" fill-rule="evenodd"/>
          <path id="Path_387" data-name="Path 387" d="M103.9,66c-4.4,1-8.318-2.776-11.566-4.629.1-.843.751-1.131,1.026-1.8h.515a67.492,67.492,0,0,1,6.688,4.372C101.891,64.406,103.941,64.161,103.9,66Z" transform="translate(12.042 53.614)" fill="#d6d6d6" fill-rule="evenodd"/>
          <path id="Path_388" data-name="Path 388" d="M127.779,60.69c-.928,2.074-3.465,2.534-4.626,4.372,1.094.07,1.268-.787,2.57-.518.141,2.365-3.156,4.663-5.916,4.115-.2-.892.383-.987.26-1.8-.628-.4-1.6-.46-2.056-1.029V64.29C121.738,63.815,124.189,59.63,127.779,60.69Z" transform="translate(65.033 55.576)" fill="#d6d6d6" fill-rule="evenodd"/>
          <path id="Path_389" data-name="Path 389" d="M92.748,61.337a1.939,1.939,0,0,1-3.082,2.053A2.042,2.042,0,0,1,92.748,61.337Z" transform="translate(6.485 56.731)" fill="#d6d6d6" fill-rule="evenodd"/>
          <path id="Path_390" data-name="Path 390" d="M102.9,65.187c-3.358,2.086-8.1-.7-10.285-2.316-.205-.888.288-1.085.515-1.541C96.535,62.47,99.608,63.934,102.9,65.187Z" transform="translate(12.529 57.25)" fill="#d6d6d6" fill-rule="evenodd"/>
          <path id="Path_391" data-name="Path 391" d="M93.514,63.344c2.445.812,5.53.987,6.688,3.085-3.257.254-5.04-.959-6.942-2.059C93.229,63.911,93.575,63.828,93.514,63.344Z" transform="translate(13.946 61.406)" fill="#d6d6d6" fill-rule="evenodd"/>
          <path id="Path_392" data-name="Path 392" d="M127.306,64.618a2.4,2.4,0,0,1-3.343,1.8C122.364,63.84,126.457,62.565,127.306,64.618Z" transform="translate(76.558 61.931)" fill="#d6d6d6" fill-rule="evenodd"/>
          <path id="Path_393" data-name="Path 393" d="M128.547,66.676c.263.337.248.953.778,1.026-.282,1.581-2.132,1.345-3.346.769-.42.527-.542,1.348-1.023,1.8-2.264-.732-6.287,1.483-6.942-1.287-.043-.637.4-.8.512-1.287,2.476.092,4.461.683,7.2.515C126.767,67.8,126.617,66.2,128.547,66.676Z" transform="translate(65.031 68.102)" fill="#d6d6d6" fill-rule="evenodd"/>
          <path id="Path_394" data-name="Path 394" d="M103.558,67.646c-1.4.974-4.348,2.341-6.164,1.281C96.87,66.16,102.5,66.368,103.558,67.646Z" transform="translate(22.412 68.419)" fill="#d6d6d6" fill-rule="evenodd"/>
          <path id="Path_395" data-name="Path 395" d="M103.6,68.535c-.374,1.9-4.55,2.865-4.884.515C100.115,68.78,102.315,67.306,103.6,68.535Z" transform="translate(25.203 71.124)" fill="#d6d6d6" fill-rule="evenodd"/>
          <path id="Path_396" data-name="Path 396" d="M124.024,68.127c.358.331.254,1.115.257,1.8-2.215.806-3.006,1.569-6.167,1.544-.26-.343-.242-.959-.775-1.029C117.814,67.913,122.385,69.484,124.024,68.127Z" transform="translate(63.644 71.277)" fill="#d6d6d6" fill-rule="evenodd"/>
          <path id="Path_397" data-name="Path 397" d="M97.627,51.848a36.4,36.4,0,0,0,7.711,12.6c-.371.487-.57,1.143-1.541,1.033.083.6.407.962.26,1.8-1.881.754-2.184-1.342-3.857-1.544-.08-.6-.9-.478-.772-1.287-1.538-2.258-6.223-5.1-4.375-8.223,2.319.772,2.574,3.6,4.375,4.884.028-2.638-4.709-6.14-2.57-9.256Z" transform="translate(16.775 37.681)" fill="#d6d6d6" fill-rule="evenodd"/>
        </g>
      </g>
      <g id="Group_327" data-name="Group 327" transform="translate(881.226 712.152)">
        <path id="Path_398" data-name="Path 398" d="M218.287,154.263c-2.9,2.313-2.616-2.737-5.148-2.576-1.585.1-1.053,1.69-2.969,1.78-1.179-1.95.953-3.176,1.78-4.35C215.35,148.827,217.705,151.09,218.287,154.263Z" transform="translate(27.922 4.826)" fill="#86bc25" fill-rule="evenodd"/>
        <path id="Path_399" data-name="Path 399" d="M237.1,159.414c-3.449-3.049-6.12-6.371-12.86-6.331-2.418.012-4.35.876-6.928.988-.96-.557-.864-1.291-.988-2.371.61-.049.768-.554,1.183-.792,3.854.124,8.814-.774,12.869.4,2.551.734,5.885,2.929,6.724,4.749A5.055,5.055,0,0,1,237.1,159.414Z" transform="translate(41.557 8.182)" fill="#86bc25" fill-rule="evenodd"/>
        <path id="Path_400" data-name="Path 400" d="M226.632,151.712c.04,1.031-1.291.687-1.585,1.384.282.579,1.969-.251,1.984.6v.591c-3.223,1.82-8.835.229-10.1,4.158,2.987.282,6.681-1.5,10.1-.792.663.762-.7.762-.8,1.384-4.167.387-7.167,1.935-11.476,2.176-.588.337-.669,1.183-.988,1.786,2.672.266,6.736-3.229,9.495-.994-.919,1.2-2.492.885-3.758,1.387-1.616.638-3.607,2.052-6.334,1.981-.607.56.334,1.492-.2,1.978,3.223.5,6.541-1.6,8.315.988-2.861.774-6.21,1.053-9.1,1.783a18.673,18.673,0,0,1-2.381-2.969c.424-5.189,3.093-8.126,5.743-11.083-.118-.644.133-.923.2-1.387,1.7-.183,2.87-2.631,4.551-3.365C222.155,150.5,225.446,150.6,226.632,151.712Z" transform="translate(27.887 8.365)" fill="#86bc25" fill-rule="evenodd"/>
        <path id="Path_401" data-name="Path 401" d="M223.875,168.1c-1.1-.158-1.57-.938-2.176-1.585,1.09-6.235,5.1-9.541,9.894-12.074,1.248.105,5.808-2.439,6.136.2.2,1.6-1.873,1.356-3.563,1.78-3.826.969-8.427,4.346-9.3,7.919C224.46,166,225.646,166.544,223.875,168.1Z" transform="translate(52.812 13.943)" fill="#86bc25" fill-rule="evenodd"/>
        <path id="Path_402" data-name="Path 402" d="M214.249,162.705c-3.139,1.5-2.136-2.161-2.771-3.56-1.018-2.251-4.34-1.4-6.529-2.573.266-2.152,3.195-1.777,4.944-1.39A6,6,0,0,1,214.249,162.705Z" transform="translate(17.708 16.965)" fill="#86bc25" fill-rule="evenodd"/>
        <path id="Path_403" data-name="Path 403" d="M240.7,162.48c-1.916-2.981-6.579-6.492-11.287-4.154-.876-.111-.957-1.022-1.579-1.387-.006-.464.337-.579.195-1.189,5.059-2.114,11.04.539,13.262,3.761C241.294,160.1,241.632,162.22,240.7,162.48Z" transform="translate(65.676 17.19)" fill="#86bc25" fill-rule="evenodd"/>
        <path id="Path_404" data-name="Path 404" d="M240.279,168.26c-2.015-.919-2.4-3.408-4.353-4.95-5.179-4.09-15.175-5.275-19.593.2-2.046-1.675-4.5,1.319-6.334-.2.356-1.981,2.347-1.6,4.155-2.176,2.842-.895,5.161-3.467,8.513-3.956,5.91-.864,14.47,2.885,17.219,6.334A4.008,4.008,0,0,1,240.279,168.26Z" transform="translate(28.291 21.506)" fill="#86bc25" fill-rule="evenodd"/>
        <path id="Path_405" data-name="Path 405" d="M217.884,160.256c-2.6.4-4.832-.567-6.925,1.387a9.839,9.839,0,0,0-2.573,4.158c-.306,1.433.406,2.947-.6,4.154-2.347-.26-2.275-2.7-2.176-3.761.217-2.347,3.727-7.1,5.938-8.114C213.3,157.281,219.4,157.423,217.884,160.256Z" transform="translate(19.02 22.78)" fill="#86bc25" fill-rule="evenodd"/>
        <path id="Path_406" data-name="Path 406" d="M239.948,159.463c.136.734-.341.848-.2,1.582-1.848.659-5-.334-5.941,1.585,2.566.669,5.557.91,6.733,2.969-1.916,1.232-4.774-1.455-6.928,0-.907-.084-.947-1.034-1.585-1.387-1.124.789-1.387,2.44-3.167,2.573C228.94,161.862,234.722,156.724,239.948,159.463Z" transform="translate(67.817 24.959)" fill="#86bc25" fill-rule="evenodd"/>
        <path id="Path_407" data-name="Path 407" d="M239.087,169.461c-.981-.006-1.4-.579-1.186-1.78-1.359-4.56-8.758-5.148-12.671-2.576-5.569-3.17,5.563-4.833,8.906-3.956C238.261,162.227,241.57,166.363,239.087,169.461Z" transform="translate(56.998 29.607)" fill="#86bc25" fill-rule="evenodd"/>
        <path id="Path_408" data-name="Path 408" d="M236.107,163.121c-.176,1.071-4.158,1.684-5.545,1.186a2.21,2.21,0,0,1-1.384-1.585C230.386,161,234.451,162.669,236.107,163.121Z" transform="translate(68.488 31.793)" fill="#86bc25" fill-rule="evenodd"/>
        <path id="Path_409" data-name="Path 409" d="M240.264,173.641c-.062-.988.663-1.179.393-2.371-1.721-3.622-6.164-4.523-10.885-5.148-.062-.65-.455-1.622,0-2.176,4.529-.266,14.374,2.591,12.866,8.117C242.437,172.8,241.32,173.969,240.264,173.641Z" transform="translate(69.278 35.916)" fill="#86bc25" fill-rule="evenodd"/>
        <path id="Path_410" data-name="Path 410" d="M234.462,167.1c-3.628-1.409-5.634,1.579-7.322,3.365-.427,1.631-.2,3.254-.994,4.154-1.622-.539-1.823-3.012-.991-5.145.82-2.093,4.637-5.309,7.325-5.346C234.583,164.1,237.069,165.749,234.462,167.1Z" transform="translate(59.051 36.328)" fill="#86bc25" fill-rule="evenodd"/>
        <path id="Path_411" data-name="Path 411" d="M226.937,172.4c1.35.467.975,1.8,1.387,2.774,1.105,2.613,3.573,4.213,4.947,6.529,4.2,2.548,8.566,2.95,13.655,1.585,1.947-.523,3.461-2.792,5.938-1.384,1.077.607,1.659,2.331,2.378,2.969,4.514,4.006,12.978,4.133,18.206.988,1.48,1.789,6.891,5.092,9.7,4.947,1.774-.093,2.545-1.814,4.353-1.582-.576,1.467-2.8,3.913-4.551,4.155-3.158.44-8.061-3.882-11.482-3.758-2.455.087-3.916,1.111-6.136,1.186a19.9,19.9,0,0,1-6.529-.991c-.972-.313-1.167-.737-1.981-1.183-.446-.254-1.087-.136-1.189-.2-.715-.474-1.356-1.263-2.173-1.78a7.812,7.812,0,0,0-2.378-1.387c-2.693-.523-5.9,1.176-8.708,1.387-8.126.6-11.563-3.452-15.237-8.117-.842-1.062-1.653-2.443-2.774-2.573-4.065-.467-10.786,1.263-13.86-1.582-3.012-1.734-4.755-4.888-6.13-7.721-.077-1.517,1.192-2.1,2.573-1.582,1.3,3.251,2.836,6.266,5.74,7.916a34.153,34.153,0,0,0,11.086.594C224.634,172.746,226.163,172.718,226.937,172.4Z" transform="translate(16.498 37.947)" fill="#86bc25" fill-rule="evenodd"/>
        <path id="Path_412" data-name="Path 412" d="M225.08,166.544c-1.269,1.111-4.22,1.35-5.935,1.384-.672.762-3.542,1.783-4.161.2C216.66,165.807,222.57,165.12,225.08,166.544Z" transform="translate(38.741 39.849)" fill="#86bc25" fill-rule="evenodd"/>
        <path id="Path_413" data-name="Path 413" d="M219.253,167.4c.511,2.105-3.015,1.789-3.755,1.381v-.988A24.179,24.179,0,0,1,219.253,167.4Z" transform="translate(39.816 43.15)" fill="#86bc25" fill-rule="evenodd"/>
        <path id="Path_414" data-name="Path 414" d="M219.2,174.373c.517,1.133.6,2.7,1.186,3.761.322.8,1.554.687,1.189,2.176-3.35.053-3.715-2.882-4.356-5.541C217.755,174.14,218.2,174.187,219.2,174.373Z" transform="translate(43.431 57.551)" fill="#86bc25" fill-rule="evenodd"/>
        <path id="Path_415" data-name="Path 415" d="M236.294,161.683v1.585c-1.173,1.251-4.346-.279-5.941.793-.446.427.167.672,0,1.384-1.823.275-3.535.337-4.158,2.179.155.771,1.08.768.994,1.78-.437.486-1.353.5-1.981.793-.492,1.678.947,1.43,1.186,2.374-.666,1.248-2.749,1.285-4.35,1.582-2.452.455-5.266,1.746-6.931.991v-1.186a13.853,13.853,0,0,1,2.972-1.189c-.183-.607-1.012-.57-1.189-1.189.644-3.08,5.65-1.827,6.532-4.155-1.545-.028-3.34,1.405-4.947,1.978-.437-.328-1.093-1.142-.8-1.582,1.607-1.9,4.285-2.712,7.325-3.17A10.034,10.034,0,0,1,236.294,161.683Zm-17.024,10.492a20.354,20.354,0,0,0,3.563-.2v-.991C221.558,170.549,220.162,171.583,219.271,172.174Z" transform="translate(39.009 29.863)" fill="#86bc25" fill-rule="evenodd"/>
        <path id="Path_416" data-name="Path 416" d="M291.729,158.1c12.934-3.5,24.255,7.346,26.521,18.014a8,8,0,0,1-2.179,7.322c7.554,5.021,12.656,15.1,9.5,26.918-1.05,1.263-1.95,2.672-2.966,3.96a11.632,11.632,0,0,1-5.545,12.665c-1.2,4.857-1.659,10.467-5.74,12.869-5.241.567-8.965,3.7-13.659,4.155-1.217.359-.774-.941-1.582-.991-10.185,2.409-19.7-.424-29.1-.988-4.87-.294-9.944-2.43-14.844-2.969-15.692-1.724-30.7-9.529-43.344-15.835-.279-.579-.687.35-1.189.2-2.155-2.062-3.789-4.656-6.334-6.334-1.957-4.074-5.733-9.374-4.554-15.042.384-1.827,1.554-3.573,2.374-5.343.5-5.405-1.087-10.727.4-15.835a1.876,1.876,0,0,1,1.78.2c4.789-6.888,9.331-14.027,20.584-14.451,1.114-1.746.777-3.956,1.387-5.935a20.575,20.575,0,0,1,6.532-9.5,38.247,38.247,0,0,1,15.832-4.353c3.006-.176,6.972.474,9.306,1.981,1,.638,1.882,2.093,2.768,2.173,1.5.136,3.619-1.9,5.346-2.573,7.012-2.73,20.68-.022,25.135,4.353C289.606,154.171,290.578,156.2,291.729,158.1Zm-37.01-5.938c-8.888-5.907-25.076-1.291-28.5,8.117-.833,2.288-1.337,5.941-.4,7.916-.749,2.049-2.746,1.31-4.752,1.384a18.819,18.819,0,0,0-13.854,7.523c-3.439,4.408-6.253,10.027-3.758,17.024a5.01,5.01,0,0,1,1.186,2.374,2.442,2.442,0,0,1-2.774.991v2.573c3.251.124,1.526,2.309,1.192,4.353-.693,4.247.693,9.024,2.771,11.281.563-3.21-.319-9.182.789-12.467a1.8,1.8,0,0,1,2.374.789c-1.043,4.028-1.82,10.015-.991,14.649,1.331,1.059,3.13,2.653,4.752,2.768-1.294-4.613-.811-9.7-.594-14.844a3.4,3.4,0,0,1,1.978-.393c.381,5.1-.746,10.925.4,16.426A19.754,19.754,0,0,0,219.288,225c-1.093-2.588-2.09-8.919-2.374-12.665-.115-1.536-.536-3.987,1.978-2.573,1.074,6.851-.412,17.51,6.337,18.008a116.427,116.427,0,0,1-2.179-12.074c3.127-2.26,2.52,3.381,2.966,6.532.378,2.625,1.458,4.446,1.192,6.136a18.377,18.377,0,0,0,7.126,2.771c-.251-1.619-1.659-3.247-2.378-5.343-.551-1.613-2.365-7.167,0-6.928,1.443.145,1.365,3.641,1.78,5.346.876,3.616,2.241,5.272,2.969,8.114,2.681.749,5.062,1.8,8.117,2.176a24.879,24.879,0,0,1-5.343-12.272,1.491,1.491,0,0,1,1.78-.793c1.09,1.26.8,2.836,1.186,4.356.919,3.576,3.124,6.532,4.554,9.5,2.517.2,5.56,1.947,7.721,1.189-3.207-1.616-4.811-4.826-5.541-8.907,2.068-2.319,2.579,1.074,3.359,3.164a29.843,29.843,0,0,0,1.981,3.959c.322.6,1.328.517,1.387,1.387.26.851-.944.245-.789.988,5.123,1.043,9.733,1.579,15.234,2.378,8.634,1.248,18.271,2.669,26.131.591a26.548,26.548,0,0,0,7.126-2.768c1.275-.83,1.9-2.449,3.56-2.774.758-2.167,2.452-4.158,1.981-6.925,1.672-1.56,5.192-1.269,6.136-3.566a1.186,1.186,0,0,0,1.975-.789c-2.52.91-3.87-2.87-.793-2.969.5-2.929.644-5.3-.591-7.325-.471-.768-1.34-1.152-1.582-1.978-1.062-3.625,4.91-1.136,7.126-1.978,3.182-1.217,1.771-6.148.591-9.1.081-.975,1.467-.641,1.585-1.585a21.276,21.276,0,0,0-11.281-13.655,3.393,3.393,0,0,1,.2-2.771,4.209,4.209,0,0,1,1.783-.2c3.9-3.845-1.61-12.637-3.761-15.045-2.8-3.121-8.114-6.507-12.47-6.724a11.906,11.906,0,0,0-4.95.789c-1,.508-1.26,1.514-2.173,1.582-3.09.235-2.145-2.526-2.377-3.96a8.263,8.263,0,0,0-1.978-3.362c-5.551-5.275-19.212-6.427-25.93-2.573C259.688,155.059,255.119,155.982,254.719,152.158ZM199.89,205.6c-.056-1.09,1.195-3.052.4-4.356A4.488,4.488,0,0,0,199.89,205.6Zm118.955,6.925c.78.124.879-.44.988-.988-.372.046-.433-.223-.793-.2A.9.9,0,0,0,318.845,212.526Zm.792,2.176c.031-.622.006-1.192-.4-1.384C318.969,213.91,319.009,214.532,319.638,214.7Zm.2,3.566a3.429,3.429,0,0,0-.39-3.365A9.1,9.1,0,0,0,319.833,218.268Zm-1.189,3.956c-.1-.7.7-.486.6-1.189C318.663,220.937,318.2,221.946,318.644,222.225Zm-6.328,7.919h.988c.043-.155,0-.39.2-.4a.746.746,0,0,0-.793-.793A4.224,4.224,0,0,0,312.316,230.144Zm-2.179,6.532a2.657,2.657,0,0,0,1.582-1.387C311.056,235.614,310.329,235.874,310.137,236.676Z" transform="translate(0 0)" fill="#86bc25" fill-rule="evenodd"/>
      </g>
    </g>
  </g>
</svg>
