<svg xmlns="http://www.w3.org/2000/svg" xmlns:xlink="http://www.w3.org/1999/xlink" width="1920" height="297" viewBox="0 0 1920 297">
  <defs>
    <clipPath id="clip-path">
      <rect id="Rectangle_676" data-name="Rectangle 676" width="1920" height="297" fill="#8b2b2b"/>
    </clipPath>
  </defs>
  <g id="background_zamowienie" clip-path="url(#clip-path)">
    <g id="background_vector" transform="translate(-498.325 -604.867)">
      <g id="Group_306" data-name="Group 306" transform="translate(961 561)">
        <g id="Group_298" data-name="Group 298" transform="translate(-12.676 2.505)">
          <path id="Path_145" data-name="Path 145" d="M328.321,408.845c6.436,2.556,3.2,15.556-4.863,9.552C322.8,415.281,324.974,409.728,328.321,408.845Z" transform="translate(-301.483 -340.903)" fill="#d6d6d6" fill-rule="evenodd"/>
          <path id="Path_146" data-name="Path 146" d="M325.635,413.872c2.822,1.452,4.22,3.346,4.487,5.627C325.056,430.218,315.053,416.373,325.635,413.872Z" transform="translate(-320.964 -299.712)" fill="#d6d6d6" fill-rule="evenodd"/>
          <path id="Path_147" data-name="Path 147" d="M329.894,415.857c-9.552-3.411-1.48-12.476,3.273-9.037C336.477,409.237,334.261,414.983,329.894,415.857Z" transform="translate(-284.292 -363.774)" fill="#d6d6d6" fill-rule="evenodd"/>
          <path id="Path_148" data-name="Path 148" d="M330.037,401.455c2.105.083,4.064-.239,6.647,1.361-.276,2.464.23,4.652-1.912,7.723C329.587,413.591,324.962,405.436,330.037,401.455Z" transform="translate(-264.613 -401.455)" fill="#d6d6d6" fill-rule="evenodd"/>
          <path id="Path_149" data-name="Path 149" d="M328.711,422.149c-6.969-1.977-5.709-8.339-2.344-9.874C331.009,410.16,335.092,419.731,328.711,422.149Z" transform="translate(-298.931 -315.28)" fill="#d6d6d6" fill-rule="evenodd"/>
          <path id="Path_150" data-name="Path 150" d="M330.1,419.694c-.065,2.611,1.094,3.641-.322,5.857C322.43,437.134,316.674,408.588,330.1,419.694Z" transform="translate(-312.316 -273.466)" fill="#d6d6d6" fill-rule="evenodd"/>
          <path id="Path_151" data-name="Path 151" d="M339.205,406.215c-.8,4.845-4.79,7.86-9.1,6.059C327.695,407.4,334.378,400.1,339.205,406.215Z" transform="translate(-250.236 -381.548)" fill="#d6d6d6" fill-rule="evenodd"/>
          <path id="Path_152" data-name="Path 152" d="M333.8,408.357c6.509,2.73,2.225,14.232-4.864,9.552C326.522,413.5,330.282,410.472,333.8,408.357Z" transform="translate(-261.897 -344.902)" fill="#d6d6d6" fill-rule="evenodd"/>
          <path id="Path_153" data-name="Path 153" d="M329.279,414.741c2.409,1.655,4.128,1.223,5.323,2.712.4,2.353-1.361,6.6-3.788,7.428-.57-.386-1-.349-1.333,0C323.413,423.108,324.553,416.258,329.279,414.741Z" transform="translate(-285.231 -292.592)" fill="#d6d6d6" fill-rule="evenodd"/>
          <path id="Path_154" data-name="Path 154" d="M336.323,417.125c-7.208,12.642-13.45-7.391-3.953-5.369C335.6,412.455,335.441,414.763,336.323,417.125Z" transform="translate(-267.056 -318.236)" fill="#d6d6d6" fill-rule="evenodd"/>
          <path id="Path_155" data-name="Path 155" d="M335.257,409.167A10.384,10.384,0,0,1,341.1,414.8c-1.214,3.08-2.758,5.167-5.1,4.763C332.131,417.35,330.531,411.466,335.257,409.167Z" transform="translate(-227.698 -338.264)" fill="#d6d6d6" fill-rule="evenodd"/>
          <path id="Path_156" data-name="Path 156" d="M339.829,419.7c-1.646,4.533-6.077,5.571-8.559,3.677C325.054,418.622,336.6,410.136,339.829,419.7Z" transform="translate(-251.337 -287.638)" fill="#d6d6d6" fill-rule="evenodd"/>
          <path id="Path_157" data-name="Path 157" d="M342.728,417.839c-2.289-2.648-4.569-1.563-7.189-1.655C327.65,405.492,357.705,407.137,342.728,417.839Z" transform="translate(-212.552 -340.115)" fill="#d6d6d6" fill-rule="evenodd"/>
          <path id="Path_158" data-name="Path 158" d="M342.451,421.292c-.91,3.751-4.891,6.123-8.026,3.926C328.347,420.961,339.472,412.806,342.451,421.292Z" transform="translate(-225.32 -269.3)" fill="#d6d6d6" fill-rule="evenodd"/>
          <path id="Path_159" data-name="Path 159" d="M343.522,418.664c-1.94,4.2-2.961,6.234-5.636,5.829C329.088,423.15,339.467,408.017,343.522,418.664Z" transform="translate(-210.496 -291.357)" fill="#d6d6d6" fill-rule="evenodd"/>
          <path id="Path_160" data-name="Path 160" d="M336.559,412.422c3.466-.46,5.314,2.556,9.046,3.263,1.177,1.986-.193,4.781-1.921,7.714-1.545-.221-2.813.4-4.524-.294C338,419.63,335.29,416.679,336.559,412.422Z" transform="translate(-195.892 -311.98)" fill="#d6d6d6" fill-rule="evenodd"/>
          <path id="Path_161" data-name="Path 161" d="M342.807,411.94c3.6.266,5.222,1.728,6.353,4.588C345.823,426.577,333.678,416.877,342.807,411.94Z" transform="translate(-169.319 -315.543)" fill="#d6d6d6" fill-rule="evenodd"/>
          <path id="Path_162" data-name="Path 162" d="M338.074,419.115c3.8-.166,10.83,4.6,6.334,9.893C338.221,431.628,335.1,422.167,338.074,419.115Z" transform="translate(-190.099 -256.789)" fill="#d6d6d6" fill-rule="evenodd"/>
          <path id="Path_163" data-name="Path 163" d="M349.043,418.811c-.331,4.349-4.192,8.67-7.263,9.01C335.142,423.049,344.519,414.885,349.043,418.811Z" transform="translate(-169.266 -267.729)" fill="#d6d6d6" fill-rule="evenodd"/>
          <path id="Path_164" data-name="Path 164" d="M351.407,417.1c-.11,1.949-1.526,4.339-2.712,6.647C337.533,424.313,343.206,408.233,351.407,417.1Z" transform="translate(-144.784 -295.149)" fill="#d6d6d6" fill-rule="evenodd"/>
          <path id="Path_165" data-name="Path 165" d="M345.941,417.923c2.05,1.406,2.455,3.337,3.438,5.084C344.139,436.2,334.844,418.365,345.941,417.923Z" transform="translate(-158.983 -266.519)" fill="#d6d6d6" fill-rule="evenodd"/>
          <path id="Path_166" data-name="Path 166" d="M344.536,423.057c6.674.506,6.987,8.081,2.335,11.2C340.665,434.89,339.341,427.489,344.536,423.057Z" transform="translate(-154.177 -224.452)" fill="#d6d6d6" fill-rule="evenodd"/>
          <path id="Path_167" data-name="Path 167" d="M345.063,424.319c.45-5.13,2.859-6.178,5.9-5.038C360.085,422.737,344.134,434.781,345.063,424.319Z" transform="translate(-123.822 -258.811)" fill="#d6d6d6" fill-rule="evenodd"/>
        </g>
        <g id="Group_299" data-name="Group 299" transform="translate(746.938 277.892)">
          <path id="Path_168" data-name="Path 168" d="M435.161,463.166c-6.436-2.556-3.208-15.547,4.854-9.552C440.668,456.74,438.507,462.293,435.161,463.166Z" transform="translate(-232.024 -321.277)" fill="#d6d6d6" fill-rule="evenodd"/>
          <path id="Path_169" data-name="Path 169" d="M438.522,456.82c-2.822-1.443-4.22-3.338-4.487-5.617C439.1,440.482,449.113,454.328,438.522,456.82Z" transform="translate(-213.228 -361.148)" fill="#d6d6d6" fill-rule="evenodd"/>
          <path id="Path_170" data-name="Path 170" d="M434.406,454.984c9.561,3.42,1.489,12.476-3.264,9.038C427.823,461.613,430.038,455.867,434.406,454.984Z" transform="translate(-250.042 -297.235)" fill="#d6d6d6" fill-rule="evenodd"/>
          <path id="Path_171" data-name="Path 171" d="M433.831,469.342c-2.1-.083-4.064.23-6.638-1.37.276-2.455-.23-4.652,1.9-7.714C434.282,457.206,438.906,465.361,433.831,469.342Z" transform="translate(-269.29 -259.501)" fill="#d6d6d6" fill-rule="evenodd"/>
          <path id="Path_172" data-name="Path 172" d="M434.725,449.026c6.959,1.968,5.7,8.339,2.344,9.875C432.417,461.014,428.344,451.435,434.725,449.026Z" transform="translate(-234.53 -346.054)" fill="#d6d6d6" fill-rule="evenodd"/>
          <path id="Path_173" data-name="Path 173" d="M433.45,452.475c.055-2.6-1.1-3.631.312-5.856C441.108,435.044,446.863,463.591,433.45,452.475Z" transform="translate(-221.257 -388.871)" fill="#d6d6d6" fill-rule="evenodd"/>
          <path id="Path_174" data-name="Path 174" d="M425.354,463.84c.809-4.855,4.8-7.87,9.1-6.059C436.865,462.645,430.19,469.954,425.354,463.84Z" transform="translate(-284.358 -278.666)" fill="#d6d6d6" fill-rule="evenodd"/>
          <path id="Path_175" data-name="Path 175" d="M430.079,463.246c-6.518-2.721-2.234-14.232,4.854-9.552C437.36,458.116,433.591,461.141,430.079,463.246Z" transform="translate(-272.01 -316.87)" fill="#d6d6d6" fill-rule="evenodd"/>
          <path id="Path_176" data-name="Path 176" d="M435.026,456.393c-2.4-1.646-4.119-1.214-5.314-2.7-.4-2.354,1.352-6.61,3.779-7.429.57.377,1,.34,1.333,0C440.9,448.035,439.751,454.885,435.026,456.393Z" transform="translate(-249.109 -368.71)" fill="#d6d6d6" fill-rule="evenodd"/>
          <path id="Path_177" data-name="Path 177" d="M427.5,453.648c7.217-12.641,13.459,7.392,3.963,5.36C428.232,458.319,428.389,456.011,427.5,453.648Z" transform="translate(-266.799 -342.696)" fill="#d6d6d6" fill-rule="evenodd"/>
          <path id="Path_178" data-name="Path 178" d="M428.527,462.243a10.335,10.335,0,0,1-5.829-5.636c1.214-3.08,2.749-5.167,5.094-4.753C431.653,454.07,433.253,459.953,428.527,462.243Z" transform="translate(-306.121 -323.314)" fill="#d6d6d6" fill-rule="evenodd"/>
          <path id="Path_179" data-name="Path 179" d="M425.407,450.356c1.636-4.523,6.068-5.563,8.55-3.668C440.173,451.441,428.634,459.927,425.407,450.356Z" transform="translate(-283.924 -372.584)" fill="#d6d6d6" fill-rule="evenodd"/>
          <path id="Path_180" data-name="Path 180" d="M424.66,452.2c2.28,2.639,4.56,1.554,7.181,1.646C439.729,464.534,409.684,462.9,424.66,452.2Z" transform="translate(-324.862 -320.079)" fill="#d6d6d6" fill-rule="evenodd"/>
          <path id="Path_181" data-name="Path 181" d="M422.292,448.372c.9-3.751,4.891-6.123,8.017-3.935C436.386,448.7,425.271,456.858,422.292,448.372Z" transform="translate(-309.447 -390.523)" fill="#d6d6d6" fill-rule="evenodd"/>
          <path id="Path_182" data-name="Path 182" d="M420.563,452.049c1.931-4.211,2.951-6.233,5.627-5.838C434.988,447.553,424.609,462.7,420.563,452.049Z" transform="translate(-323.615 -369.515)" fill="#d6d6d6" fill-rule="evenodd"/>
          <path id="Path_183" data-name="Path 183" d="M428.182,459.555c-3.466.459-5.3-2.556-9.047-3.264-1.168-1.995.193-4.79,1.922-7.713,1.554.221,2.823-.414,4.523.294C426.739,452.347,429.46,455.3,428.182,459.555Z" transform="translate(-338.883 -350.156)" fill="#d6d6d6" fill-rule="evenodd"/>
          <path id="Path_184" data-name="Path 184" d="M421.823,458.152c-3.6-.257-5.213-1.719-6.353-4.579C418.817,443.524,430.953,453.224,421.823,458.152Z" transform="translate(-365.346 -344.717)" fill="#d6d6d6" fill-rule="evenodd"/>
          <path id="Path_185" data-name="Path 185" d="M425.868,452.215c-3.788.157-10.821-4.606-6.326-9.892C425.721,439.7,428.856,449.154,425.868,452.215Z" transform="translate(-343.878 -404.7)" fill="#d6d6d6" fill-rule="evenodd"/>
          <path id="Path_186" data-name="Path 186" d="M415.478,452.238c.322-4.34,4.184-8.67,7.254-9C429.37,448,419.992,456.173,415.478,452.238Z" transform="translate(-365.28 -393.487)" fill="#d6d6d6" fill-rule="evenodd"/>
          <path id="Path_187" data-name="Path 187" d="M412.557,453.313c.11-1.949,1.535-4.33,2.721-6.638C426.43,446.114,420.767,462.194,412.557,453.313Z" transform="translate(-389.214 -365.436)" fill="#d6d6d6" fill-rule="evenodd"/>
          <path id="Path_188" data-name="Path 188" d="M417.753,453.03c-2.041-1.407-2.455-3.328-3.429-5.075C419.554,434.762,428.859,452.6,417.753,453.03Z" transform="translate(-374.744 -394.601)" fill="#d6d6d6" fill-rule="evenodd"/>
          <path id="Path_189" data-name="Path 189" d="M419.2,449.062c-6.674-.505-6.978-8.081-2.335-11.2C423.08,437.23,424.4,444.631,419.2,449.062Z" transform="translate(-379.594 -437.826)" fill="#d6d6d6" fill-rule="evenodd"/>
          <path id="Path_190" data-name="Path 190" d="M418.743,446.376c-.451,5.13-2.85,6.178-5.894,5.038C403.72,447.957,419.671,435.913,418.743,446.376Z" transform="translate(-410.018 -402.041)" fill="#d6d6d6" fill-rule="evenodd"/>
        </g>
        <g id="Group_300" data-name="Group 300" transform="translate(229.97 36.575)">
          <path id="Path_191" data-name="Path 191" d="M387.022,407.648c-2.105,1.756-3.163,4.781-4.054,7.355,8.568-4.468,15.951-4.376,23.26-4.008.671,1.195,1.5,2.648.248,3.512-.616.423-1.885.294-2.988.717a41.547,41.547,0,0,0-6.528,3.567c3.76,1.361,9.12,2.087,12.733,6.1,1.49,3.347,3.209,6.6.423,9.157-1.112-1.839-.23-3.448-1.5-5.645-3.457-6.031-11.842-5.525-17.018-6.73-3.337-4.211,3.972-4.432,6.675-7.318-5.9-1.5-12.632,3.024-19.151,6.555-4.119-2.068,1.719-6.05,1.4-9.184-9.111,5.314-20.392,13.285-21.182,22.644-.69.791-1.14.671-2.142,1.26-.653-.441-1.416-.441-1.986-1.186.781-2.758,2.372-5.3,3.384-8,5.277-8.32,17.542-14.811,25.706-21.642.4.359.919.239,1.425.2C386.424,405.708,387.233,406.775,387.022,407.648Z" transform="translate(-307.036 -404.807)" fill="#d6d6d6" fill-rule="evenodd"/>
          <path id="Path_192" data-name="Path 192" d="M389.725,410.635c.588-3.448,3.916-3.144,6.472-2.767,2.437,1.793.966,4.845,3.144,7.566a5.637,5.637,0,0,0,3.126-.009c7.079,2.74,15.262,1.251,23.656-1.1.248.938.855.515,1.186,1.131-4.339,5.884-13.018,3.732-18.626,5.2a6,6,0,0,0-3.981-.533c1.839,2.639,4.174,3.393,5.976,6.16,4.808-4.257,10.821-4.192,15.335-3.263,1.048-3.08,1.526-6.3,3.825-9.047,1.581-.386,2.776-1.554,4.505-2.133,6.721-2.2,17.008-.46,21.339,3.4a13.01,13.01,0,0,1,3.613,14.609c5.194-.551,11.63,1.554,13.727,7.346,2.905,8.017-7.4,19.188-15.5,14.076a27.65,27.65,0,0,0-.653,3.788c.91.009,1.968-.845,3.062-1.02,2.491-.386,8.293,1.232,10.518,3.227,2.648,2.362,2.528,4.716,2.216,7.327-.607,5.02-2.326,9.727-8.78,13.524,9.074,5.36,6.38,19.877-3.42,23.969,2.105,1.1,5.167,2.942,5.424,7,.018.34-.423.7-.441,1.039-.019.809.588,1.691.561,2.289a22.16,22.16,0,0,1-.772,4.9c-3.227,9.957-17.891,6.564-21.1-4.33-8.293,2.271-16.163-2.473-18.36-11.676-6.325,2.142-14.122.386-15.28-7.75a3.533,3.533,0,0,0-1.213,1.5c-7.263,2.869-15.611-.579-18.958-8.715-2.17-5.213.359-9.414,4.432-13.331-5.057-1.894-11.409-9.4-11.483-15.988-4.459,4.5-7.952,7.484-10.858,12.659A28.854,28.854,0,0,0,370,477.116c-.165,1.14.386,2.289-.1,2.933-.726.928-2.418.845-3.521.239-2.124-6.215-5.287-12.164-5.985-18.176-.4-3.429.9-6.454.671-9.543-3.052,1.977-6.583,5.912-10.131,5.434-.662-1,.018-1.315-.956-2.05,4.836-7.309,5.075-15.8,12.108-22.534-2.6-.45-6.849,1.968-9.9,1.379-.726-.846-.5-1.453-.754-2.17C358.7,421.548,377.111,412.345,389.725,410.635ZM374.886,418.3c-6.822,2.951-14.885,7.033-18.231,12.549,3.273-.073,10.876-3.751,10.1,1.637-6.666,5.948-9.47,12.908-11.465,20.07,3.77-1.452,6.114-5.2,9.994-6.132.588.7,1.269,1.029,1.756,2.105q-7.309,10.77.312,25.43c2.841-7,7.208-14.8,16.172-19.178-.258-3.742,1.112-7.061,2.519-10.371-1.232.671-1.572,2.436-2.951,2.519-1.232-3.77,4.055-8.67,8.789-10.389,4.2-3.3,5.287-8.385,5.875-13.119-1.462-3.2-1.14-5.287-3.677-8.036a30.734,30.734,0,0,0-8.587,8.964c-5.452,9.249-8.274,20.015-13.276,28.979-1.278,1.26-.459,3.07-2.243,4.183-.276-.221-.579-.313-.846-.542,2.51-7.281,5.268-14.637,8.311-21.872,3.006-7.144,6.243-14.949,13.055-20.484C386.286,413.338,380.55,415.857,374.886,418.3Zm16.972-4.487c.331-.248.551-.027.882-.257l-.45-.772C391.785,413.035,391.849,413.44,391.858,413.816ZM398.2,434.4c2.97-.441,5.608.368,8.339.846-.166-2.731,1.756-4.928,2.418-7.438-2.666-1.544-5.13-3.908-7.75-5.636C401.171,426.5,399.14,430.31,398.2,434.4Zm11.658,9.607c-5.507-8.927-14.618-7.382-23.334-.137.736.947,2.17-.773,2.933.11.616,1.885-1.379,3.236-1.977,5.075-.993,3.061-1.379,8.109-.331,11.437,1.4,4.468,5.838,8.716,9.644,9.755,9.58.754,14.278-9.038,15.1-15.675-.634-1.039-.5-1.875-1.2-2.942.8-.285.634-.828,1.434-1.113A20.732,20.732,0,0,0,409.86,444.009Zm40.7-9.028c.147-2.087,1.922-1.977,3.31-3.245,3.273-3.015,3.806-8.21,2.069-11.152-3.641-6.141-16.007-7.888-21.753-4.992-4.11,2.078-3.742,5.636-4.054,8.661,4.266,2.869,9.47,7.521,9.892,13.267C443.619,436.351,446.709,437.123,450.561,434.981Zm-14.912-.9a16.943,16.943,0,0,0-6.932-6.9c-1.306-.634-3.089-.57-4.4-.809-1.9-.349-2.565-.782-4.661-.4-4.027.745-6.013,2.087-8.743,5.14-.864,2.519-.708,5.3-.772,8.035a17.249,17.249,0,0,1,5.093,13.993C425.4,456.862,441.008,444.689,435.648,434.08Zm12.669,5.094c-2.97,1.848-9.175-1.581-8.376,3.1,4.937-3.153,8.422-.744,12.485-.552-.12-1.342.607-2.473.037-3.935C450.579,438.7,449.963,441.232,448.317,439.173Zm-34.072,20.291c.919-.855,2.758-1.481,2.96-2.519-.984.4-1.7-.2-2.547-.331C414.815,457.634,414.218,458.48,414.245,459.464ZM457.3,437.555c-4.56,4.652,2.133,14.682,8.32,11.051,2.749-2.933,5.82-6.8,4.34-10.389-2.39-5.82-9.369-5.323-14.765-3.346C455.3,435.79,456.656,436.691,457.3,437.555Zm-18.139,9.616c-1.278,1.72-3.9,4.377-4.652,5.866-1.158,2.308-.919,4.634-1.26,6.758,1.379,7.9,9.019,7.116,14.738,2.832,6.794-5.084,8.789-18.25-1.112-17.9a7.624,7.624,0,0,1,1.637,10.8c-.2-.257-.506-.147-.726-.359a7.321,7.321,0,0,0-3.668-8.035c-.5-.837.542-1.287.046-2.123C442.176,445.222,439.9,446.179,439.16,447.171Zm-9.782,9.148a2.421,2.421,0,0,0,.257-2.243c-.828.634-1.416.367-2.252,1.066C427.99,455.759,428.771,455.694,429.378,456.319Zm-2.841,2.712c-4.992-1.066-10.325,2.887-14.517,6.445-.469.589.027,1.434-.671,1.968A8.074,8.074,0,0,0,410.6,478.6c2.85,3.282,8.137,2.6,12.549.469-.156-.929-.864-1.986-.285-2.712,1.508-.717,2.915-1.066,3.705.956C433,474.064,433.846,460.613,426.537,459.032Zm-33.355,21.955c.469,1.131.156,1.591.092,2.823,1.94,3.779,6.665,6.684,10.38,5.663.322-.083.773-.837,1.443-1.1,1-.4,1.719.037,2.28-.561,1.637-1.765-.6-6.132-3.245-7.759-.331-.745.119-1.278-.147-2-1.122-1.2-2.823-.092-3.916-1.361-.414-1.03,1.278-1.526,1.747-2.335C398.082,473.208,393.964,477.75,393.182,480.986Zm9.028-6.868a4.869,4.869,0,0,0,3.043.3c.294-.7.754-1.342-.046-2.317C403.405,472.041,403.6,474.018,402.21,474.119ZM434.7,470.7c.818.055,2.013-.929,1.912-1.637-.6.166-.938-.653-1.545-.4C434.959,469.347,434.324,469.889,434.7,470.7Zm-23.444,20.585c.248-2.565,2.869-4.524,4.073-6.849a3.743,3.743,0,0,0-2.97-.6c1.03,4.192-4.045,8.3-7.851,9.313C406.55,493.343,409.161,491.329,411.257,491.284Zm43.965-29.246c-1.9,3.4-4.431,8.56-.919,11.777,3.034,2.786,10.067,1.774,12.963-2.391a17.639,17.639,0,0,0,2.28-8.136c-.165-4.992-7.557-6.077-11.161-5.2C459.2,459.886,456.794,460.861,455.222,462.038Zm-6.454,7.7a6.356,6.356,0,0,0,.818-4.395c-1.811.892-3.429,2.087-5.553,3.006C445.6,468.887,447.426,468.4,448.768,469.743Zm.579,5.415c-2.188-4-8.955-3.816-12.513-1.269-3.862,2.758-3.632,11.5-.322,14.572,2.381,2.207,7.235,1.462,10.683-1.838C448.455,483.036,451.563,479.23,449.347,475.158ZM427.19,480.61a10.526,10.526,0,0,0,3.659,1.765c-.285-1.554.166-2.915,0-4.441A42.276,42.276,0,0,1,427.19,480.61Zm.055,15.648c1.967-2.161,3.641-8.449,1.37-11.005-1.36-1.536-4.8-1.388-6.794-.441-.543.257-1.048,1.131-1.912,1.636-1,.6-2.252.607-2.942,1.214-4.79,4.192-2.786,12.485,4.882,10.977-1.352-2.17-4.974-5.746-2.105-7.126,3.972-1.9,2,6.261,5.084,6.417A18.293,18.293,0,0,0,427.245,496.258Zm26.267-16.227a5.721,5.721,0,0,0,2.105-1.756,2.079,2.079,0,0,0-2.087-.873C453.971,478.394,453.163,479.065,453.512,480.03Zm-21.026,13.138c1.857-1.03,3,.717,4.827-.221-1.361-1.085-2.832-1.756-4.22-2.749C433.433,491.329,432,492,432.486,493.168Zm18.608,1.875a7.147,7.147,0,0,0,7.07,4.468c8.063-1.012,11.216-16.549,3.181-18.6-1.995-.515-4.156.542-5.728,1.8C451.636,485.9,449.338,490.713,451.094,495.044Zm-4.928,10.738a5.774,5.774,0,0,1,.5-3.172c-1.324-4.146-4.294-5.36-7.291-6.169l-1.361.8c-1.931-1.627-5.875,1.076-7.778,1.443C426.592,507.548,442.479,515.61,446.166,505.782Zm3.549-2.869c1.241-.551,2.271-.312,3.484-.745-3.255-1.747-6.279-6.7-6.592-10.757-1.673.68-2.795,1.021-4.726,1.729C445.421,494.354,449.706,498.437,449.715,502.914ZM461.17,518.4c1.379-1.6,2.2-8.082.892-10.472-1.177-2.188-4.312-2.887-6.537-2.675a21.359,21.359,0,0,0-5.654,1.489c-1.517,1.067-2.464,4.477-2.105,6.2,1.1,5.3,6.537,6.748,10.6,7.364C459.12,519.4,460.306,519.389,461.17,518.4Z" transform="translate(-349.971 -381.528)" fill="#d6d6d6" fill-rule="evenodd"/>
          <path id="Path_193" data-name="Path 193" d="M390.251,409.934c-1.067,1.02-2.74-.175-4.055-.221-7.521,1.324-16.494-.681-24.336,3.061-2.271,1.085-3.172,3.108-5.387,2.381-1.37-4.11,5.6-5.82,8.44-6.528,4.588-1.149,7.392-1.2,12.338-1.241,3.052-.018,6.3-.331,8.7.11C387.5,407.8,389.46,408.518,390.251,409.934Z" transform="translate(-298.147 -384.687)" fill="#d6d6d6" fill-rule="evenodd"/>
          <path id="Path_194" data-name="Path 194" d="M368.494,420.669c-4.3-.1-7.125-5.3-9.46-9.865a2.456,2.456,0,0,1,2.491-1.986c.239.349.515.579.846.551.671,1.664.984,3.576,2.078,5.314C365.874,416.937,368.623,418.582,368.494,420.669Z" transform="translate(-275.711 -372.034)" fill="#d6d6d6" fill-rule="evenodd"/>
          <path id="Path_195" data-name="Path 195" d="M359.777,412.761c-1.177,3.264-3.071,6.335-1.517,10.306.423.68,1.232-.138,1.646.589.533.8.028,1.324.147,2.013a5.354,5.354,0,0,1-2.951,1.213c-2.721-2.289-3.071-5.58-2.63-8.909C354.9,414.719,357.479,409.442,359.777,412.761Z" transform="translate(-314.397 -348.285)" fill="#d6d6d6" fill-rule="evenodd"/>
          <path id="Path_196" data-name="Path 196" d="M359.369,410.2c2.133.919.965,2.391,1.094,4.064.221,3.1,2.712,6.077,3.705,8.541-.874,1.186-2.28.276-3.328.128C358.836,419.9,354.6,411.422,359.369,410.2Z" transform="translate(-290.866 -360.626)" fill="#d6d6d6" fill-rule="evenodd"/>
          <path id="Path_197" data-name="Path 197" d="M358.65,415.156a6.948,6.948,0,0,1-.864-2.363C360.949,409.18,363.357,415.873,358.65,415.156Z" transform="translate(-285.936 -348.198)" fill="#d6d6d6" fill-rule="evenodd"/>
          <path id="Path_198" data-name="Path 198" d="M357.148,413.42a3.133,3.133,0,0,1,1.913,2.8C356.624,419.47,352.533,415.029,357.148,413.42Z" transform="translate(-308.347 -334.234)" fill="#d6d6d6" fill-rule="evenodd"/>
          <path id="Path_199" data-name="Path 199" d="M365.153,410.654c2.859,3.043,1.011,6.16.5,8.863a.972.972,0,0,0-1,.064c-1.168-1.306.23-2.5-.046-3.632-.331-1.333-1.682-1.793-2.556-3.466C362.826,411.416,363.8,410.359,365.153,410.654Z" transform="translate(-251.039 -357.311)" fill="#d6d6d6" fill-rule="evenodd"/>
          <path id="Path_200" data-name="Path 200" d="M359.674,413.938c.257.055.432.469.726.359,1.168,1.618.193,2.676-.34,3.852.625,3.742,4.523,1.968,5.286,5C360.244,427.986,352.807,416.31,359.674,413.938Z" transform="translate(-293.176 -329.989)" fill="#d6d6d6" fill-rule="evenodd"/>
          <path id="Path_201" data-name="Path 201" d="M364.306,413.265c.469.359,1.112.579,1.49,1.2a9.724,9.724,0,0,1,.974,3.87c-.055.561-.588.69-.827,1.269-.644,1.545-.074,4.726-2.133,4.394-.359-2.887,1.692-6.389-1.655-8.173A1.977,1.977,0,0,1,364.306,413.265Z" transform="translate(-251.066 -335.614)" fill="#d6d6d6" fill-rule="evenodd"/>
          <path id="Path_202" data-name="Path 202" d="M361.08,414.85c4.91,3.218,3.245,9.626,1.2,13.147-.993-2.914.938-7.309-2.455-10.849A2.579,2.579,0,0,1,361.08,414.85Z" transform="translate(-269.27 -322.517)" fill="#d6d6d6" fill-rule="evenodd"/>
          <path id="Path_203" data-name="Path 203" d="M361.512,418.112c-.239,2.418,1.83,3.861,3.586,5.213.515.533,1.471-.616,1.848.478.533.524-.487.644-.129,1.122-1.627,1.241-5.847-.257-7.355-2.73-.69-1.131-1.6-3.88.689-4.588C360.556,417.974,361.107,417.744,361.512,418.112Z" transform="translate(-278.547 -299.934)" fill="#d6d6d6" fill-rule="evenodd"/>
          <path id="Path_204" data-name="Path 204" d="M364.533,416.322c1.812,3.668,1.812,7.7-.542,9.736-1-2.731-.073-4.955-2.059-7.943A2.052,2.052,0,0,1,364.533,416.322Z" transform="translate(-251.973 -311.366)" fill="#d6d6d6" fill-rule="evenodd"/>
          <path id="Path_205" data-name="Path 205" d="M363.254,418.651c.653,2.179.938,3.53,2.822,4.348.947-.359,1.572-.91,2.593-.478.607.662-.074.975.092,1.517C364.643,428.406,356.846,419.322,363.254,418.651Z" transform="translate(-261.093 -291.372)" fill="#d6d6d6" fill-rule="evenodd"/>
        </g>
        <g id="Group_301" data-name="Group 301" transform="matrix(-0.891, -0.454, 0.454, -0.891, 308.193, 520.893)">
          <path id="Path_206" data-name="Path 206" d="M359.331,436.059c.634,6.886-12.412,9.9-10.72,0C351.093,434.064,357.023,433.475,359.331,436.059Z" transform="translate(-275.681 -434.335)" fill="#d6d6d6" fill-rule="evenodd"/>
          <path id="Path_207" data-name="Path 207" d="M352.173,436.866c-.009,3.172-1.066,5.277-2.97,6.555C337.343,443.761,345.149,428.563,352.173,436.866Z" transform="translate(-319.769 -433.946)" fill="#d6d6d6" fill-rule="evenodd"/>
          <path id="Path_208" data-name="Path 208" d="M352.193,441.407c-1.287-10.067,10.444-6.978,9.534-1.186C361.083,444.276,354.951,444.9,352.193,441.407Z" transform="translate(-245.899 -430.149)" fill="#d6d6d6" fill-rule="evenodd"/>
          <path id="Path_209" data-name="Path 209" d="M365.272,435.415c.873,1.913,2.05,3.512,1.793,6.537-2.317.874-4.036,2.317-7.741,1.8C354.249,440.518,359.425,432.694,365.272,435.415Z" transform="translate(-203.566 -430.106)" fill="#d6d6d6" fill-rule="evenodd"/>
          <path id="Path_210" data-name="Path 210" d="M346.192,443.422c-1.4-7.1,4.854-8.863,7.741-6.565C357.923,440.038,351.24,448.018,346.192,443.422Z" transform="translate(-295.906 -421.434)" fill="#d6d6d6" fill-rule="evenodd"/>
          <path id="Path_211" data-name="Path 211" d="M350.312,443.961c-2.353,1.131-2.749,2.63-5.369,2.372C331.29,445.036,354.127,426.961,350.312,443.961Z" transform="translate(-340.544 -414.82)" fill="#d6d6d6" fill-rule="evenodd"/>
          <path id="Path_212" data-name="Path 212" d="M365.4,445.078c-4.689,1.48-9.185-.708-9.534-5.36C359.12,435.36,368.654,438,365.4,445.078Z" transform="translate(-215.002 -407.599)" fill="#d6d6d6" fill-rule="evenodd"/>
          <path id="Path_213" data-name="Path 213" d="M361.9,440.833c.524,7.051-11.667,8.44-10.72,0C354.021,436.677,358.425,438.663,361.9,440.833Z" transform="translate(-253.822 -400.982)" fill="#d6d6d6" fill-rule="evenodd"/>
          <path id="Path_214" data-name="Path 214" d="M353.332,440.391c-.386,2.887.782,4.229,0,5.967-1.931,1.416-6.509,1.784-8.348,0,.083-.69-.147-1.057-.6-1.2C343.209,438.948,349.838,436.861,353.332,440.391Z" transform="translate(-310.189 -398.747)" fill="#d6d6d6" fill-rule="evenodd"/>
          <path id="Path_215" data-name="Path 215" d="M354.3,448.26c-14.535-.69.5-15.345,3-5.958C358.139,445.492,356.015,446.4,354.3,448.26Z" transform="translate(-279.003 -394.692)" fill="#d6d6d6" fill-rule="evenodd"/>
          <path id="Path_216" data-name="Path 216" d="M361.3,443.5a10.355,10.355,0,0,1-2.381,7.75c-3.3.322-5.856-.11-6.555-2.39C352.585,444.416,357.108,440.325,361.3,443.5Z" transform="translate(-243.688 -368.48)" fill="#d6d6d6" fill-rule="evenodd"/>
          <path id="Path_217" data-name="Path 217" d="M352.9,452.082c-4.781.588-7.714-2.9-7.153-5.967C347.174,438.42,359.972,444.865,352.9,452.082Z" transform="translate(-298.452 -366.335)" fill="#d6d6d6" fill-rule="evenodd"/>
          <path id="Path_218" data-name="Path 218" d="M355.388,454.093c1.315-3.236-.68-4.772-1.793-7.153C359.553,435.061,371.716,462.588,355.388,454.093Z" transform="translate(-233.602 -355.833)" fill="#d6d6d6" fill-rule="evenodd"/>
          <path id="Path_219" data-name="Path 219" d="M352.348,455.165c-3.751.892-7.668-1.582-7.135-5.369C346.253,442.45,358.563,448.665,352.348,455.165Z" transform="translate(-302.678 -334.859)" fill="#d6d6d6" fill-rule="evenodd"/>
          <path id="Path_220" data-name="Path 220" d="M356.3,454.552c-4.634.184-6.9.2-7.76-2.372C345.755,443.731,363.95,446.121,356.3,454.552Z" transform="translate(-277.413 -331.276)" fill="#d6d6d6" fill-rule="evenodd"/>
          <path id="Path_221" data-name="Path 221" d="M359.537,447.16c1.986,2.878.129,5.893,1.195,9.543-1.25,1.949-4.358,1.995-7.75,1.783-.506-1.48-1.637-2.326-1.784-4.165C353.763,451.711,355.161,447.951,359.537,447.16Z" transform="translate(-253.243 -329.245)" fill="#d6d6d6" fill-rule="evenodd"/>
          <path id="Path_222" data-name="Path 222" d="M361.085,451.36c1.407,3.338.827,5.443-1.2,7.741C349.409,460.683,352.553,445.458,361.085,451.36Z" transform="translate(-236.311 -306.029)" fill="#d6d6d6" fill-rule="evenodd"/>
          <path id="Path_223" data-name="Path 223" d="M353.379,451.053c1.866,3.31.809,11.731-5.948,10.132C342.3,456.864,349.306,449.785,353.379,451.053Z" transform="translate(-298.928 -298.569)" fill="#d6d6d6" fill-rule="evenodd"/>
          <path id="Path_224" data-name="Path 224" d="M359.211,459.426c-4.018,1.683-9.626.2-11.317-2.381C349.134,448.972,360.663,453.625,359.211,459.426Z" transform="translate(-280.323 -283.7)" fill="#d6d6d6" fill-rule="evenodd"/>
          <path id="Path_225" data-name="Path 225" d="M360.659,461.412c-1.793.791-4.56.607-7.153.589C347.944,452.31,364.842,450.076,360.659,461.412Z" transform="translate(-243.636 -274.956)" fill="#d6d6d6" fill-rule="evenodd"/>
          <path id="Path_226" data-name="Path 226" d="M358.094,456.913c-.331,2.464-1.857,3.7-2.97,5.36C340.984,463.588,352.669,447.213,358.094,456.913Z" transform="translate(-276.237 -274.631)" fill="#d6d6d6" fill-rule="evenodd"/>
          <path id="Path_227" data-name="Path 227" d="M353.862,457.5c2.574,6.178-4.036,9.893-8.927,7.162C341.561,459.413,347.555,454.88,353.862,457.5Z" transform="translate(-312.531 -250.791)" fill="#d6d6d6" fill-rule="evenodd"/>
          <path id="Path_228" data-name="Path 228" d="M352.362,458.908c4.772-1.922,6.794-.257,7.162,2.969C360.582,471.586,342.617,462.824,352.362,458.908Z" transform="translate(-267.526 -239.677)" fill="#d6d6d6" fill-rule="evenodd"/>
        </g>
        <g id="Group_302" data-name="Group 302" transform="translate(102.309 264.786)">
          <path id="Path_229" data-name="Path 229" d="M340.234,440.873c.147,2.455-4.91,3.779-4.652-.258C337.071,439.292,339.36,439.173,340.234,440.873Z" transform="translate(-251.55 -419.105)" fill="#d6d6d6" fill-rule="evenodd"/>
          <path id="Path_230" data-name="Path 230" d="M340.521,439.592c1.6,2.694.3,6.224-3.126,5.572C336.9,442.387,336.935,438.875,340.521,439.592Z" transform="translate(-238.469 -420.021)" fill="#d6d6d6" fill-rule="evenodd"/>
          <path id="Path_231" data-name="Path 231" d="M339.007,440.442a5.905,5.905,0,0,1,2.9.616c.487,1.168-.138,1.609.257,2.712-1.131.855-3.107.974-3.714-.138C337.793,442.015,339.356,441.858,339.007,440.442Z" transform="translate(-229.324 -412.339)" fill="#d6d6d6" fill-rule="evenodd"/>
          <path id="Path_232" data-name="Path 232" d="M338.11,441.18c.588.009.873.478,1.59.285,1.011,2.5-1.526,5.636-3.494,3.8C336.271,443.534,337.752,442.716,338.11,441.18Z" transform="translate(-246.346 -406.237)" fill="#d6d6d6" fill-rule="evenodd"/>
          <path id="Path_233" data-name="Path 233" d="M335.037,442.39c2.592-2.574,5.277,1.8,2.8,3.1C335.809,446.555,333.29,444.128,335.037,442.39Z" transform="translate(-260.741 -402.85)" fill="#d6d6d6" fill-rule="evenodd"/>
          <path id="Path_234" data-name="Path 234" d="M338.6,445.979a6.772,6.772,0,0,1-1.14-2.528C339.827,438.781,344.746,445.584,338.6,445.979Z" transform="translate(-236.121 -400.996)" fill="#d6d6d6" fill-rule="evenodd"/>
          <path id="Path_235" data-name="Path 235" d="M339.5,442.527c2.059,2.391-2.344,4.569-4.505,3.393C334.887,443.87,337.158,442.142,339.5,442.527Z" transform="translate(-256.289 -395.641)" fill="#d6d6d6" fill-rule="evenodd"/>
          <path id="Path_236" data-name="Path 236" d="M342.5,442.9c.644,2.032-.6,2.823-2.032,3.494C336.725,445.165,339.438,440.192,342.5,442.9Z" transform="translate(-226.344 -398.647)" fill="#d6d6d6" fill-rule="evenodd"/>
          <path id="Path_237" data-name="Path 237" d="M334.865,444.711c.147.524-.23.7-.046,1.242-.607.717-2.464.892-3.006.322C331.059,443.709,333.725,442.9,334.865,444.711Z" transform="translate(-283.434 -385.313)" fill="#d6d6d6" fill-rule="evenodd"/>
          <path id="Path_238" data-name="Path 238" d="M337.607,444.242c.009,1.618-1.039,2.537-2.74,3.044a3.625,3.625,0,0,1-1.673-2.115C334.123,444.334,336.578,442.836,337.607,444.242Z" transform="translate(-271.034 -385.882)" fill="#d6d6d6" fill-rule="evenodd"/>
          <path id="Path_239" data-name="Path 239" d="M339.461,443.523c1.2,1.94.313,3.861-2.188,4.146C334.717,446.539,336.657,442.659,339.461,443.523Z" transform="translate(-247.385 -388.059)" fill="#d6d6d6" fill-rule="evenodd"/>
          <path id="Path_240" data-name="Path 240" d="M336.823,447.261c-2.234,1.729-6.353,1.719-7.024-1.278C331.527,444.678,335.251,445.854,336.823,447.261Z" transform="translate(-298.852 -371.515)" fill="#d6d6d6" fill-rule="evenodd"/>
          <path id="Path_241" data-name="Path 241" d="M335.249,445.995c-.313,1.324-.809,2.519-2.813,2.74C329.411,446.877,333.272,443.494,335.249,445.995Z" transform="translate(-286.402 -374.065)" fill="#d6d6d6" fill-rule="evenodd"/>
          <path id="Path_242" data-name="Path 242" d="M337.135,445.148c.846,2.556-2.234,4.487-3.751,2.63C332.63,445.654,335.646,444.229,337.135,445.148Z" transform="translate(-270.452 -376.05)" fill="#d6d6d6" fill-rule="evenodd"/>
          <path id="Path_243" data-name="Path 243" d="M339.316,445.747c.055,1.627-2.069,2.657-3.806,2.335a.81.81,0,0,0-.781-.754C333.919,445.048,338.562,444.056,339.316,445.747Z" transform="translate(-259.237 -375.775)" fill="#d6d6d6" fill-rule="evenodd"/>
          <path id="Path_244" data-name="Path 244" d="M337.779,447.073c-.248,2.344-4.652,3.227-6.344,1.949C329.946,444.738,336.372,445.786,337.779,447.073Z" transform="translate(-287.268 -367.2)" fill="#d6d6d6" fill-rule="evenodd"/>
          <path id="Path_245" data-name="Path 245" d="M338.639,446.563c.956,3.181-4.8,4.5-6.224,2.537C332,445.6,336.166,447,338.639,446.563Z" transform="translate(-277.647 -362.129)" fill="#d6d6d6" fill-rule="evenodd"/>
          <path id="Path_246" data-name="Path 246" d="M459.008,496.926c5.378,4.045,2.381,12.09-2.1,14.885,1.591,2.979-.837,5.3-1.452,7.677,2.133,3.806-1.655,7.576-1.894,11.455-19.362,15.317-43.781,26.4-69.22,37.6-.561-.561-1.691-.257-2.069-1.1A2.96,2.96,0,0,1,384.005,564a6.293,6.293,0,0,1-2.749-4.33c-3.273,1.866.12,6.482-3.871,7.879-2.722.956-9.58-2.078-12.467-2.3-3.659-.267-8.017-1.039-5.718-5.25,3.871.671,7.143,2.289,11.529,2.188-3.834-1.526-8.468-5-15.244-2.335-6.969-2.675-1.967-9.488-5.3-16.392-1.71-3.567-8.228-4.238-10.8-7.566-1.012-1.306-.138-2.869-2.28-3.512-2.353,2.684,1.14,5.433,2.9,6.463-.2,1.306-1.048,3.531.11,4.891,1.094-.138.065-1.655.451-2.243,1.149-.009,1.333-.653,2.289-.8,2.63,2.216,5.112,3.4,5.682,8.026-.469,1.646-2.445,2.3-1.066,5.149-4.165.414-5.765-3.411-9.461-2.629a8.78,8.78,0,0,1-.984-3.172c-1.3-2.372-4.11-2.951-4.891-5.728-.432-1.553.791-3.1.837-4.79a27.807,27.807,0,0,0-1.076-8.063c-1.508-4.2-5.084-6.243-5.415-11.152-.138-1.959-.064-5.112,1.581-7.088,2.611-3.144,7.162-3.108,6.813-8.5,12.264-10.61,25.044-20.888,36.959-31.737a12.727,12.727,0,0,0-10.977-1.076c1.02,6.1-.34,7.594-3.558,10.885-3.439,3.54-10.086,3.209-11.244,7.9a3.234,3.234,0,0,1-.193,3.429c-2.418.974-2.308-1.921-3.861-2.271-1.83-9.874,12.485-7.723,14.719-14.765.046-1.793-1.314-2.951-1.1-3.761.8-5.948,6.776-6.767,12.623-5.728,1.7.294,3.19,1.4,4.56,1.186,2.243-.34,3.631-2.62,5.81-3.062,1.388-.616.368-2.8,2.078-3.2-1.122-8.182,2.611-13.193,7.024-17.762,8.468-4.358,15.7-6.215,24.134-5.075a25.38,25.38,0,0,1,3.54.791c6.647,2.188,14.177,5.13,19.022,8.6,6.39,1.554,11.584,7.3,16.521,12.816.634.717,1.7,1.113,2.253,1.986a75.184,75.184,0,0,1,4.395,9.212,54.739,54.739,0,0,1,2.648,11.125A30.458,30.458,0,0,1,459.008,496.926Zm-112.854.984c-1.848,1.324-5.958,4.156-5.847,5.847.111,1.627,3.108,3.337,4,4.376,4.045,4.744,7.989,10.2,13.11,14.149,1.223.938,2.924,1.5,4.211,2.492,1.342,1.038,2.381,2.418,3.742,3.208,2.721,1.581,6.022,2.336,9.129,3.917,1.756.91,3.411,3.052,5.213,2.9,1.462-.12,4.045-2.142,6.04-3.411,1.9-1.222,3.843-3.052,5.627-3.953,1.067-.542,2.326-.506,3.163-.975s1.462-1.59,2.584-2.381c1.048-.745,2.51-1.214,3.576-1.986,6.5-4.753,13.019-10.2,18.728-14.692,3.08-2.427,4.487-3.475,6.362-6.252.625-.929,1.692-1.765,2.216-2.62.947-1.526,1.1-4.523,2.253-5.388,3.181-2.4,7.9.487,12.43-.773,11.695-3.227,10.168-21.771,3.08-29.218a15.579,15.579,0,0,0-.037-3.061c-6.473-6.574-17.5-12.219-27.223-15.482-3.7-1.241-7.245-2.8-10.463-3.025-12.016-.864-23.711,7.135-23.417,17.211a9.745,9.745,0,0,1,.644,6.013c-7.208,5.286-13.055,11.446-19.408,17.294C359.3,487.355,353.509,492.669,346.154,497.909Zm-6.427,30.854c1.866-3.944-3.291-3.953-4.128-6.509-.984-2.97,2.142-6.849-.763-10.9C325.9,513.667,332.492,529.931,339.728,528.764ZM425.8,508.519c1.315-.156,1.572,1.912,1.738,2.4a45.136,45.136,0,0,1,1.784-4.68c3.19.3,2.455-2.133,5.636-2.409a4.957,4.957,0,0,0,.156-2.188A52.414,52.414,0,0,0,425.8,508.519Zm-64.807,23.453c-.791-5.58-6.629-6.316-9.709-9.635A28.921,28.921,0,0,0,360.993,531.972Zm96.646-31.378c-2.317.947-5.654,3.42-6.022,6.491C455.45,511.626,460.443,504.86,457.639,500.594ZM344.564,528.359c-5.516,8.55,7.5,7.567,9.69,13.938.248.736-.285,1.168-.221,1.894.322,3.815,1.278,6.95,2.354,11.18,5.176-.019,5.636-5.277,11.032-6,2.363.653,4.781,4.487,7.5,2.115C365.664,542.444,355.118,535.392,344.564,528.359Zm73.468-7.152a2.265,2.265,0,0,0,1.931-1.012c-1.875-1.811-1.067-4.717-1.121-6.831C416.092,514.513,418.225,518.494,418.032,521.207Zm35.185-8.008c-.653-2.069-3.724-3.871-5.7-3.715-3.016.239-4.909,3.7-8.228,3.264a52.156,52.156,0,0,1-8.67,5.507c-5.425,2.8-9.8,7.272-14.986,10.527-5.434,3.42-11.115,6.647-16.595,10.251,2.473.965,6.344,2.243,9.341,2.032,6.877-.5,7.539-9.359,11.216-10.968,4.615-2.023,9.846.221,13.313-.956,2.51-.845,3.861-3.944,5.25-5.709,1.177-1.48,1.885-3.264,3.439-4.1C446.845,521.7,455.092,519.165,453.216,513.2Zm-45.133,10.407c1.112.257.984-2.262-.073-1.82A2.568,2.568,0,0,0,408.084,523.606Zm-5.994,2.188c1.775,1.637.129,3.034.818,5.36,1.756-.781,1.066-5.4.469-6.555C403.505,525.362,402.384,525.307,402.089,525.794Zm7.162,1.876a1.454,1.454,0,0,0-1.315-1.876C407.827,526.567,408.056,527.854,409.251,527.67Zm-10.61,6.528a45.763,45.763,0,0,1,.589-5.958c-.386.055-.487-.294-.947-.11C397.723,529.417,397.042,533.186,398.642,534.2ZM377.735,544.43c-.239.763-1.986.561-1.8,1.609.092.377.46.331.478.818.947.028,1.012-.524,1.7-.662-.331-2.188,1.2-3.062,1.306-5.5-2.905-1.379-4.873-4.2-7.9-5.406C372.072,539.144,376.779,539.925,377.735,544.43Zm14.278-6.684c2.841-1.167,1.213-4.22,2.059-6.279C390.983,532,392.73,535.677,392.013,537.746Zm57-13.827c-6.169-1.627-9.58,2.758-11.851,6.482,1.848.055,4.569-1.922,7.061-1.49.193-1.388-.1-3.117,1.379-3.668,1.352-.1,2.032.772,2.565,1.93,2.537-.542,3.209-2.307,3.732-4.165C450.283,523.257,449.971,523.045,449.015,523.919Zm-29.236,12.908c2.335,2.528,2.059,6.059,3.613,8.458,1.554-1.931-1.894-6.951.331-8.679a2.039,2.039,0,0,1,2.418-.2c1.241,1.655-.359,5.121,1.894,6.059,1.269-.469,1.792-.864,2.519-1.149-1.866-3.457-1.728-9.865,2.225-6.923.423,2.013.184,3.282,1.287,4.652,1.306-.175,1.5-1.058,2.464-1.443-.174-2.326-1.314-3.172-1.7-5.176C429.8,533.4,421.056,531.347,419.778,536.827ZM390.137,544.9c3.172.542,1.728,3.686,1.94,6.353l2.657-.561c.138-2.528.083-5.194.211-7.732C393.475,541.58,390.7,543.437,390.137,544.9Zm26.2-3.972c2.069,1.636-.267,6.785,3.549,6.629-.625-2.381-2.473-4.662-2.032-8.183C416.956,538.868,416.248,540.017,416.34,540.927Zm-35.056,10.132c.892,2.464,5.516,2.243,7.5.57.046-1.82-.588-4.1-.294-5.773C385.568,547.262,384.658,549.955,381.284,551.059Zm16.558-1.636a16.656,16.656,0,0,0,6.978-4.845c-1.682-.938-3.972-.929-6.325-.828A17.685,17.685,0,0,0,397.842,549.422ZM410.07,544.7c1.131,1.756,1.949,4.017,3.062,5.81a3.264,3.264,0,0,0,2.225-1.084c-.552-1.885-1.82-3.365-1.471-5.526C412.671,542.876,411.384,544.32,410.07,544.7Zm-.873,7.557c-.211-.717-1.131-3.705-2.17-4.459C405.951,549.523,407.9,551.739,409.2,552.254Zm-28.271,4.413c-.487-1.2-1.7-1.287-3.015-1.214C378.342,556.75,379.252,557.292,380.925,556.667Zm-5,1.048c.368,1.306,3.071,1.149,2.657-.551C377.284,557.1,377.266,557.356,375.924,557.715Zm18.663-3.31c-.662.331-2.207.083-2.289.791C393.355,554.782,394.8,556.2,394.587,554.405ZM401.28,557c.211-1.141-1.857-1.72-1.977-3.577l-.892.184C399.2,554.985,399.671,556.869,401.28,557Z" transform="translate(-326.433 -437.379)" fill="#d6d6d6" fill-rule="evenodd"/>
        </g>
        <g id="Group_303" data-name="Group 303" transform="translate(591.657 287.925)">
          <path id="Path_247" data-name="Path 247" d="M394.606,441.417c3.356.184,8.091-.441,10.444,2.491-1.186,1.3-1.93-.037-3.531-.175-3.144-.276-6.316.689-8.081-.653A6.034,6.034,0,0,1,394.606,441.417Z" transform="translate(-384.781 -392.434)" fill="#d6d6d6" fill-rule="evenodd"/>
          <path id="Path_248" data-name="Path 248" d="M407.162,445.556c-.4.579-2.188-.046-2.262-.68a29.945,29.945,0,0,0-5.884.23c-1.434.3-3.209,1.7-4.808.341-.551-2.528,1.931-2.225,4.808-2.574C400.966,442.632,406.583,442.035,407.162,445.556Z" transform="translate(-379.106 -382.101)" fill="#d6d6d6" fill-rule="evenodd"/>
          <path id="Path_249" data-name="Path 249" d="M396.649,439.072c.837.9,2,1.682,2.777,2.63,1,1.2,2.363,2.786,2.225,4.478-2.032-1.26-4.211-3.917-6.325-5.719C395.426,439.357,396.088,439.311,396.649,439.072Z" transform="translate(-369.319 -411.648)" fill="#d6d6d6" fill-rule="evenodd"/>
          <path id="Path_250" data-name="Path 250" d="M396.132,439.962c4.018.432,8.376,2.271,8.569,5.728-1.968-.533-3.971-2.621-6.665-3.144-1.057-.2-2.344.267-2.869-.864C395.25,440.67,395.8,440.523,396.132,439.962Z" transform="translate(-370.614 -404.356)" fill="#d6d6d6" fill-rule="evenodd"/>
          <path id="Path_251" data-name="Path 251" d="M397.588,439.323c1.784,1.591,1.875,4.248,2.822,6.234.607,1.278,1.875,2.124,1.8,3.677-4.082-1.6-3.705-5.581-5.259-8.541C397.119,440.16,397.23,439.507,397.588,439.323Z" transform="translate(-355.972 -409.591)" fill="#d6d6d6" fill-rule="evenodd"/>
          <path id="Path_252" data-name="Path 252" d="M397.794,440.855c4.67,1.462,7.962,5.149,11.2,8.09,3.338,3.034,6.721,6,9.2,9.507,1.609.515,2.069,1.646,2.795,2.63-9.157-5.351-14.4-12.8-23.885-17.974C396.921,442.418,396.939,441.14,397.794,440.855Z" transform="translate(-355.506 -397.038)" fill="#d6d6d6" fill-rule="evenodd"/>
          <path id="Path_253" data-name="Path 253" d="M407.714,443.455c-.128,1.471-1.48.662-2.427.616-2.758.083-5.222.717-8.183.423-.193-.616-.414-1.222.083-1.765C400.093,441.974,404.46,441.561,407.714,443.455Z" transform="translate(-356.536 -386.877)" fill="#d6d6d6" fill-rule="evenodd"/>
          <path id="Path_254" data-name="Path 254" d="M405.441,444.675c.331.634.772,1.076.589,1.747-.534,1.894-2.17.543-4.395.46-2.032-.073-4.064,1.9-5.25,1.094C394.9,444.749,402.333,443.977,405.441,444.675Z" transform="translate(-362.233 -367.678)" fill="#d6d6d6" fill-rule="evenodd"/>
          <path id="Path_255" data-name="Path 255" d="M398.705,438.466c.156-.248.46-.211.6-.487.68,1.793,5.112,6.123,3.815,8.091C400.949,449.378,399,439.716,398.705,438.466Z" transform="translate(-341.625 -420.612)" fill="#d6d6d6" fill-rule="evenodd"/>
          <path id="Path_256" data-name="Path 256" d="M404.4,445.064c-.055.193.2.23.35.322.285.763-.441,1.784-.745,2.464-2.326-.46-3.733.948-4.855,3.457a1.73,1.73,0,0,1-1.452-1.113C397.9,445.946,401.3,444.962,404.4,445.064Z" transform="translate(-349.867 -362.614)" fill="#d6d6d6" fill-rule="evenodd"/>
          <path id="Path_257" data-name="Path 257" d="M400.994,440.852c1.26.285,1.085,2.105.221,2.979-.248,1.977.221,4.441-.239,5.967C399.072,447.83,398.015,442.829,400.994,440.852Z" transform="translate(-338.112 -397.063)" fill="#d6d6d6" fill-rule="evenodd"/>
          <path id="Path_258" data-name="Path 258" d="M401.109,438.765c1.242,2.418.285,6.022,3.062,7.64C401.045,452.611,398.544,440.962,401.109,438.765Z" transform="translate(-330.624 -414.163)" fill="#d6d6d6" fill-rule="evenodd"/>
          <path id="Path_259" data-name="Path 259" d="M402.19,440.042c1.26.478.735,2.161.983,3.429.322,1.728,1.618,2.887.6,4.661-.221.129-.6-.046-.736.23C400.737,446.781,401.041,442.9,402.19,440.042Z" transform="translate(-320.267 -403.7)" fill="#d6d6d6" fill-rule="evenodd"/>
          <path id="Path_260" data-name="Path 260" d="M401.829,443.089c2.785,1.839,6.27,4.2,6.693,6.73-2.372-1.029-5.2-3.273-7.723-4.8A1.342,1.342,0,0,1,401.829,443.089Z" transform="translate(-325.698 -378.734)" fill="#d6d6d6" fill-rule="evenodd"/>
          <path id="Path_261" data-name="Path 261" d="M407.543,448.684c-2.51-.156-4.606-3.484-6.234-5.259l.368-1.223c1.719-1.26,2.611,1.6,3.751,3.144C406.485,446.79,407.846,447.728,407.543,448.684Z" transform="translate(-320.288 -388.557)" fill="#d6d6d6" fill-rule="evenodd"/>
          <path id="Path_262" data-name="Path 262" d="M400.8,446.579c4.275,4.523,8.155,9.267,15.059,12.384-1.149.956-5.011-.8-6.978-2.105a32.027,32.027,0,0,1-8.8-9.377C400.209,446.956,400.595,446.947,400.8,446.579Z" transform="translate(-330.358 -350.137)" fill="#d6d6d6" fill-rule="evenodd"/>
          <path id="Path_263" data-name="Path 263" d="M402.691,441.755c1.223.524,1.774,1.912,2.721,2.841.772.754,2.721,1.443,1.986,3.061C405.257,446.968,399.464,443.668,402.691,441.755Z" transform="translate(-316.807 -389.664)" fill="#d6d6d6" fill-rule="evenodd"/>
          <path id="Path_264" data-name="Path 264" d="M402.677,445.218c1.793,3.632,4.5,6.758,6.794,10.123a54.594,54.594,0,0,0,6.1,4.983,13.662,13.662,0,0,1,3.273,3.227c-5.259-1.729-10.674-6.886-14.057-11.2C403.137,450.266,399.662,447.305,402.677,445.218Z" transform="translate(-318.824 -361.289)" fill="#d6d6d6" fill-rule="evenodd"/>
          <path id="Path_265" data-name="Path 265" d="M403.847,440.2c2.528.018,3.043,6.3.644,6.013C402.045,445.929,404.269,441.782,403.847,440.2Z" transform="translate(-303.785 -402.397)" fill="#d6d6d6" fill-rule="evenodd"/>
          <path id="Path_266" data-name="Path 266" d="M402.8,445.723c1.673.055,2.8,2.05,4.211,3.08,1.02.735,3.052,1.039,2.786,2.63C406.27,450.173,402.8,448.886,402.8,445.723Z" transform="translate(-308.038 -357.151)" fill="#d6d6d6" fill-rule="evenodd"/>
          <path id="Path_267" data-name="Path 267" d="M405.074,442.294a9.684,9.684,0,0,1,8.394,7.015,41.128,41.128,0,0,0-9.038-5.645C404.485,442.891,404.973,442.965,405.074,442.294Z" transform="translate(-294.715 -385.247)" fill="#d6d6d6" fill-rule="evenodd"/>
          <path id="Path_268" data-name="Path 268" d="M404.712,468.331c.524-1.462-1.168-2.6-1.618-4.284-1.885-7.079.975-16.411,8.275-16.972,1.361-5.783,5.3-9.525,10.4-6.251,1.14-.534,1.811-1.977,2.556-3.264,2.924-2.427,9.065-1.875,11.3,1.857a4.533,4.533,0,0,0,3.558-1.388c2.694-.074,5.406-.552,8.082.662.827.377,1.471,1.361,2.418,1.628,2.142.616,3.889-1.269,5.995-1.315,2.317-.055,5.553,1.563,7.2,2.85,1.4,1.094,1.259,2.455,3.089,3.843a16.324,16.324,0,0,1,16.108,11.823c6.592,2.261,8.918,6.794,10.03,11.979a9.877,9.877,0,0,1,3.954.984c1.434.929,4.68,5.976,5.112,8.256a25.954,25.954,0,0,1-.009,4.477c.828,4.11,7.079,4.992,11.272,7.879,1.959,1.37,3,3.347,5.047,4,5.029,5.443,9.369,11.805,8.3,20.649-.883,7.3-3.484,16.641-8.081,21.5-.506.441-1.315.322-1.8.79-1.673,4.376-3.374,8.688-7.208,9.01-.929,3.006-3.935,3.337-6.169,4.855-1.949,1.315-3.6,4.3-5.6,5.912-.4.331-1.177.322-1.535.653-1.443,1.324-2.731,3.034-4.22,4.321a26.08,26.08,0,0,1-25.789-1.315,35.694,35.694,0,0,1-7.254-7.125c-3.108-4.109-5.948-8.43-10.223-12.044-2.023.8-3.006,2.7-5.424,2.381-3.907-.524-6.289-4.082-7.364-6.7-3.494-.3-6.84-.625-10.858-2.621-4.974-2.464-8.8-5.838-10.371-10.086-9.359-2.482-12.319-10.977-13.082-19.629-.285-3.172-1.636-5.066.018-8.945-5.351-2.73-11.078-7.75-6.849-15.059.441-.763,1.462-1.251,1.83-2.354.9-2.666-2.014-6.8.542-9.9C397.963,467.393,401.7,467.89,404.712,468.331Zm-5.755,2.74c-2.887,2.51,1.067,7.1.524,9.332-.5,2.105-3.42,2.317-3.99,5.066-.809,3.871,2.85,6.758,6.408,8.431a7.69,7.69,0,0,1,2.767-.276c.083.524.892.662.974,1.186-.028,2.1-2.188,2.85-2.712,4.551a5.173,5.173,0,0,0,1.36,5.111c-.092.791-.257,1.627-.276,2.381,1.554,3.613,6.776,6.978,11.879,8.072,2.216.478,3.54-.6,5.424-.156a6.56,6.56,0,0,1,.662,4.459c1.379,2.556,3.071,5.461,5.875,6.482,3.466,1.26,6.27-1.342,9.58-1.352,1.765,1.756,2.161,7.281,6.307,7.281,3.493,0,2.2-6.592,5.8-5.856a12.489,12.489,0,0,1,3.724,2.473,26.319,26.319,0,0,1,3.926,4.771c1.361,1.912,3.125,3.512,4.137,4.827a64.026,64.026,0,0,0,4.146,5.516c1.636,1.719,3.053,3.732,4.689,5.222a25.069,25.069,0,0,0,20.235,6.353c1.968-.846,3.567-4.027,4.735-5.287-.588-.827-.579-1.967-1.425-2.666-5.378,1.71-12.715-3.429-15.905-6.61a53.579,53.579,0,0,1-10.839-16.705c-3.816-4.027-6.252-8.8-11.584-12.016-2.363,1.83-4.542,4.091-7.9,3.2-4.688-1.232-8.89-6.27-8.973-10.325-7.824-1.7-16.08-6.013-14.609-13.828-7.263-5.507-15.574-10.453-17.064-19.04C404.555,471,400.593,469.645,398.956,471.07Zm9.019-4.652c.5-.459.625-1.609,1.232-1.866-.34-.671-.561.294-1.287-.165-.864-1.094-.763-2.694-2.068-3.531C405.438,463.3,406.541,464.948,407.975,466.418Zm2.271-15.657c1.048,1.333-.083,3.825,1.425,4.91a18.5,18.5,0,0,1,1.489-4.919C412.131,450.632,410.715,449.824,410.246,450.761Zm.717,8.725a.891.891,0,0,0-.919-1.4C410.522,458.466,410.495,459.109,410.963,459.486Zm3.126-9.571a33.094,33.094,0,0,1,4.845-1.223c-.1-2.179-2.455-3.153-2.114-5.571C414.889,444.234,414.31,447.985,414.089,449.915Zm-.276,14.232c-.432,1.14-1.333,1.453-1.637,2.418-.818,2.648,1.3,4.891,2.427,6.785,2.436,4.036,5.085,6.592,8.348,10.132a24.894,24.894,0,0,0,2.372,2.51c1.177,1,2.455,1.636,2.85,2.427.726,1.489-.772,3.31-1.434,4.726,1.066,4.183,6.288,8.339,11.556,8.412,1.48.028,2.7-1.02,3.935.3-1.572,5.553,1.719,9.7,7.668,10.15,2.243.074,3.512-4.4,5.572-4.348,1.719.037,2.142,1.618,3.052,2.491,2.179,2.1,4.735,3.972,6.96,6.583,4.321,5.048,7.217,11.364,9.607,16.338,4.054,4.707,11.832,13.919,19.592,9.966a17.429,17.429,0,0,1,1.591-3.779,31.874,31.874,0,0,1,9.167-8.863c1.039-.542,2.813-.45,3.356-1.443.827-1.536-.579-6.261-1.581-8.091a23.76,23.76,0,0,0-12.3-11.115c-5.424-2.087-10.692-3.761-15.234-6.62-4.468-2.832-7.19-6.583-10.5-9.681-1.012-.469-1.526,1.26-2.3.211.671-2.869,3.1-3.264,3.972-5.737.956-2.73-.028-5.948-2.216-6.721-1.885-.662-4.064,1.83-5.609.763-1.434-.984.258-3.815.671-5.167-1.085-3.365-4.174-3.742-7.9-3.5-3.328.211-6.739,3.356-7.787-.128,3.613-8.146-.91-12.541-7.989-14.278-4.1-1.011-8.5-.248-11.464-.561-.791-1.351-.386-2.758-1.673-4.091-2.905-3-9.019-3.493-11.492-1.241C413.069,458.006,414.889,461.288,413.813,464.147ZM425.545,449.8c-.828-1.673-.975-3.714-3.31-4.588C421.748,446.918,424.4,448.389,425.545,449.8Zm-1.131-6.61c2.115,1.5,2.087,4.156,4.349,5.571a11.194,11.194,0,0,0,.873-2.869c-1.315-1.59-2.731-3.117-3.926-4.772A4.006,4.006,0,0,0,424.414,443.185Zm4.045-3.024c.313-.515-.285-.534-.156-.938a1.61,1.61,0,0,0-1.609.855A5.566,5.566,0,0,0,428.459,440.161ZM405.19,512.581c-.092.258-.35.2-.4.551,1.655,2.85,3.98,8.624,8.863,9.176,1.057.12,2.059-1.113,3.448-.3,1.167,1.434.248,2.74.524,4.193.928,4.845,10.527,8.467,15.694,8.78a13.37,13.37,0,0,1,3.227-1.039c1.453.827,1.8,2.243,1.738,3.889a17.79,17.79,0,0,0,3.558,3.761c.855-.221,1.912-.064,2.63-.542.625-.874.846-2.5,1.609-3.1a3.271,3.271,0,0,1,3.935,2.528c3.172,1.729,5.011,4.974,6.767,7.2.561.708,1.407,1.177,2.1,1.977,1.094,1.306,1.765,3.181,2.9,4.459.266.3.68.019,1.03.313.689.6,1.314,1.94,2.1,2.657,3.88,3.5,8.964,5.213,15.473,5.8,3.742-1.14,8.1-1.131,10.582-4.633a30.123,30.123,0,0,1-18.479-4.027,23.675,23.675,0,0,1-3.687-3.356,75.818,75.818,0,0,1-10.886-11.345c-1.471-1.986-2.344-4.459-4.5-5.847-.717-1.508-1.453-3.006-3.834-3.622-.616.781-1.112,1.784-1.691,2.62.441.616.9.147,1.379.644,1.26,3.622,5.25,6.693,6.436,9.782-3.374-2.767-7.254-5.277-8.918-8.964-4.827,3.954-9.782-5.452-11.621-5.985-.79-.23-1.82.533-2.9.689a11.071,11.071,0,0,1-2.914.018c-6.813-1.057-9.093-5.636-10.8-10.885C413.694,517.895,407.957,514.852,405.19,512.581Zm26.074-69.11a1.414,1.414,0,0,0,.515-.965c-1.324-.294-2.262-2.519-3.236-1.866C429.746,441.421,429.939,442.744,431.263,443.471Zm2.032-2.289c.368-1.057-.8-1.3-1.471-1.793C431.686,440.326,432.192,440.905,433.3,441.182Zm-3.172,12.7c.212.055.193.23.35.331,2.721,1.931,6.656,1.2,9.883,2.087,3.531.975,7.805,3.292,9.782,5.425,2.087,2.253,1.875,4.9,1.057,9.056,4.753-.009,12.678-1.232,14.958,3.852.451,1.03-.276,2.2.828,3.163,6.583.662,8.559,8.072,4.707,13.285,1.683,1.894,3.007,4.487,4.643,6.1,3.337,3.319,8.146,5.195,13.092,7.778,11.428,2.3,20.1,10.169,21.882,19.381.478,2.464-.009,5.02,2.16,6.923,1.168-1.848,2-6.289.864-8.026.616-13.726-9.681-21.614-22.341-28.253-1.278-1.443-2.2-2.547-3.494-3.963-.864-.947-3.457-2.648-3.769-3.825-.818-3.1,2.905-2.639,3.4-4.569.643-2.547-3.641-4.624-6.353-4.165-2.023-1.6-.046-3.981-.027-5.829a8.731,8.731,0,0,0-1.545-4.5c-2.694-3.283-5.186-.267-8.5-.782-.8-2.262.671-3.126.469-5.231-.377-3.76-5.351-6.215-9.423-5.093-1.738.478-2.289,1.674-3.586.708-.919-.68-.368-2.391-.359-3.236-.717-3.991-5.8-7.107-10.324-5.811-1.949.322-3.043,3.319-4.928,2.979-2.886-.524-.809-3.154-.873-4.514-.128-2.583-3.107-3.576-4.753-5.02C433.1,441.9,431.806,450.145,430.123,453.878Zm13.1-11.483a6.529,6.529,0,0,0,1.655-1.738c-1.278-.23-2.519-.423-3.245.359C442.121,441.5,442.323,442.138,443.224,442.395Zm8.164,3.365c.386-.837-.414-1.039-.119-1.83-.6-.147-1.306-.515-1.7-.285A1.721,1.721,0,0,0,451.389,445.76Zm1.545-2.887c.726.763.515,2.74,1.59,3.613.644.524,1.921.487,2.814,1.066,2.611,1.738,3.107,5.783,4.927,6.647,1.508.726,3.779-.377,5.286.267.138-1.158-1.535-3.135.442-3.678,1.048,1.729,2.979,2.988,3.125,5.195,3.245,1.591,3.292,4.891,4.413,7.6,6.187-.34,9.607,5.857,9.129,11.281,4.514,2.252,9.083,7.033,4.671,11.924,3.126,6.27,11.566,8.973,17.587,13.616,2.032,1.563,3.218,3.7,5.213,4.937,4.827,7.336,6.9,17.027,4.9,27.443,4.091-5.084,4.992-13.129,5.958-19.684-.974-1.747-.248-3.65-.616-5.333-1.342-5.994-7.336-10.931-12.6-14.563-2.289-1.572-5.075-2.115-7.217-3.531a13.856,13.856,0,0,1-5.663-8.651c.386-.791,1.195-.773,1.443-1.8-.754-2.105-1.673-5.02-4.238-5.985-1.352-.515-2.823.083-4.487-.68-.818-1.462-.506-3.512-.625-5.342-1.591-1.839-2.831-3.861-4.294-5.774-3.42-1.342-8.357,0-6.1-4.983-1.333-3.806-4.358-7.952-9.635-8.072-2-.046-3.577,2.317-5.13.689C463.8,444.813,457.052,439.913,452.933,442.873Zm54.537,89.713c-1.9.6-7.87,6.546-8.78,8.3-1.4,2.694-2.381,7.649.359,8.394a11.7,11.7,0,0,1,4.726-.809c1.784-1.26,3.034-3.549,4.385-5.608.828-.285,1.517.644,2.115.414C514.421,539.151,513.143,530.775,507.471,532.586Z" transform="translate(-392.497 -436.089)" fill="#d6d6d6" fill-rule="evenodd"/>
        </g>
        <g id="Group_304" data-name="Group 304" transform="translate(698.143 50.235)">
          <path id="Path_269" data-name="Path 269" d="M402.945,408.385c2.455,3.439-2.317,5.075-3.42,2.97C398.569,409.544,400.757,408.054,402.945,408.385Z" transform="translate(-347.285 -382.779)" fill="#d6d6d6" fill-rule="evenodd"/>
          <path id="Path_270" data-name="Path 270" d="M404.1,410.525c-.506.717-2.446,1.59-3.135,1.149C398.475,408.465,404.4,407.1,404.1,410.525Z" transform="translate(-338.605 -381.241)" fill="#d6d6d6" fill-rule="evenodd"/>
          <path id="Path_271" data-name="Path 271" d="M400.128,413.341c-.809-.883-.635-1.609-1.5-2.685C401.985,406.694,406.122,413.074,400.128,413.341Z" transform="translate(-352.734 -374.394)" fill="#d6d6d6" fill-rule="evenodd"/>
          <path id="Path_272" data-name="Path 272" d="M423.552,409.214c1.2,3.356-2.565,6.068-4.551,2.363-6.739-2.28-10.95,4.312-12.706,9.166.331,1.48.257,2.8-.819,3.76-2.3-.147-2.068-2.657-2.694-4.689.561-1.268,1.333-2.455,1.288-3.962,2.216-2.96,3.7-6.61,7.842-8.081,3.641-1.287,6.693.625,9.966.239C422.265,408.855,423.019,408.755,423.552,409.214Z" transform="translate(-318.696 -391.138)" fill="#d6d6d6" fill-rule="evenodd"/>
          <path id="Path_273" data-name="Path 273" d="M404.254,410.967c-.735,1.839-2.648,2.51-3.733,1.7C397.818,410.627,402.958,407.225,404.254,410.967Z" transform="translate(-343.575 -374.981)" fill="#d6d6d6" fill-rule="evenodd"/>
          <path id="Path_274" data-name="Path 274" d="M400.143,412.043a5.065,5.065,0,0,1,.579,3.117C396.576,417.8,396.263,410.5,400.143,412.043Z" transform="translate(-362.696 -354.203)" fill="#d6d6d6" fill-rule="evenodd"/>
          <path id="Path_275" data-name="Path 275" d="M408.341,410.637c.5,3.007-6.776,9.2-6.987,3.19C403.386,412.715,406.429,410.591,408.341,410.637Z" transform="translate(-330.405 -363.959)" fill="#d6d6d6" fill-rule="evenodd"/>
          <path id="Path_276" data-name="Path 276" d="M402.277,415.016a17.175,17.175,0,0,0-3.025,4.478C393.332,420.072,399.262,408.277,402.277,415.016Z" transform="translate(-368.352 -345.16)" fill="#d6d6d6" fill-rule="evenodd"/>
          <path id="Path_277" data-name="Path 277" d="M399.651,416.279a.671.671,0,0,0-.772-.478C395.8,408.639,407.337,414.735,399.651,416.279Z" transform="translate(-355.079 -349.595)" fill="#d6d6d6" fill-rule="evenodd"/>
          <path id="Path_278" data-name="Path 278" d="M406.8,411.971c.892,1.83-.322,2.961-2.179,3.246C402.162,412.734,404.57,411.024,406.8,411.971Z" transform="translate(-312.136 -355.188)" fill="#d6d6d6" fill-rule="evenodd"/>
          <path id="Path_279" data-name="Path 279" d="M407.317,412c.193,1.122.331,1.931-.312,2.391C403.878,416.587,403.308,409.13,407.317,412Z" transform="translate(-304.76 -358.25)" fill="#d6d6d6" fill-rule="evenodd"/>
          <path id="Path_280" data-name="Path 280" d="M403.472,416.454c-.46-.505-1.232-.156-1.82-.294C399.481,410.727,408.105,413.319,403.472,416.454Z" transform="translate(-330.895 -344.53)" fill="#d6d6d6" fill-rule="evenodd"/>
          <path id="Path_281" data-name="Path 281" d="M406.167,413.473c.055,1.609-1.315,3.714-3.07,2.528C400.917,412.756,404.558,411.589,406.167,413.473Z" transform="translate(-321.676 -348.113)" fill="#d6d6d6" fill-rule="evenodd"/>
          <path id="Path_282" data-name="Path 282" d="M407.86,413.871c-.781.515-1.251.239-1.848.276C403.41,410.285,409.294,411.167,407.86,413.871Z" transform="translate(-297.755 -356.536)" fill="#d6d6d6" fill-rule="evenodd"/>
          <path id="Path_283" data-name="Path 283" d="M403.115,417.06a4.981,4.981,0,0,1-2.648.368C397.507,412.776,405.046,413.5,403.115,417.06Z" transform="translate(-343.392 -335.05)" fill="#d6d6d6" fill-rule="evenodd"/>
          <path id="Path_284" data-name="Path 284" d="M398.821,418.207c-3.641-6.123,7.383-1.664,0,0Z" transform="translate(-357.393 -327.572)" fill="#d6d6d6" fill-rule="evenodd"/>
          <path id="Path_285" data-name="Path 285" d="M406.835,414.561a2.192,2.192,0,0,1-2.363,2.207,9.092,9.092,0,0,0-1.3-2.225C404.013,412.243,405.484,412.308,406.835,414.561Z" transform="translate(-315.476 -345.863)" fill="#d6d6d6" fill-rule="evenodd"/>
          <path id="Path_286" data-name="Path 286" d="M397.836,417.158c.321,1.6.533,3.153-1.627,3.834C393.12,419.447,394.867,415.862,397.836,417.158Z" transform="translate(-385.884 -312.788)" fill="#d6d6d6" fill-rule="evenodd"/>
          <path id="Path_287" data-name="Path 287" d="M402.015,414.128c1.112.69,2.445,1.655,1.379,3.025-1.278.828-1.756-.469-2.731-.451C400.59,415.645,400.406,414.56,402.015,414.128Z" transform="translate(-336.445 -335.345)" fill="#d6d6d6" fill-rule="evenodd"/>
          <path id="Path_288" data-name="Path 288" d="M399.763,416.173c1.94,2.933-1.986,3.4-2.933,1.609C396.8,415.99,398.329,415.861,399.763,416.173Z" transform="translate(-367.474 -319.673)" fill="#d6d6d6" fill-rule="evenodd"/>
          <path id="Path_289" data-name="Path 289" d="M398.3,417.506c.248.873-.285,1.443-.423,2.169a5.14,5.14,0,0,1-2.032-.763C394.524,416.292,397.126,416.347,398.3,417.506Z" transform="translate(-378.526 -313.899)" fill="#d6d6d6" fill-rule="evenodd"/>
          <path id="Path_290" data-name="Path 290" d="M401.8,417.608a1.925,1.925,0,0,1,3.586-.79C406.155,418.758,402.974,420.119,401.8,417.608Z" transform="translate(-326.775 -321.192)" fill="#d6d6d6" fill-rule="evenodd"/>
          <path id="Path_291" data-name="Path 291" d="M405.863,414.78c3.135,1.351.009,4.753-1.673,1.884A2.109,2.109,0,0,1,405.863,414.78Z" transform="translate(-307.168 -330.003)" fill="#d6d6d6" fill-rule="evenodd"/>
          <path id="Path_292" data-name="Path 292" d="M408.268,414.665c-.083,5.59-6.454-1.866,0,0Z" transform="translate(-297.409 -333.464)" fill="#d6d6d6" fill-rule="evenodd"/>
          <path id="Path_293" data-name="Path 293" d="M409.093,416.247c-5.645,1.747-.754-6.013,0,0Z" transform="translate(-288.994 -337.023)" fill="#d6d6d6" fill-rule="evenodd"/>
          <path id="Path_294" data-name="Path 294" d="M402.8,416.168c.589-.175,1.048-.028,1.747-.506.524,1.268,1.618,1.287,1.168,2.556a5.25,5.25,0,0,0,2.39.322c2.85,2.657-1.793,5.066-3.172,2.289-.414-.8.432-1.131.294-1.82-.607-.662-.717.3-1.609.166A3.155,3.155,0,0,1,402.8,416.168Z" transform="translate(-319.308 -322.776)" fill="#d6d6d6" fill-rule="evenodd"/>
          <path id="Path_295" data-name="Path 295" d="M399.8,418.4c1.646-1.719,3.861-.837,4.119.386C404.5,421.6,399.445,422.306,399.8,418.4Z" transform="translate(-343.262 -308.209)" fill="#d6d6d6" fill-rule="evenodd"/>
          <path id="Path_296" data-name="Path 296" d="M400.755,417.255a4.489,4.489,0,0,1,3.3.46c.883,2.381-1.738,4.009-3.282,2.068C400.691,418.909,400.838,418.128,400.755,417.255Z" transform="translate(-335.378 -310.531)" fill="#d6d6d6" fill-rule="evenodd"/>
          <path id="Path_297" data-name="Path 297" d="M402.335,420.032a2.7,2.7,0,0,1-4.266.542C397.765,418.065,401.369,417.541,402.335,420.032Z" transform="translate(-357.469 -300.29)" fill="#d6d6d6" fill-rule="evenodd"/>
          <path id="Path_298" data-name="Path 298" d="M401.776,418.071a2.74,2.74,0,0,1,.837,2.427c-1.738,1.03-2.961.689-3.632-1.158C399.643,418.568,400.7,417.685,401.776,418.071Z" transform="translate(-349.849 -303.8)" fill="#d6d6d6" fill-rule="evenodd"/>
          <path id="Path_299" data-name="Path 299" d="M401.425,417.472c1.609-1.268,3.236.735,2.666,2.151a3.294,3.294,0,0,1-2.418.257A2.728,2.728,0,0,1,401.425,417.472Z" transform="translate(-331.212 -311.254)" fill="#d6d6d6" fill-rule="evenodd"/>
          <path id="Path_300" data-name="Path 300" d="M398.167,422.244c-2.4-3.586,1.986-4.349,2.721-2.078A1.888,1.888,0,0,1,398.167,422.244Z" transform="translate(-362.347 -296.406)" fill="#d6d6d6" fill-rule="evenodd"/>
          <path id="Path_301" data-name="Path 301" d="M399.767,420.062c.2.717-.5,1.1.046,1.949a3.6,3.6,0,0,1-3.475,1.021C394.867,420.734,398.066,418.481,399.767,420.062Z" transform="translate(-374.594 -291.053)" fill="#d6d6d6" fill-rule="evenodd"/>
          <path id="Path_302" data-name="Path 302" d="M400.483,421.164c-.414.745-.68,1.554-1.9,1.995-.551-.763-1.406-.717-1.765-2C397.026,418.9,399.619,419.426,400.483,421.164Z" transform="translate(-367.597 -290.049)" fill="#d6d6d6" fill-rule="evenodd"/>
          <path id="Path_303" data-name="Path 303" d="M452.487,409.164c.607,1.324-.018,2.188.451,3.457,4.652-.359,6.178-7.373,11.143-7.052,1.627,3.374-.478,5.36-.184,8.247,2.28.6,5.047-1.609,6.785-.561,4.863-3.622,10.6-2.74,13.561,1.967,2.225.763,4.992.092,6.8,1.968a4.617,4.617,0,0,1-.7,3.411c-1.82,1.6-2.841-.809-4.661-.974-4.284-.377-7.76,2.869-9.948,5.948-1.59,2.243-1.26,5.2-3.466,7.217-2.262-.478-1.977-3.8-1.535-5.213.6-1.9,3.493-7.015,5.59-8.744,1.287-1.067,2.988-1.416,3.87-2.611a5.015,5.015,0,0,0-5.571-1.113c-1.508.7-2.1,3.494-4.119,2.712-1.452,2.427-1.664,5.3-4.6,7.171,3.034,5.121,2.327,11.4.671,16.3-1.765,5.231-7.631,14.59-13,17.753a17.394,17.394,0,0,1-3.733,1.7,23.9,23.9,0,0,1-7.033,1.232c-2.326-.129-7.879-1.83-9.258-3.65-1.168-1.536-1.37-3.788-2.326-5.7-3.917,2.8-6.5,6.978-9.093,10.9-3.319,5.047-6.279,10.315-9.938,15.225-3.512,7.327-8.835,13.966-11.879,21.468,6.757,1.351,15.372-5.369,22.451-9.405,9.58-5.452,21.348-11,31.654-16.972,2.225-1.287,4.064-2.933,5.985-4.137,7.475-4.661,16.806-9.846,23.481-15.776,2.491-2.216,6.27-6.675,7.732-1.563,4.68-4.4,12.89-6.647,12.816-12.6-.046-5.5-6.739-8.266-11.363-5.792-4.5,2.4-3.88,7.511-6.868,9.607-3-.837-1.674-4.432-.818-6.1,1.581-3.053,3.595-6.629,8.192-7.953s10.729.2,13.459,4.827c.92,1.554.644,3.42,1.665,4.882,1.324,1.885,3.751,1.866,5.194,5.213,1.508,3.5.8,6.215-.552,9.267,6.491,11.272,11.005,24.051,9.645,34.716a12.083,12.083,0,0,1-5.912,4.946c-9.883,4.514-20,8.872-29.724,14.407-3.926,2.234-7.391,5.14-11.262,7.392-1.278.735-2.924,1.122-4.193,1.913-4.33,2.712-8.514,5.81-12.789,8.366-5.627,3.365-11.575,5.967-17.4,9.35-1.039.6-2.326,2-3.54,2.74a87.877,87.877,0,0,1-15.6,7.116c-6.564,2.317-10.683,4.109-14.591,1.315-5.764-11.952-11.308-26.019-14.342-38.21.708-1.213.487-2.776,2.308-3.577.441-.423-.505-1.351-.625-1.977,3.935-9.653,9.782-18.369,15.409-27.287,5.618-8.89,11.125-18.084,18.13-26.285a4.792,4.792,0,0,1,1.756-1.085c1.067-9.322,4.1-17.919,11.088-25.034l3.724-1.7c1.085-3.723-.717-8.513.331-12.246C448.5,407.454,450.428,408.493,452.487,409.164Zm-8.973,17.331c-6.445,5.9-9.782,16.043-8.449,24.676.625,3.991,4.56,5.986,6.877,6.427,2.538.487,6.758-.478,10.068-2.621,3.512-2.271,6.831-7.042,9.093-10.9,2.9-4.955,5.323-14.342-.368-18.691-4.155-3.163-10.269-3.2-17.055-.377-.137.083-.257.166-.128.34C443.164,425.584,443.2,425.989,443.514,426.495Zm64.835,16.282-.469.211c-1.251,5.36-8.955,8.927-15.059,11.382-.956.487-1.251-.809-2.289-.083-4.349,1.793-6.243,4.928-9.194,7.006-12.035,8.477-25.43,16.246-39.359,24.152.478.8,1.545,0,1.784,1.434.148,1.168-1.1,2.344-2.6,2.317a5.131,5.131,0,0,1-1.4-2.455c-8.633,3.751-11.456,6.509-19.4,10.536.359,1.462,1.682.34,1.995,1.9-.276.671.294,1.655-.763,2.041-1.572.092-2.593-1.7-3.218-2.758-6.169,3.264-13.515,6.969-18.912,6.656-2.923,3.907,1.039,9.948,2.749,15.914,10.444-4.726,20.475-12.366,31.489-18.59,6.656-3.76,12.053-6.7,18.2-9.432,2.868-1.269,5.921-2.023,8.936-3.236,5.4-2.161,10.941-6.114,16.356-8.578,4.606-2.105,8.835-5.461,13.331-7.778,5.7-2.933,11.318-5.627,16.687-8.45,1.425-.754,2.887-2.6,4.955-.864.479.9-.671,1.177-.184,2.059,1.021-.147,1.784.4,2.859.1-2.133-4.1-3.218-9.387-6.454-11.685C508.965,451,512.761,446.988,508.349,442.777Zm2,37.079c-2.767,1.526-6.049,3.089-8.633,4.5-3.108,1.7-5.857,4.027-9.028,5.525-11.649,5.5-23.031,9.617-33.649,15.069.138.5,2.657.7,2.445,2.262a2.294,2.294,0,0,1-3.346.69c-.929-.938-.055-.993-.726-2.207-17.68,6.6-32.224,19.675-50.8,26.828,1.4,3.567,2.592,7.272,5.461,10.738,8.091-1.232,17.588-5.82,26.046-10.757-.358-1.462-1.49-.846-1.866-2.243.533-.635.248-1.581,1.673-1.885,1.361.156,1.655,2.565,1.949,3.043,21.349-10.417,38.7-25.412,60.027-34.982a202.176,202.176,0,0,0,18.544-9.313c1-5.8-.579-12.577-2.731-19.564-1.186,1.416-.4,3.586-2,4.854.506,1.03,1.775.074,2.243,1.223C516.384,477.658,514.141,477.778,510.353,479.856Zm-31.48,5.645c1.03,1.5,3.006-.505,2.924-1.618A11.36,11.36,0,0,0,478.873,485.5Zm-5.277,3.245c-.745-.588-2.124.524-3.236.919C470.553,491.422,474.12,489.96,473.6,488.746Zm33.787-12.31c.91-.009,2.464-1.214,3.383-1.83C509.443,472.436,507.723,475.378,507.383,476.435Zm-14.37,7.962c1.7-.717,3.76-1.443,4.569-2.933C495.376,480.931,493.206,481.97,493.014,484.4Zm5.838-3.236c1.241-.625,2.869-1.112,3.622-1.931C500.956,477.235,499.817,480.187,498.851,481.161Zm-12.963,6.767c.781.184,1.646-.818,2.225-1.3l-.423-.938C486.55,485.565,485.318,486.8,485.888,487.928Zm-82.56,37.382c.984.91.653,2.105,1.618,2.924a7.939,7.939,0,0,0,1.535-4.643C405.35,524.556,404.458,524.574,403.328,525.31Zm30.808-12.651c2.17-.367,4.377-1.26,4.128-3.291C437.032,511.142,433.87,509.791,434.136,512.659Zm-5.636,3.7a1.265,1.265,0,0,0,1.407-.634c-.3-.589-.588-1.177-1.232-.846C428.859,515.454,428.068,515.675,428.5,516.355Zm-5.746,4.036c1.4-.441.671-1.682,1.122-2.482C423.361,518.69,422.157,519.2,422.754,520.391Zm-5.976,3.567c1.581-.377,1.269-1.462,1.122-2.482A2.475,2.475,0,0,0,416.778,523.958Z" transform="translate(-393.637 -405.559)" fill="#d6d6d6" fill-rule="evenodd"/>
        </g>
        <g id="Group_305" data-name="Group 305" transform="translate(831.164 10)">
          <path id="Path_304" data-name="Path 304" d="M426.893,402.906c.635,6.9-12.412,9.9-10.72,0C418.665,400.911,424.586,400.323,426.893,402.906Z" transform="translate(-343.243 -401.182)" fill="#d6d6d6" fill-rule="evenodd"/>
          <path id="Path_305" data-name="Path 305" d="M419.735,403.714c-.009,3.172-1.067,5.277-2.97,6.555C404.906,410.609,412.711,395.412,419.735,403.714Z" transform="translate(-387.331 -400.795)" fill="#d6d6d6" fill-rule="evenodd"/>
          <path id="Path_306" data-name="Path 306" d="M419.755,408.255c-1.287-10.068,10.444-6.978,9.534-1.186C428.645,411.123,422.513,411.748,419.755,408.255Z" transform="translate(-313.461 -396.997)" fill="#d6d6d6" fill-rule="evenodd"/>
          <path id="Path_307" data-name="Path 307" d="M432.834,402.264c.874,1.912,2.05,3.512,1.793,6.537-2.317.874-4.036,2.317-7.741,1.8C421.811,407.366,426.987,399.542,432.834,402.264Z" transform="translate(-271.129 -396.954)" fill="#d6d6d6" fill-rule="evenodd"/>
          <path id="Path_308" data-name="Path 308" d="M413.754,410.27c-1.4-7.1,4.854-8.863,7.741-6.565C425.486,406.886,418.8,414.866,413.754,410.27Z" transform="translate(-363.468 -388.282)" fill="#d6d6d6" fill-rule="evenodd"/>
          <path id="Path_309" data-name="Path 309" d="M417.874,410.8c-2.353,1.131-2.749,2.639-5.369,2.372C398.852,411.881,421.689,393.815,417.874,410.8Z" transform="translate(-408.106 -381.665)" fill="#d6d6d6" fill-rule="evenodd"/>
          <path id="Path_310" data-name="Path 310" d="M432.961,411.924c-4.689,1.48-9.185-.708-9.534-5.36C426.682,402.206,436.216,404.854,432.961,411.924Z" transform="translate(-282.564 -374.445)" fill="#d6d6d6" fill-rule="evenodd"/>
          <path id="Path_311" data-name="Path 311" d="M429.462,407.688c.524,7.042-11.667,8.431-10.72,0C421.583,403.523,425.987,405.509,429.462,407.688Z" transform="translate(-321.384 -367.828)" fill="#d6d6d6" fill-rule="evenodd"/>
          <path id="Path_312" data-name="Path 312" d="M420.894,407.239c-.386,2.887.781,4.229,0,5.967-1.931,1.416-6.509,1.784-8.348,0,.082-.689-.147-1.057-.6-1.186C410.771,405.8,417.4,403.708,420.894,407.239Z" transform="translate(-377.752 -365.595)" fill="#d6d6d6" fill-rule="evenodd"/>
          <path id="Path_313" data-name="Path 313" d="M421.867,415.108c-14.535-.69.5-15.345,3-5.958C425.7,412.341,423.577,413.251,421.867,415.108Z" transform="translate(-346.565 -361.54)" fill="#d6d6d6" fill-rule="evenodd"/>
          <path id="Path_314" data-name="Path 314" d="M428.863,410.345a10.354,10.354,0,0,1-2.381,7.75c-3.292.322-5.856-.11-6.555-2.39C420.147,411.264,424.67,407.173,428.863,410.345Z" transform="translate(-311.251 -335.328)" fill="#d6d6d6" fill-rule="evenodd"/>
          <path id="Path_315" data-name="Path 315" d="M420.464,418.926c-4.781.588-7.714-2.9-7.153-5.967C414.736,405.273,427.534,411.709,420.464,418.926Z" transform="translate(-366.014 -333.18)" fill="#d6d6d6" fill-rule="evenodd"/>
          <path id="Path_316" data-name="Path 316" d="M422.949,420.94c1.315-3.236-.68-4.772-1.793-7.153C427.115,401.909,439.278,429.436,422.949,420.94Z" transform="translate(-301.163 -322.681)" fill="#d6d6d6" fill-rule="evenodd"/>
          <path id="Path_317" data-name="Path 317" d="M419.91,422.013c-3.751.892-7.668-1.581-7.135-5.369C413.814,409.3,426.125,415.513,419.91,422.013Z" transform="translate(-370.24 -301.708)" fill="#d6d6d6" fill-rule="evenodd"/>
          <path id="Path_318" data-name="Path 318" d="M423.863,421.4c-4.634.184-6.9.2-7.759-2.372C413.317,410.579,431.512,412.97,423.863,421.4Z" transform="translate(-344.975 -298.125)" fill="#d6d6d6" fill-rule="evenodd"/>
          <path id="Path_319" data-name="Path 319" d="M427.1,414.008c1.986,2.878.129,5.893,1.2,9.543-1.25,1.949-4.358,1.995-7.75,1.783-.506-1.48-1.637-2.326-1.784-4.165C421.325,418.559,422.723,414.8,427.1,414.008Z" transform="translate(-320.805 -296.092)" fill="#d6d6d6" fill-rule="evenodd"/>
          <path id="Path_320" data-name="Path 320" d="M428.647,418.205c1.407,3.338.828,5.443-1.2,7.741C416.971,427.528,420.115,412.312,428.647,418.205Z" transform="translate(-303.873 -272.874)" fill="#d6d6d6" fill-rule="evenodd"/>
          <path id="Path_321" data-name="Path 321" d="M420.941,417.9c1.866,3.31.809,11.741-5.948,10.132C409.862,423.712,416.868,416.633,420.941,417.9Z" transform="translate(-366.49 -265.417)" fill="#d6d6d6" fill-rule="evenodd"/>
          <path id="Path_322" data-name="Path 322" d="M426.773,426.273c-4.018,1.683-9.626.2-11.318-2.381C416.7,415.82,428.225,420.472,426.773,426.273Z" transform="translate(-347.885 -250.547)" fill="#d6d6d6" fill-rule="evenodd"/>
          <path id="Path_323" data-name="Path 323" d="M428.221,428.257c-1.793.791-4.56.607-7.153.588C415.506,419.164,432.4,416.921,428.221,428.257Z" transform="translate(-311.198 -241.802)" fill="#d6d6d6" fill-rule="evenodd"/>
          <path id="Path_324" data-name="Path 324" d="M425.656,423.761c-.331,2.464-1.857,3.705-2.97,5.369C408.546,430.435,420.231,414.061,425.656,423.761Z" transform="translate(-343.799 -241.479)" fill="#d6d6d6" fill-rule="evenodd"/>
          <path id="Path_325" data-name="Path 325" d="M421.425,424.348c2.574,6.178-4.037,9.893-8.928,7.162C409.123,426.261,415.117,421.728,421.425,424.348Z" transform="translate(-380.094 -217.639)" fill="#d6d6d6" fill-rule="evenodd"/>
          <path id="Path_326" data-name="Path 326" d="M419.924,425.756c4.781-1.922,6.794-.257,7.162,2.97C428.143,438.434,410.179,429.672,419.924,425.756Z" transform="translate(-335.088 -206.524)" fill="#d6d6d6" fill-rule="evenodd"/>
        </g>
      </g>
    </g>
  </g>
</svg>
