<svg xmlns="http://www.w3.org/2000/svg" width="114.046" height="117.117" viewBox="0 0 114.046 117.117">
  <g id="Group_51" data-name="Group 51" transform="matrix(0.719, -0.695, 0.695, 0.719, -431.869, 156.052)">
    <path id="Path_81" data-name="Path 81" d="M448.78,228.067c-1.725.286-3.286,1.61-4.612,2.737,6.165.317,10.2,2.755,14.113,5.329-.021.873-.033,1.941-1.005,2.013-.473.033-1.132-.449-1.874-.574a26.511,26.511,0,0,0-4.752-.146c1.631,1.968,4.345,4.1,5.037,7.489-.264,2.32-.371,4.674-2.731,5.182-.02-1.377.989-1.976,1.005-3.6.045-4.443-4.74-6.879-7.2-9.216-.473-3.4,3.62-1.156,6.046-1.872-2.767-2.741-7.936-2.426-12.672-2.593-1.6-2.475,2.9-2.777,3.744-4.606-6.742-.022-15.538.719-19.006,5.615-.638.213-.844,0-1.585,0-.219-.453-.643-.7-.717-1.295,1.326-1.266,3.027-2.156,4.46-3.311,5.6-2.878,14.463-2.481,21.172-3.6.1.325.428.43.721.574C449.081,226.8,449.18,227.655,448.78,228.067Z" fill="#d6d6d6" fill-rule="evenodd"/>
    <path id="Path_82" data-name="Path 82" d="M418.108,229.506c1.441-1.7,3.179-.461,4.464.577.762,1.775-1.042,2.979-.721,5.183a3.573,3.573,0,0,0,1.726,1.007c3.014,3.807,8,5.633,13.392,7.058-.164.6.3.558.289,1.007-4.3,1.833-8.385-2.16-11.951-3.169a3.838,3.838,0,0,0-2.018-1.581c.156,2.051,1.2,3.22,1.3,5.327,4.028-.785,7.318,1.2,9.505,3.169,1.573-1.355,2.882-2.974,5.036-3.746,1,.3,2.035.041,3.171.286,4.419.964,9.526,5.253,10.658,8.787a8.312,8.312,0,0,1-2.738,9.214c3.039,1.378,5.9,4.625,5.184,8.5-1,5.36-10.3,8.177-13.1,2.736a17.383,17.383,0,0,0-1.585,1.874c.5.3,1.359.169,2.018.431a11.233,11.233,0,0,1,4.748,5.184c.7,2.16-.132,3.419-1.149,4.753a10.525,10.525,0,0,1-9.217,4.606c3.262,5.893-2.923,13.018-9.649,12.1.8,1.291,1.9,3.3.721,5.616-.1.193-.457.245-.576.432-.276.437-.227,1.118-.433,1.439a14.033,14.033,0,0,1-2.014,2.449c-5,4.439-11.983-2.175-10.225-9.217-5.3-1.435-8.105-6.6-6.334-12.382-4.176-.866-7.9-4.357-5.9-9.218a2.249,2.249,0,0,0-1.153.432c-4.934-.774-8.414-5.376-7.627-10.942.5-3.574,3.249-5.071,6.762-5.9-2.175-2.683-3.245-8.877-1.149-12.53-3.917,1.034-6.8,1.546-10.082,3.459a18.275,18.275,0,0,0-3.743,3.313c-.457.575-.527,1.388-1.005,1.582-.7.28-1.606-.319-2.018-1.007.84-4.112,1.026-8.416,2.59-11.953.894-2.02,2.587-3.262,3.46-5.039-2.319.1-5.539,1.122-7.343-.29-.037-.768.436-.717.14-1.439,5.028-2.463,7.911-7.065,13.969-8.5-1.289-1.092-4.411-1.131-5.906-2.447-.123-.7.2-.957.289-1.439C397.48,225.471,410.6,226.366,418.108,229.506Zm-10.658-.576c-4.715-.587-10.481-.949-14.113,1.009,1.828,1.017,7.211,1.456,5.041,4.176-5.6,1.114-9.4,4.04-12.816,7.342,2.545.422,5.053-.887,7.491-.144a5.062,5.062,0,0,1,.284,1.728q-7.518,3.57-8.064,14.115c3.83-2.934,8.764-5.821,15.123-5.329,1.07-2.143,2.9-3.533,4.748-4.9-.9-.032-1.656.834-2.446.431.547-2.477,5.044-3.462,8.211-2.877,3.381-.459,5.626-2.909,7.483-5.329.235-2.236,1.087-3.282.577-5.615a19.593,19.593,0,0,0-7.631,2.158c-6,3.33-11.041,8.348-16.7,11.663-1.108.284-1.244,1.544-2.59,1.583-.078-.212-.214-.362-.289-.574,3.74-3.2,7.644-6.359,11.663-9.361,3.97-2.963,8.278-6.214,13.825-7.056C415.336,229.883,411.362,229.416,407.45,228.93Zm10.8,3.023c.268-.031.317.162.573.146v-.577C418.466,231.5,418.371,231.745,418.252,231.953Zm-3.171,13.394a16.075,16.075,0,0,1,4.324,3.167c.791-1.559,2.562-2.141,3.739-3.311-.971-1.715-1.56-3.816-2.446-5.615C419.277,241.96,416.926,243.4,415.081,245.347Zm3.311,9.073c-.14-6.705-5.662-8.8-12.812-7.634.1.76,1.45.274,1.582,1.009-.272,1.236-1.808,1.335-2.735,2.158a13.87,13.87,0,0,0-3.887,6.194,10.2,10.2,0,0,0,2.158,8.5c5.032,3.517,10.793-.356,13.392-3.746-.012-.78.338-1.2.288-2.013.536.1.618-.247,1.153-.145A13.236,13.236,0,0,0,418.392,254.42Zm25.348,8.205c.762-1.1,1.705-.467,2.878-.719a6.143,6.143,0,0,0,4.753-5.471c-.017-4.563-6.268-9.529-10.37-9.793-2.936-.187-3.888,1.888-5.041,3.455,1.421,2.963,2.78,7.211,1.153,10.514C439.473,261.132,440.927,262.561,443.74,262.625Zm-7.924-5.325a10.789,10.789,0,0,0-1.581-6.049,11.025,11.025,0,0,0-2.162-1.872,6.322,6.322,0,0,0-2.447-1.728,8.571,8.571,0,0,0-6.482,0,17.2,17.2,0,0,0-3.022,4.176,11.017,11.017,0,0,1-1.73,9.359C422.79,266.533,435.338,264.88,435.816,257.3Zm5.329,6.909c-2.232.053-4.538-3.843-5.617-1.005,3.744-.142,4.884,2.314,7.059,3.741.37-.78,1.136-1.165,1.293-2.158C442.545,264.682,441.388,265.876,441.145,264.209Zm-25.343.144c.786-.171,2,.08,2.45-.431-.671-.1-.873-.663-1.3-1.007C416.712,263.533,416.111,263.8,415.8,264.353Zm30.816,1.873c-4.015,1.085-3.578,8.778,1.009,8.785,2.463-.729,5.412-1.866,5.758-4.32.564-3.979-3.443-5.966-7.055-6.627C446.091,264.606,446.544,265.541,446.618,266.226Zm-13.1-.574a44.8,44.8,0,0,0-4.464,1.723c-1.388.894-2.006,2.257-2.883,3.316-1.8,4.8,2.665,6.838,7.2,6.333,5.391-.6,10.753-7.207,5.185-10.223a4.878,4.878,0,0,1-2.6,6.482c-.033-.206-.234-.243-.288-.432a4.682,4.682,0,0,0,.581-5.616c0-.621.716-.533.716-1.153A5.291,5.291,0,0,0,433.514,265.652Zm-8.352,1.869a1.543,1.543,0,0,0,.865-1.151c-.659.081-.9-.255-1.585-.144C424.578,266.764,425.031,266.982,425.162,267.521Zm-2.446.577c-2.4-2.209-6.622-1.752-10.085-1.153-.449.173-.449.8-1.005.865a5.168,5.168,0,0,0-4.032,5.9c.511,2.731,3.641,4.069,6.766,4.32.21-.56.165-1.373.721-1.583,1.063.09,1.948.354,1.73,1.728C421.411,278.47,426.233,271.333,422.716,268.1Zm-25.487,1.3c-.112.773-.429.923-.865,1.584-.157,2.71,1.507,5.839,3.887,6.482.206.055.692-.212,1.154-.144.679.1.934.58,1.437.43,1.47-.441,1.655-3.573.72-5.325.062-.515.486-.667.573-1.153-.231-1.019-1.528-.964-1.722-2.018.108-.7,1.2-.428,1.722-.72C402.446,266.688,398.707,267.861,397.229,269.393Zm7.2-.864a3.109,3.109,0,0,0,1.582,1.153c.383-.289.848-.495.72-1.293C405.762,267.771,405.226,268.924,404.427,268.529Zm19.01,8.642c.432.292,1.412.137,1.581-.287-.383-.1-.3-.659-.72-.722C424.018,276.505,423.49,276.6,423.437,277.171Zm-19.586,3.745c.967-1.334,3.047-1.563,4.464-2.452-.223-.692-.836-.991-1.442-1.293-.79,2.643-4.921,3.265-7.342,2.592C400.589,280.527,402.681,280.263,403.851,280.916Zm33.695-1.874c-2.15,1.261-5.21,3.283-4.32,6.194.77,2.514,4.971,4.234,7.919,2.879a11.246,11.246,0,0,0,3.888-3.746c1.528-2.8-2.191-5.794-4.464-6.48C440.437,279.149,438.8,278.9,437.546,279.042ZM431.5,281.2a4.06,4.06,0,0,0,1.874-2.158c-1.285-.094-2.566.035-4.032-.144C430.026,279.7,431.191,280.023,431.5,281.2Zm-1.437,3.169c.091-2.915-3.694-5-6.482-4.752-3.019.272-5.725,5.158-4.9,7.921.6,1.987,3.513,3.153,6.482,2.448C427.02,288.423,429.964,287.332,430.059,284.369ZM416.09,280.2a6.677,6.677,0,0,0,1.441,2.158c.346-.951,1.038-1.552,1.438-2.446A26.268,26.268,0,0,1,416.09,280.2Zm-5.041,8.638c1.784-.55,4.74-3.473,4.32-5.615-.251-1.289-2.195-2.32-3.6-2.448-.383-.033-.947.286-1.586.286-.745,0-1.437-.395-2.013-.286-4,.758-5.576,5.977-.865,7.633-.041-1.637-.877-4.779,1.149-4.61,2.8.234-.931,4.093.72,5.184A11.765,11.765,0,0,0,411.049,288.833Zm19.731-.43a3.625,3.625,0,0,0,1.725-.288c-.119-.552-.338-1.007-.865-1.153C431.562,287.649,430.9,287.756,430.78,288.4Zm-15.843.43c1.359.033,1.421,1.361,2.734,1.44-.4-1.038-.992-1.886-1.437-2.879C416.053,288.123,415.048,288.03,414.937,288.833Zm9.649,7.057a4.559,4.559,0,0,0,2.446,4.75c4.769,2.055,11.539-5.485,7.775-9.214a4.447,4.447,0,0,0-3.739-.865C427.843,291.028,425.018,292.935,424.586,295.89Zm-6.194,4.32a3.681,3.681,0,0,1,1.3-1.584c.614-2.718-.626-4.344-2.018-5.761h-1.005c-.539-1.522-3.586-1.312-4.752-1.726C407.034,294.844,413.174,304.433,418.392,300.21Zm2.883-.433c.861.1,1.351.569,2.162.723a9.578,9.578,0,0,1-.148-8.065c-1.145-.165-1.874-.34-3.167-.577C421.683,293.676,422.72,297.311,421.275,299.777Zm1.3,12.242c1.277-.435,3.826-3.737,3.883-5.475.058-1.59-1.441-2.99-2.734-3.6a13.716,13.716,0,0,0-3.6-1.006,4.818,4.818,0,0,0-3.167,2.732c-1.108,3.28,1.416,5.836,3.455,7.491C421.118,311.91,421.773,312.289,422.572,312.019Z" fill="#d6d6d6" fill-rule="evenodd"/>
    <path id="Path_83" data-name="Path 83" d="M448.2,244.338c-.923.216-1.454-.986-2.162-1.437-4.571-1.707-8.867-5.718-14.4-6.194-1.6-.138-2.755.686-3.739-.434.573-2.708,4.971-1.39,6.762-.863a28.849,28.849,0,0,1,7.2,3.311,33.657,33.657,0,0,1,4.752,2.881A4.03,4.03,0,0,1,448.2,244.338Z" fill="#d6d6d6" fill-rule="evenodd"/>
    <path id="Path_84" data-name="Path 84" d="M441,257.442c-2.335-1.449-2.207-5.232-2.018-8.5a1.569,1.569,0,0,1,2.018-.286.639.639,0,0,0,.288.577,18.83,18.83,0,0,0-.576,3.6C440.766,254.535,441.751,256.337,441,257.442Z" fill="#d6d6d6" fill-rule="evenodd"/>
    <path id="Path_85" data-name="Path 85" d="M409.756,250.818c-1.709,1.415-3.747,2.494-4.176,5.185.013.513.725.327.717.863.037.609-.416.733-.573,1.153a3.416,3.416,0,0,1-2.017-.288c-.758-2.144.115-4.065,1.437-5.76C406.437,250.32,409.563,248.242,409.756,250.818Z" fill="#d6d6d6" fill-rule="evenodd"/>
    <path id="Path_86" data-name="Path 86" d="M427.32,250.1c.878,1.2-.243,1.631-.716,2.593-.877,1.779-.474,4.225-.721,5.9-.869.369-1.346-.584-1.874-1.009C423.882,255.268,424.3,249.222,427.32,250.1Z" fill="#d6d6d6" fill-rule="evenodd"/>
    <path id="Path_87" data-name="Path 87" d="M424.009,261.042a4.5,4.5,0,0,1,.289-1.584C427.213,258.492,426.373,262.957,424.009,261.042Z" fill="#d6d6d6" fill-rule="evenodd"/>
    <path id="Path_88" data-name="Path 88" d="M406.873,260.033a2,2,0,0,1,.145,2.162C404.625,263.2,403.81,259.421,406.873,260.033Z" fill="#d6d6d6" fill-rule="evenodd"/>
    <path id="Path_89" data-name="Path 89" d="M451.227,266.945c.589,2.6-1.433,3.721-2.6,5.041a.622.622,0,0,0-.572-.286c-.219-1.1.939-1.3,1.149-2.018.251-.838-.346-1.534-.284-2.737C449.7,266.611,450.58,266.344,451.227,266.945Z" fill="#d6d6d6" fill-rule="evenodd"/>
    <path id="Path_90" data-name="Path 90" d="M415.081,268.389c.124.113.087.393.288.43.116,1.27-.766,1.538-1.437,2.016-.865,2.261,1.853,2.547,1.293,4.462C410.848,276.31,410.53,267.466,415.081,268.389Z" fill="#d6d6d6" fill-rule="evenodd"/>
    <path id="Path_91" data-name="Path 91" d="M442.875,280.051a3.043,3.043,0,0,1,.428,1.149,6.086,6.086,0,0,1-.716,2.449c-.21.292-.544.191-.865.434-.853.638-1.569,2.58-2.595,1.728.737-1.707,3-2.972,1.73-5.041A1.266,1.266,0,0,1,442.875,280.051Z" fill="#d6d6d6" fill-rule="evenodd"/>
    <path id="Path_92" data-name="Path 92" d="M426.311,281.2c1.664,3.365-1.33,6.357-3.6,7.633.391-1.927,2.879-3.721,2.158-6.768A1.647,1.647,0,0,1,426.311,281.2Z" fill="#d6d6d6" fill-rule="evenodd"/>
    <path id="Path_93" data-name="Path 93" d="M413.067,292.579c-.914,1.252-.239,2.72.288,4.031.112.464,1.014.139.865.863.124.462-.477.2-.436.575-1.3.161-3.138-2.035-3.167-3.886-.013-.848.379-2.654,1.87-2.3C412.585,292.192,412.968,292.243,413.067,292.579Z" fill="#d6d6d6" fill-rule="evenodd"/>
    <path id="Path_94" data-name="Path 94" d="M433.658,294.881c-.193,2.6-1.495,4.822-3.455,5.185.334-1.825,1.565-2.751,1.437-5.041A1.314,1.314,0,0,1,433.658,294.881Z" fill="#d6d6d6" fill-rule="evenodd"/>
    <path id="Path_95" data-name="Path 95" d="M420.7,303.811c-.346,1.411-.626,2.251.144,3.311.639.11,1.166.005,1.586.575.119.558-.354.515-.437.865C418.3,309.634,416.951,302.108,420.7,303.811Z" fill="#d6d6d6" fill-rule="evenodd"/>
  </g>
</svg>
