<svg xmlns="http://www.w3.org/2000/svg" width="76.175" height="154.401" viewBox="0 0 76.175 154.401">
  <g id="Group_50" data-name="Group 50" transform="translate(-293.275 -213.73)">
    <path id="Path_59" data-name="Path 59" d="M332.755,226c.524,2.148,1.822,5.011.424,7.054-1.041-.5-.348-1.223-.566-2.258-.425-2.031-1.636-3.849-1.129-5.217A3.93,3.93,0,0,1,332.755,226Z" fill="#d6d6d6" fill-rule="evenodd"/>
    <path id="Path_60" data-name="Path 60" d="M327.115,240.248c-.441-.146-.388-1.387,0-1.552a19.724,19.724,0,0,0-1.271-3.665c-.462-.846-1.682-1.7-1.128-2.962,1.485-.832,1.767.792,2.537,2.538C327.777,235.788,329.221,239.212,327.115,240.248Z" fill="#d6d6d6" fill-rule="evenodd"/>
    <path id="Path_61" data-name="Path 61" d="M349.678,232.915c-.4.7-.681,1.581-1.126,2.255-.568.859-1.306,2.018-2.4,2.259.41-1.527,1.667-3.4,2.4-5.078C349.267,232.2,349.42,232.611,349.678,232.915Z" fill="#d6d6d6" fill-rule="evenodd"/>
    <path id="Path_62" data-name="Path 62" d="M344.176,233.336c.495,2.617.172,5.714-1.972,6.491-.038-1.341.891-3,.706-4.8-.074-.706-.615-1.429,0-1.973C343.566,232.919,343.759,233.238,344.176,233.336Z" fill="#d6d6d6" fill-rule="evenodd"/>
    <path id="Path_63" data-name="Path 63" d="M350.949,242.363c-.66,1.426-2.316,1.99-3.385,2.966-.692.626-.982,1.586-1.975,1.833.231-2.873,2.811-3.4,4.376-4.937C350.334,242.225,350.764,242.171,350.949,242.363Z" fill="#d6d6d6" fill-rule="evenodd"/>
    <path id="Path_64" data-name="Path 64" d="M342.2,245.468c-.032,3.225-1.722,6-2.959,8.6a41.3,41.3,0,0,1-4.236,7.614,3.5,3.5,0,0,1-1.126,2.259c1.627-6.788,5.318-11.514,6.768-18.476C341.05,245.217,341.865,244.986,342.2,245.468Z" fill="#d6d6d6" fill-rule="evenodd"/>
    <path id="Path_65" data-name="Path 65" d="M335.86,253.506c-.95.2-.7-.8-.851-1.409a38.777,38.777,0,0,1-1.83-5.077c.35-.241.691-.494,1.128-.285C335.34,248.42,336.43,251.1,335.86,253.506Z" fill="#d6d6d6" fill-rule="evenodd"/>
    <path id="Path_66" data-name="Path 66" d="M321.473,252.379c-.339.33-.53.694-.988.7-1.292.029-.758-1.26-1.129-2.68-.339-1.291-1.972-2.194-1.69-3.1C319.414,245.75,321.32,250.292,321.473,252.379Z" fill="#d6d6d6" fill-rule="evenodd"/>
    <path id="Path_67" data-name="Path 67" d="M361.386,249.839c.183.051.221.25.42.282-1,.772-2.882,4.386-4.371,3.95C354.936,253.332,360.655,250.26,361.386,249.839Z" fill="#d6d6d6" fill-rule="evenodd"/>
    <path id="Path_68" data-name="Path 68" d="M320.2,260.558c-.135,0-.11.174-.142.282-.422.322-1.207.062-1.692,0-.151-1.553-1.307-2.17-3.1-2.4a1.129,1.129,0,0,1,.422-1.129C318.4,256.63,319.674,258.587,320.2,260.558Z" fill="#d6d6d6" fill-rule="evenodd"/>
    <path id="Path_69" data-name="Path 69" d="M346.153,258.442c.055.845-1.122,1.083-1.835.706-1.293.222-2.761.986-3.809.989C341.387,258.565,344.336,256.943,346.153,258.442Z" fill="#d6d6d6" fill-rule="evenodd"/>
    <path id="Path_70" data-name="Path 70" d="M359.694,259.572c-1.292,1.245-3.744,1.33-4.232,3.383C350.955,262.173,357.819,258.375,359.694,259.572Z" fill="#d6d6d6" fill-rule="evenodd"/>
    <path id="Path_71" data-name="Path 71" d="M354.474,269.021c-.059.884-1.22.874-1.973,1.27-1.024.533-1.508,1.571-2.823,1.267-.12-.114-.082-.383-.282-.422C349.952,269.385,352.457,268.837,354.474,269.021Z" fill="#d6d6d6" fill-rule="evenodd"/>
    <path id="Path_72" data-name="Path 72" d="M335.718,270.712c-.626,2.106-1.449,4.754-2.963,5.5a53.907,53.907,0,0,1,1.552-5.784A.883.883,0,0,1,335.718,270.712Z" fill="#d6d6d6" fill-rule="evenodd"/>
    <path id="Path_73" data-name="Path 73" d="M340.509,276.917c-.384-1.615,1.315-3.569,2.119-4.935h.846c1.118.843-.513,1.949-1.27,2.963C341.5,275.888,341.165,276.923,340.509,276.917Z" fill="#d6d6d6" fill-rule="evenodd"/>
    <path id="Path_74" data-name="Path 74" d="M314.418,273.25c-2.036,3.557-4.284,6.9-4.933,11.849-.819-.539-.448-3.31,0-4.8a21.047,21.047,0,0,1,4.227-7.332C314.064,272.949,314.149,273.189,314.418,273.25Z" fill="#d6d6d6" fill-rule="evenodd"/>
    <path id="Path_75" data-name="Path 75" d="M345.307,274.519c-.1.872-.863,1.483-1.27,2.259-.325.627-.389,1.99-1.551,1.834C342.514,277.132,343.489,272.847,345.307,274.519Z" fill="#d6d6d6" fill-rule="evenodd"/>
    <path id="Path_76" data-name="Path 76" d="M324.858,279.315a58.12,58.12,0,0,0-5.08,6.208,36.125,36.125,0,0,0-1.975,4.793,9.085,9.085,0,0,1-1.408,2.679c.083-3.646,2.3-8.041,4.372-11C321.77,280.566,322.97,277.811,324.858,279.315Z" fill="#d6d6d6" fill-rule="evenodd"/>
    <path id="Path_77" data-name="Path 77" d="M357.015,280.724c.471,1.6-3.389,3.12-3.667,1.553C353.061,280.686,356.1,281.3,357.015,280.724Z" fill="#d6d6d6" fill-rule="evenodd"/>
    <path id="Path_78" data-name="Path 78" d="M324.014,287.073c.291,1.066-.755,2.157-1.133,3.243-.269.782-.072,2.118-1.126,2.259C321.876,290.11,322.02,287.671,324.014,287.073Z" fill="#d6d6d6" fill-rule="evenodd"/>
    <path id="Path_79" data-name="Path 79" d="M346.857,290.883a6.375,6.375,0,0,1-2.82,6.626,27.118,27.118,0,0,0,1.834-6.769C346.363,290.626,346.412,290.949,346.857,290.883Z" fill="#d6d6d6" fill-rule="evenodd"/>
    <path id="Path_80" data-name="Path 80" d="M343.757,224.312c1.026.055,1.419-1.229,2.4-1.833,4.1-2.541,10.525-2.522,12.268,1.972,3.9-.247,7.017,1.524,5.926,5.36a4.933,4.933,0,0,0,2.542.989c2.087,1.381,2.909,5.355.984,7.474a3,3,0,0,0,1.552,1.974c.564,1.685,1.383,3.3,1.126,5.22-.078.592-.572,1.184-.562,1.833.019,1.467,1.544,2.208,1.973,3.526a8.981,8.981,0,0,1-.422,5.077c-.424,1.093-1.307,1.264-1.833,2.68a10.758,10.758,0,0,1-4.375,12.41c-.168,4.581-2.584,6.912-5.638,8.6a6.476,6.476,0,0,1,.14,2.68,13.442,13.442,0,0,1-4.232,4.8,16.522,16.522,0,0,1-2.818.845c-2.433,1.3-1.8,5.416-2.819,8.606-.486,1.5-1.534,2.53-1.557,3.946-2.467,4.207-5.646,8.153-11.424,9.17-4.77.837-11.152.979-15.091-.988-.376-.234-.452-.77-.844-.988-3.074-.219-6.117-.466-7.051-2.819-2.072-.013-2.85-1.843-4.233-2.961-1.2-.979-3.4-1.448-4.8-2.4-.282-.191-.426-.682-.7-.847-1.111-.655-2.435-1.14-3.529-1.833a17.157,17.157,0,0,1-4.09-16.5,23.323,23.323,0,0,1,3.106-5.926c1.995-2.743,4.174-5.36,5.637-8.742-.893-1.122-2.28-1.378-2.536-2.962-.416-2.565,1.37-4.738,2.818-5.922a18.147,18.147,0,0,1-.422-7.336c.607-3.608,2-6.661,4.376-8.461-.218-6.373,4.567-9.857,9.873-11.989,1.943-.782,2.879-1.995,5.64-1.692.7-3.895,2.768-8.462,8.179-7.192.566.133,1.071.681,1.835.7,1.851.059,3.9-2.566,6.344-1.549C343.065,219.884,343.462,222.336,343.757,224.312Zm-2.822-3.1c-2.133-1.343-4.271,2.023-5.781,2.112-1.419.086-2.113-1.714-3.952-1.552-2.594.228-3.712,3.089-4.087,5.645a5.227,5.227,0,0,1,.7,1.691c-.316.152-.246.691-.564.845-1.326.381-2.215-.835-3.383-.845a3.414,3.414,0,0,0-2.965,1.834c-.516.092-1.069.148-1.549.282-1.983,1.666-3.107,5.6-2.821,9.024.123,1.486,1.054,2.115,1.131,3.386a4.282,4.282,0,0,1-2.681,1.269c-1.349,1.36-2.853,2.975-2.963,4.936-.134,2.426,2.042,3.7,2.678,5.781-.769,1.448-4.172,2.752-3.383,5.362.667,2.2,4.571.127,4.8,2.537a8.129,8.129,0,0,1-.846,2.819,17.354,17.354,0,0,1-2.257,3.386c-.95,1.219-1.616,2.638-2.257,3.526a41.08,41.08,0,0,0-2.679,3.667c-.772,1.36-1.773,2.632-2.4,3.951a16.511,16.511,0,0,0-.14,13.961c.91,1.078,3.218,1.477,4.232,1.974.411-.529,1.135-.741,1.41-1.406-2.106-3.063-.265-8.664,1.131-11.286a35.27,35.27,0,0,1,8.461-10.013c1.809-3.174,4.348-5.621,5.36-9.591-1.6-1.14-3.445-2.084-3.526-4.37-.119-3.187,2.255-6.8,4.794-7.618-.418-5.258.723-11.283,5.924-11.847,2.087-5.625,3.614-11.808,8.745-14.386C342.051,224.724,342.145,221.969,340.935,221.212ZM345.589,226c.384.228,1.131.091,1.41.424.359-.346-.294-.3-.142-.845.522-.751,1.551-.992,1.833-1.977A4,4,0,0,0,345.589,226Zm10.3-1.553c-.64.912-2.426.678-2.818,1.835a11.981,11.981,0,0,1,3.383,0C356.324,225.611,356.567,224.566,355.884,224.451Zm-5.359,2.116c.674.244.958-.627.706-.845C351.085,226.092,350.671,226.2,350.525,226.567Zm6.628.143a22.409,22.409,0,0,1,1.7,2.819c1.349-.478,1.516-2.147,3.1-2.4C360.882,226.13,358.411,226.479,357.153,226.71Zm-9.023,2.54c-.8-.054-1.167-.56-1.835-.566-1.826-.013-2.833,1.744-3.809,2.819a39.879,39.879,0,0,0-4.8,7.193,17.2,17.2,0,0,0-1.128,1.976,8.47,8.47,0,0,1-.984,2.256c-.8.744-2.232.145-3.248,0-2.434,1.47-4.059,5.552-3.1,8.888.265.934,1.16,1.507.564,2.537-3.8.07-5.784,2.933-4.936,6.768.38,1.425,3.449,1.372,3.807,2.68.3,1.09-.61,1.659-.988,2.4a59.977,59.977,0,0,1-2.819,5.641c-2.356,3.687-5.786,6.715-8.463,9.17-2.195,3.456-6.511,10.111-2.541,14.243a11.959,11.959,0,0,1,2.681.283,20.975,20.975,0,0,1,7.335,4.089c.539.548.819,1.685,1.55,1.833,1.124.228,3.835-1.558,4.8-2.536a15.639,15.639,0,0,0,4.653-9.874c.285-3.813.327-7.455,1.267-10.86.931-3.355,2.774-5.788,4.093-8.464.106-.728-1.081-.719-.568-1.41,1.932-.123,2.645,1.334,4.374,1.41,1.9.086,3.741-1.153,3.809-2.676.059-1.315-1.926-2.211-1.551-3.386.346-1.1,2.452-.571,3.383-.564,1.914-1.33,1.562-3.348.7-5.644-.769-2.062-3.4-3.611-1.406-4.935,5.818.725,7.727-2.965,7.473-7.758-.147-2.777-1.468-5.406-1.835-7.332.7-.751,1.663-.764,2.259-1.834,1.33-2.4.475-6.348-1.411-7.475C351.861,227.61,350.141,229.381,348.13,229.25Zm11.28,4.654c.9-.843,2.157-1.325,2.258-2.962C360.5,230.961,360.084,232.919,359.41,233.9Zm3.949-1.974c-.541,1.618-2.217,2.106-2.679,3.8a7.377,7.377,0,0,0,1.975,0c.751-1.127,1.442-2.315,2.257-3.383A2.637,2.637,0,0,0,363.359,231.93Zm2.683,1.974c.38.1.282-.282.56-.282a1.057,1.057,0,0,0-.846-.847A3.533,3.533,0,0,0,366.042,233.9Zm-50.071-.846c-.18-.01-.2-.184-.424-.143-1.481,1.584-4.675,4.155-4.088,7.333.126.69,1.093,1.086.847,2.115-.681,1.008-1.682.678-2.541,1.131-2.878,1.511-3.326,8.249-2.537,11.565a8.652,8.652,0,0,1,1.269,1.834,2.518,2.518,0,0,1-2.117,1.834,11.7,11.7,0,0,0-1.693,2.958c.3.5.407,1.194.846,1.556.667.225,1.733.053,2.259.421a2.155,2.155,0,0,1-.846,2.961c-.483,2.329-2.176,4.105-3.245,5.642-.337.484-.469,1.108-.846,1.694-.611.941-1.667,1.719-2.255,2.679-.14.223.119.429,0,.7-.244.551-.974,1.2-1.271,1.834-1.467,3.117-1.578,6.645-.706,10.861,1.434,2.138,2.261,4.885,4.938,5.781a19.861,19.861,0,0,1-.989-12.414,15.751,15.751,0,0,1,1.411-2.961,49.674,49.674,0,0,1,5.076-9.025c.969-1.3,2.36-2.324,2.823-3.949a3.6,3.6,0,0,0,1.552-3.1c-.611-.238-1.334-.362-1.975-.564-.3.39.081.589-.142.988-2.04,1.486-3.217,4.587-4.937,5.923,1.1-2.654,1.945-5.577,3.949-7.332-3.411-2.284,1.567-7.2,1.553-8.463-.007-.542-.681-1.046-.989-1.692a7.38,7.38,0,0,1-.564-1.834c-.632-4.5,1.818-6.807,4.8-8.884C314.245,239.43,315.065,235.234,315.971,233.058Zm48.516,3.244a.943.943,0,0,0,.707.139c-.064-.89,1.158-1.907.562-2.4C365.493,234.955,364.693,235.329,364.487,236.3Zm1.833.845c.738.029.662-.751.846-1.271C366.551,235.965,366.282,236.4,366.32,237.147Zm-8.6.421c0,.143-.112.169-.142.282-.7,2.084.511,4.425.566,6.629a15.689,15.689,0,0,1-1.55,7.194c-1.02,1.745-2.732,2.119-5.5,2.4.908,2.99,3.2,7.751.424,10.155-.562.484-1.436.249-1.835,1.127.842,4.273-3.455,6.934-7.474,5.5-.872,1.422-2.248,2.752-2.959,4.093-1.453,2.736-1.716,6.122-2.4,9.733.73,7.64-2.575,14.6-8.039,17.484-1.457.773-3.166.95-3.947,2.683,1.385.384,4.344.063,5.218-.989,8.77-2.229,11.776-10.224,13.54-19.463.669-1.086,1.188-1.875,1.831-2.962.43-.723,1.009-2.679,1.7-3.1,1.79-1.108,2.214,1.327,3.525,1.267,1.726-.076,2.221-3.174,1.41-4.792.624-1.584,2.5-.789,3.668-1.131a5.747,5.747,0,0,0,2.536-1.834c1.555-2.322-.816-3.314-1.128-5.5,1.275-.931,2.1-.171,3.387-.7,2.3-.95,2.9-4.555,1.411-6.908-.632-1-1.487-1.122-1.129-2.12.253-.709,1.438-.693,1.973-.845,2.373-1.216,3.37-5.014,1.692-7.615-.576-1.165-2.674-1.286-2.819-2.539-.222-1.914,1.831-1.107,2.679-1.411,1.6-.573,1.657-2.64,2.255-3.949C365.832,237.159,360.385,237.917,357.717,237.568Zm9.731,6.066a4.279,4.279,0,0,0,1.413.706c-.1-.843-.216-1.666-.846-1.977C367.8,242.763,367.442,243.016,367.448,243.634Zm-.559,5.781c.6.088.572-.456,1.126-.422-.019-.4.076-.922-.142-1.128A1.133,1.133,0,0,0,366.889,249.415Zm2.112.424c-.346.6-1.629.849-1.975,1.695-.2.5.062,1.3-.137,1.972-.6,1.977-3.046,3.064-3.248,4.375-.165,1.087.959,2.309.846,3.383.753-.134,1.678-1.569,2.4-.424-.9.988-1.316,2.447-2.682,2.961-.381,2.347-2.451,3-3.949,4.232,1.4,3.832-1.856,7.167-5.362,7.9-.562,3.279-2.7,7.067-6.626,5.22-3.351,3.164-3.445,9-5.22,13.677-.6,1.581-1.714,2.734-2.115,4.232a24.362,24.362,0,0,1-16.361,8.322c3.988,1.608,9.226.639,13.541,0,.916-.951,2.254-.856,3.243-1.411,3.523-1.985,5.489-6.7,6.772-10.719.551-1.738.365-3.6.846-5.216a9.094,9.094,0,0,1,4.372-5.22c.568.089.712.6,1.408.564,1.182-.878,2.842-2.015,2.961-3.81.068-.954-.587-1.765-.424-2.959.763-.792,2.117-.992,3.247-1.413.855-1.355,1.89-2.524,2.819-3.807.193-2.414-1.593-5.264,1.973-4.8,2.144-1.567,4.178-4.263,3.247-7.614-.352-1.264-2.138-1.808-1.413-3.1C369.851,257.055,371.652,251.872,369,249.839Zm-46.12,51.477c-.74-1.083-5.627-3.705-6.91-3.947-1.964-.367-5.275-.04-5.218,1.832a7.653,7.653,0,0,1,1.411,2.822,13.522,13.522,0,0,0,4.371,1.694c.335.466-.114,1.077.142,1.41C320.069,306.951,325.1,304.547,322.881,301.316Z" transform="translate(-2.725 -5.271)" fill="#d6d6d6" fill-rule="evenodd"/>
    <g id="Group_52" data-name="Group 52" transform="translate(59.08 4.778)">
      <path id="Path_96" data-name="Path 96" d="M306.593,315.744a3.759,3.759,0,0,1-.706,4.535C299.753,321.2,301.593,312.288,306.593,315.744Z" fill="#d6d6d6" fill-rule="evenodd"/>
      <path id="Path_97" data-name="Path 97" d="M265.4,319.933c1.091,1.938.473,6.873-3.485,5.932C258.909,323.334,263.014,319.188,265.4,319.933Z" fill="#d6d6d6" fill-rule="evenodd"/>
      <path id="Path_98" data-name="Path 98" d="M279.713,333.548c-2.354.983-5.639.115-6.629-1.4C273.81,327.421,280.566,330.147,279.713,333.548Z" fill="#d6d6d6" fill-rule="evenodd"/>
      <path id="Path_99" data-name="Path 99" d="M302.049,339.831a11.685,11.685,0,0,1-4.189.346C294.6,334.5,304.5,333.19,302.049,339.831Z" fill="#d6d6d6" fill-rule="evenodd"/>
      <path id="Path_100" data-name="Path 100" d="M281.454,337.386c-.192,1.441-1.09,2.167-1.741,3.142C271.435,341.3,278.277,331.706,281.454,337.386Z" fill="#d6d6d6" fill-rule="evenodd"/>
      <path id="Path_101" data-name="Path 101" d="M257.718,351.7c1.508,3.618-2.366,5.791-5.228,4.192C250.511,352.815,254.024,350.161,257.718,351.7Z" fill="#d6d6d6" fill-rule="evenodd"/>
      <path id="Path_102" data-name="Path 102" d="M283.2,359.028c2.8-1.127,3.982-.151,4.2,1.741C288.011,366.452,277.489,361.321,283.2,359.028Z" fill="#d6d6d6" fill-rule="evenodd"/>
    </g>
  </g>
</svg>
