<svg xmlns:xlink="http://www.w3.org/1999/xlink" xmlns="http://www.w3.org/2000/svg" width="41" height="41" viewBox="0 0 41 41">
  <g id="insta_icon" transform="translate(1 1)">
    <path id="Path_30" data-name="Path 30" d="M19.5,0A19.5,19.5,0,1,1,0,19.5,19.5,19.5,0,0,1,19.5,0Z" fill="#707070" stroke="#707070" stroke-width="2"/>
    <g id="Group_34" data-name="Group 34" transform="translate(370.565 -125.825)">
      <path id="Path_31" data-name="Path 31" d="M-284.143,207.906a4.845,4.845,0,0,0-4.845,4.845,4.845,4.845,0,0,0,4.845,4.845,4.845,4.845,0,0,0,4.845-4.845A4.845,4.845,0,0,0-284.143,207.906Zm0,7.99a3.145,3.145,0,0,1-3.145-3.145,3.145,3.145,0,0,1,3.145-3.145A3.145,3.145,0,0,1-281,212.751,3.145,3.145,0,0,1-284.143,215.9Z" transform="translate(-66.922 -66.926)" fill="#fff"/>
      <path id="Path_32" data-name="Path 32" d="M-341.687,141.935a6.922,6.922,0,0,0-.439-2.29,4.621,4.621,0,0,0-1.088-1.671,4.625,4.625,0,0,0-1.671-1.089,6.931,6.931,0,0,0-2.29-.438c-1.006-.046-1.327-.057-3.89-.057s-2.884.011-3.89.057a6.927,6.927,0,0,0-2.29.439,4.621,4.621,0,0,0-1.671,1.088A4.622,4.622,0,0,0-360,139.645a6.924,6.924,0,0,0-.438,2.29c-.046,1.006-.057,1.327-.057,3.89s.011,2.884.057,3.89A6.919,6.919,0,0,0-360,152a4.623,4.623,0,0,0,1.088,1.671,4.622,4.622,0,0,0,1.671,1.088,6.926,6.926,0,0,0,2.29.438c1.006.046,1.327.057,3.89.057s2.884-.011,3.89-.057a6.927,6.927,0,0,0,2.29-.438A4.824,4.824,0,0,0-342.126,152a6.923,6.923,0,0,0,.439-2.29c.046-1.006.057-1.327.057-3.89S-341.641,142.941-341.687,141.935Zm-1.7,7.7a5.225,5.225,0,0,1-.325,1.752,3.124,3.124,0,0,1-1.791,1.791,5.213,5.213,0,0,1-1.752.325c-.995.045-1.293.055-3.813.055s-2.818-.01-3.812-.055a5.213,5.213,0,0,1-1.752-.325,2.923,2.923,0,0,1-1.085-.706,2.927,2.927,0,0,1-.706-1.085,5.221,5.221,0,0,1-.325-1.752c-.045-1-.055-1.293-.055-3.813s.01-2.818.055-3.813a5.223,5.223,0,0,1,.325-1.752,2.927,2.927,0,0,1,.706-1.085,2.921,2.921,0,0,1,1.085-.706,5.225,5.225,0,0,1,1.752-.325c.995-.045,1.293-.055,3.813-.055s2.818.01,3.813.055a5.222,5.222,0,0,1,1.752.325,2.923,2.923,0,0,1,1.085.706,2.925,2.925,0,0,1,.706,1.085,5.214,5.214,0,0,1,.325,1.752c.045.995.055,1.293.055,3.813S-343.34,148.643-343.385,149.638Z" transform="translate(0 0)" fill="#fff"/>
      <path id="Path_33" data-name="Path 33" d="M-151.54,187.281a1.132,1.132,0,0,0-1.132,1.132,1.132,1.132,0,0,0,1.132,1.132,1.132,1.132,0,0,0,1.132-1.132A1.132,1.132,0,0,0-151.54,187.281Z" transform="translate(-194.489 -47.625)" fill="#fff"/>
    </g>
  </g>
</svg>
