<svg xmlns="http://www.w3.org/2000/svg" width="180.872" height="180.29" viewBox="0 0 180.872 180.29">
  <g id="logo" transform="translate(-127.559 -113.933)">
    <g id="Group_8" data-name="Group 8" transform="translate(127.559 144.547)">
      <g id="Group_1" data-name="Group 1" transform="translate(51.235 15.577)">
        <path id="Path_1" data-name="Path 1" d="M241.751,203.376a2.5,2.5,0,0,0-3.06-2.526L225.2,203.232V206.3a2.5,2.5,0,0,0,3.066,2.52l6.82-1.2-11.173,83.229v1.343h.006a2.5,2.5,0,0,0,3.057,2.523l14.132-2.491v-3.065a2.5,2.5,0,0,0-3.067-2.523l-7.358,1.3,11.067-83.21Z" transform="translate(-223.914 -200.802)" fill="#86bc25"/>
      </g>
      <g id="Group_2" data-name="Group 2" transform="translate(0 25.448)">
        <path id="Path_2" data-name="Path 2" d="M140.351,219.527a8.993,8.993,0,0,0-3.228-.028,10.816,10.816,0,0,0-3.223,1.166,11.862,11.862,0,0,0-6.341,10.09v82.223l3.169-.554a3.95,3.95,0,0,0,3.172-3.733v-20.7l3.227-.564a10.754,10.754,0,0,0,3.224-1.171,11.855,11.855,0,0,0,6.338-10.087V227.381A7.673,7.673,0,0,0,140.351,219.527Zm0,57.758a4.016,4.016,0,0,1-3.224,3.8l-3.227.567V229.636a4.013,4.013,0,0,1,3.223-3.8,2.633,2.633,0,0,1,3.228,2.66Z" transform="translate(-127.559 -219.366)" fill="#86bc25"/>
      </g>
      <g id="Group_3" data-name="Group 3" transform="translate(102.268 7.411)">
        <path id="Path_3" data-name="Path 3" d="M332.681,185.6a9.032,9.032,0,0,0-3.227-.025,10.8,10.8,0,0,0-3.221,1.166,11.874,11.874,0,0,0-6.344,10.092v82.223l3.174-.559a3.941,3.941,0,0,0,3.169-3.726v-20.7l3.227-.572a10.76,10.76,0,0,0,3.221-1.166,11.864,11.864,0,0,0,6.344-10.087V193.461A7.675,7.675,0,0,0,332.681,185.6Zm0,57.765a4.005,4.005,0,0,1-3.221,3.8l-3.219.565-.007-52.012a4.02,4.02,0,0,1,3.221-3.8,2.634,2.634,0,0,1,3.227,2.66Z" transform="translate(-319.89 -185.445)" fill="#86bc25"/>
      </g>
      <g id="Group_4" data-name="Group 4" transform="translate(26.843 20.715)">
        <path id="Path_4" data-name="Path 4" d="M197.17,218.48a7.68,7.68,0,0,0-6.339-7.86,9.214,9.214,0,0,0-3.225-.024,10.874,10.874,0,0,0-3.225,1.166,11.879,11.879,0,0,0-6.339,10.089v82.228l3.17-.561a3.939,3.939,0,0,0,3.169-3.729v-20.7l3.225-.561v.01a2.635,2.635,0,0,1,3.225,2.66v20.627l6.339-1.116V280.082a7.908,7.908,0,0,0-2.511-5.963,11.1,11.1,0,0,0,2.511-6.848Zm-6.339,49.9a4,4,0,0,1-3.225,3.793l-3.225.574V220.732a4.016,4.016,0,0,1,3.225-3.793,2.633,2.633,0,0,1,3.225,2.657Z" transform="translate(-178.042 -210.465)" fill="#86bc25"/>
      </g>
      <g id="Group_5" data-name="Group 5" transform="translate(74.862 11.784)">
        <path id="Path_5" data-name="Path 5" d="M287.477,260.345V201.682a7.676,7.676,0,0,0-6.34-7.855,9.084,9.084,0,0,0-3.222-.024,10.783,10.783,0,0,0-3.225,1.163,11.873,11.873,0,0,0-6.341,10.09v73.769a7.672,7.672,0,0,0,6.341,7.855,9.117,9.117,0,0,0,3.225.022,10.855,10.855,0,0,0,3.222-1.156,11.894,11.894,0,0,0,6.34-10.094V266.47l-3.164.562a3.942,3.942,0,0,0-3.176,3.724v5.814a4.014,4.014,0,0,1-3.222,3.793,2.63,2.63,0,0,1-3.225-2.66V262.6Zm-12.788-56.409a4.012,4.012,0,0,1,3.225-3.793,2.627,2.627,0,0,1,3.222,2.657v52.531l-6.448,1.141Z" transform="translate(-268.348 -193.67)" fill="#86bc25"/>
      </g>
      <g id="Group_6" data-name="Group 6" transform="translate(129.681 3.279)">
        <path id="Path_6" data-name="Path 6" d="M377.782,269.47v-91.8l-3.164.559a3.946,3.946,0,0,0-3.174,3.732v88.623Z" transform="translate(-371.444 -177.674)" fill="#86bc25"/>
      </g>
      <g id="Group_7" data-name="Group 7" transform="translate(144.304)">
        <path id="Path_7" data-name="Path 7" d="M410.987,212.7c-3.766-7.512-5.7-13.621-5.7-18.345l0-12.578a4.015,4.015,0,0,1,3.226-3.8,2.63,2.63,0,0,1,3.222,2.66v15.424a2.588,2.588,0,0,0,3.172,2.612l3.172-.559v-18.6a7.675,7.675,0,0,0-6.343-7.855,8.97,8.97,0,0,0-3.222-.025,10.821,10.821,0,0,0-3.226,1.163,11.866,11.866,0,0,0-6.336,10.092v12.792c0,5.484,2.147,12.513,6.338,21.129q6.447,13.214,6.45,21.114l0,16.013a4.01,4.01,0,0,1-3.224,3.8,2.628,2.628,0,0,1-3.224-2.66V236.967a2.589,2.589,0,0,0-3.169-2.615l-3.169.557V256.2a7.672,7.672,0,0,0,6.338,7.857,9.045,9.045,0,0,0,3.224.022,10.8,10.8,0,0,0,3.224-1.161,11.875,11.875,0,0,0,6.341-10.092V236.594Q418.073,226.285,410.987,212.7Z" transform="translate(-398.946 -171.508)" fill="#86bc25"/>
      </g>
    </g>
    <g id="Group_9" data-name="Group 9" transform="translate(295.577 134.619)">
      <path id="Path_8" data-name="Path 8" d="M449.929,152.836a6.335,6.335,0,1,0,6.468,6.334A6.108,6.108,0,0,0,449.929,152.836Zm0,11.34a4.833,4.833,0,0,1-5.006-5.006,4.741,4.741,0,0,1,5.006-5.006,5.007,5.007,0,1,1,0,10.012Zm2.888-5.822c0,1.338-.99,2.043-2.416,2.043h-1.362v1.72h-1.158v-5.732h2.6C451.92,156.386,452.817,157.107,452.817,158.354Zm-2.386-.954h-1.392v2.014h1.4c.746,0,1.194-.313,1.194-1.009C451.634,157.745,451.174,157.4,450.431,157.4Z" transform="translate(-443.543 -152.836)" fill="#86bc25"/>
    </g>
    <g id="Group_10" data-name="Group 10" transform="translate(144.884 243.755)">
      <path id="Path_9" data-name="Path 9" d="M224.535,408.552a89.555,89.555,0,0,1-63.74-26.406,2.227,2.227,0,0,1,3.15-3.149,85.7,85.7,0,0,0,135.93-19.747,2.228,2.228,0,0,1,3.917,2.123A90.139,90.139,0,0,1,224.535,408.552Z" transform="translate(-160.142 -358.084)"/>
    </g>
    <g id="Group_11" data-name="Group 11" transform="translate(130.89 113.933)">
      <path id="Path_10" data-name="Path 10" d="M136.05,162.35a2.225,2.225,0,0,1-1.926-3.341,90.485,90.485,0,0,1,78.088-45.076h.006a90.266,90.266,0,0,1,57.329,20.584,2.228,2.228,0,1,1-2.836,3.438,85.791,85.791,0,0,0-54.493-19.565h-.006a86.018,86.018,0,0,0-74.231,42.849A2.229,2.229,0,0,1,136.05,162.35Z" transform="translate(-133.824 -113.933)"/>
    </g>
  </g>
</svg>
