<svg id="logo_szybkikontakt" xmlns="http://www.w3.org/2000/svg" width="119.868" height="119.482" viewBox="0 0 119.868 119.482">
  <g id="Group_8" data-name="Group 8" transform="translate(0 20.289)">
    <g id="Group_1" data-name="Group 1" transform="translate(33.954 10.323)">
      <path id="Path_1" data-name="Path 1" d="M235.735,202.508a1.655,1.655,0,0,0-2.028-1.674l-8.941,1.578v2.031a1.657,1.657,0,0,0,2.032,1.67l4.52-.8-7.4,55.158v.89h0a1.654,1.654,0,0,0,2.026,1.672l9.365-1.651v-2.031a1.658,1.658,0,0,0-2.033-1.672l-4.876.858,7.335-55.145Z" transform="translate(-223.914 -200.802)" fill="#86bc25"/>
    </g>
    <g id="Group_2" data-name="Group 2" transform="translate(0 16.865)">
      <path id="Path_2" data-name="Path 2" d="M136.036,219.472a5.96,5.96,0,0,0-2.139-.018,7.169,7.169,0,0,0-2.136.772,7.861,7.861,0,0,0-4.2,6.687V281.4l2.1-.367a2.618,2.618,0,0,0,2.1-2.474V264.844l2.138-.374a7.128,7.128,0,0,0,2.137-.776,7.857,7.857,0,0,0,4.2-6.685V224.678A5.085,5.085,0,0,0,136.036,219.472Zm0,38.278a2.661,2.661,0,0,1-2.137,2.517l-2.138.376V226.172a2.66,2.66,0,0,1,2.136-2.516,1.745,1.745,0,0,1,2.139,1.763Z" transform="translate(-127.559 -219.366)" fill="#86bc25"/>
    </g>
    <g id="Group_3" data-name="Group 3" transform="translate(67.775 4.911)">
      <path id="Path_3" data-name="Path 3" d="M328.367,185.55a5.986,5.986,0,0,0-2.138-.017,7.158,7.158,0,0,0-2.135.772,7.869,7.869,0,0,0-4.2,6.688v54.491l2.1-.371a2.612,2.612,0,0,0,2.1-2.469V230.928l2.138-.379a7.131,7.131,0,0,0,2.135-.772,7.862,7.862,0,0,0,4.2-6.685V190.757A5.087,5.087,0,0,0,328.367,185.55Zm0,38.283a2.654,2.654,0,0,1-2.135,2.515l-2.133.374,0-34.469a2.664,2.664,0,0,1,2.135-2.517,1.745,1.745,0,0,1,2.138,1.763Z" transform="translate(-319.89 -185.445)" fill="#86bc25"/>
    </g>
    <g id="Group_4" data-name="Group 4" transform="translate(17.79 13.728)">
      <path id="Path_4" data-name="Path 4" d="M190.718,215.777a5.09,5.09,0,0,0-4.2-5.209,6.106,6.106,0,0,0-2.138-.016,7.206,7.206,0,0,0-2.137.772,7.873,7.873,0,0,0-4.2,6.687v54.494l2.1-.372a2.611,2.611,0,0,0,2.1-2.471V255.943l2.137-.372v.006a1.747,1.747,0,0,1,2.138,1.763v13.67l4.2-.74V256.6a5.241,5.241,0,0,0-1.664-3.952,7.358,7.358,0,0,0,1.664-4.538Zm-4.2,33.072a2.653,2.653,0,0,1-2.138,2.514l-2.137.381V217.269a2.661,2.661,0,0,1,2.137-2.514,1.745,1.745,0,0,1,2.138,1.761Z" transform="translate(-178.042 -210.465)" fill="#86bc25"/>
    </g>
    <g id="Group_5" data-name="Group 5" transform="translate(49.613 7.81)">
      <path id="Path_5" data-name="Path 5" d="M281.025,237.857V198.98a5.087,5.087,0,0,0-4.2-5.206,6.019,6.019,0,0,0-2.135-.016,7.146,7.146,0,0,0-2.138.771,7.868,7.868,0,0,0-4.2,6.687V250.1a5.085,5.085,0,0,0,4.2,5.205,6.042,6.042,0,0,0,2.138.015,7.194,7.194,0,0,0,2.135-.766,7.882,7.882,0,0,0,4.2-6.69v-5.952l-2.1.372a2.612,2.612,0,0,0-2.1,2.468v3.853a2.66,2.66,0,0,1-2.135,2.514,1.743,1.743,0,0,1-2.138-1.763V239.353Zm-8.475-37.383a2.659,2.659,0,0,1,2.138-2.514,1.741,1.741,0,0,1,2.135,1.761v34.814l-4.273.756Z" transform="translate(-268.348 -193.67)" fill="#86bc25"/>
    </g>
    <g id="Group_6" data-name="Group 6" transform="translate(85.942 2.173)">
      <path id="Path_6" data-name="Path 6" d="M375.644,238.509V177.674l-2.1.37a2.615,2.615,0,0,0-2.1,2.473V239.25Z" transform="translate(-371.444 -177.674)" fill="#86bc25"/>
    </g>
    <g id="Group_7" data-name="Group 7" transform="translate(95.634)">
      <path id="Path_7" data-name="Path 7" d="M406.926,198.808c-2.5-4.978-3.779-9.027-3.779-12.157l0-8.335a2.661,2.661,0,0,1,2.138-2.517,1.743,1.743,0,0,1,2.135,1.763v10.222a1.715,1.715,0,0,0,2.1,1.731l2.1-.371V176.819a5.087,5.087,0,0,0-4.2-5.205,5.945,5.945,0,0,0-2.135-.017,7.171,7.171,0,0,0-2.138.771,7.864,7.864,0,0,0-4.2,6.688v8.477c0,3.634,1.423,8.293,4.2,14q4.273,8.757,4.275,13.993v10.612a2.658,2.658,0,0,1-2.137,2.515,1.742,1.742,0,0,1-2.137-1.763v-12a1.716,1.716,0,0,0-2.1-1.733l-2.1.369v14.11a5.085,5.085,0,0,0,4.2,5.207,5.994,5.994,0,0,0,2.137.015,7.155,7.155,0,0,0,2.137-.769,7.87,7.87,0,0,0,4.2-6.688V214.642Q411.622,207.81,406.926,198.808Z" transform="translate(-398.946 -171.508)" fill="#86bc25"/>
    </g>
  </g>
  <g id="Group_9" data-name="Group 9" transform="translate(111.349 13.709)">
    <path id="Path_8" data-name="Path 8" d="M447.775,152.836a4.2,4.2,0,1,0,4.286,4.2A4.048,4.048,0,0,0,447.775,152.836Zm0,7.515a3.2,3.2,0,0,1-3.318-3.318,3.142,3.142,0,0,1,3.318-3.318,3.318,3.318,0,1,1,0,6.635Zm1.914-3.858c0,.887-.656,1.354-1.6,1.354h-.9v1.14h-.768v-3.8h1.721C449.095,155.189,449.689,155.666,449.689,156.493Zm-1.582-.633h-.922V157.2h.929c.494,0,.791-.208.791-.669C448.905,156.09,448.6,155.861,448.108,155.861Z" transform="translate(-443.543 -152.836)" fill="#86bc25"/>
  </g>
  <g id="Group_10" data-name="Group 10" transform="translate(11.482 86.036)">
    <path id="Path_9" data-name="Path 9" d="M202.817,391.53a59.35,59.35,0,0,1-42.242-17.5,1.476,1.476,0,1,1,2.088-2.087,56.794,56.794,0,0,0,90.084-13.087,1.476,1.476,0,0,1,2.6,1.407A59.737,59.737,0,0,1,202.817,391.53Z" transform="translate(-160.142 -358.084)"/>
  </g>
  <g id="Group_11" data-name="Group 11" transform="translate(2.208)">
    <path id="Path_10" data-name="Path 10" d="M135.3,146.02a1.475,1.475,0,0,1-1.277-2.214,59.966,59.966,0,0,1,51.75-29.873h0a59.821,59.821,0,0,1,37.994,13.642,1.477,1.477,0,1,1-1.88,2.278,56.856,56.856,0,0,0-36.114-12.966h0a57.006,57.006,0,0,0-49.195,28.4A1.477,1.477,0,0,1,135.3,146.02Z" transform="translate(-133.824 -113.933)"/>
  </g>
</svg>
