<svg xmlns="http://www.w3.org/2000/svg" xmlns:xlink="http://www.w3.org/1999/xlink" width="101.7" height="101.7" viewBox="0 0 101.7 101.7">
  <defs>
    <filter id="Path_36" x="0" y="0" width="101.7" height="101.7" filterUnits="userSpaceOnUse">
      <feOffset dy="3" input="SourceAlpha"/>
      <feGaussianBlur stdDeviation="4" result="blur"/>
      <feFlood flood-opacity="0.09"/>
      <feComposite operator="in" in2="blur"/>
      <feComposite in="SourceGraphic"/>
    </filter>
    <linearGradient id="linear-gradient" x1="0.053" y1="0.5" x2="0.95" y2="0.5" gradientUnits="objectBoundingBox">
      <stop offset="0" stop-color="#86bc25"/>
      <stop offset="1" stop-color="#b0e64d"/>
    </linearGradient>
  </defs>
  <g id="phone" transform="translate(12 9)">
    <g transform="matrix(1, 0, 0, 1, -12, -9)" filter="url(#Path_36)">
      <g id="Path_36-2" data-name="Path 36" transform="translate(12 9)" fill="#fff" opacity="0.2">
        <path d="M 38.85022354125977 76.70044708251953 C 33.74003601074219 76.70044708251953 28.78323554992676 75.69983673095703 24.11752319335938 73.72640228271484 C 19.6104564666748 71.82007598876953 15.56250095367432 69.09078979492188 12.08607864379883 65.6143798828125 C 8.609657287597656 62.13795852661133 5.880379199981689 58.08998870849609 3.974045753479004 53.58293533325195 C 2.000612497329712 48.91721343994141 1.000001311302185 43.96041107177734 1.000001311302185 38.85022354125977 C 1.000001311302185 33.74003601074219 2.000612497329712 28.78323554992676 3.974045753479004 24.11752319335938 C 5.880379199981689 19.6104564666748 8.609657287597656 15.56250095367432 12.08607864379883 12.08607864379883 C 15.56250095367432 8.609657287597656 19.6104564666748 5.880379199981689 24.11752319335938 3.974045753479004 C 28.78323554992676 2.000612497329712 33.74003601074219 1.000001311302185 38.85022354125977 1.000001311302185 C 43.96041107177734 1.000001311302185 48.91721343994141 2.000612497329712 53.58293533325195 3.974045753479004 C 58.08998870849609 5.880379199981689 62.13795852661133 8.609657287597656 65.6143798828125 12.08607864379883 C 69.09078979492188 15.56250095367432 71.82007598876953 19.6104564666748 73.72640228271484 24.11752319335938 C 75.69983673095703 28.78323554992676 76.70044708251953 33.74003601074219 76.70044708251953 38.85022354125977 C 76.70044708251953 43.96041107177734 75.69983673095703 48.91721343994141 73.72640228271484 53.58293533325195 C 71.82007598876953 58.08998870849609 69.09078979492188 62.13795852661133 65.6143798828125 65.6143798828125 C 62.13795852661133 69.09078979492188 58.08998870849609 71.82007598876953 53.58293533325195 73.72640228271484 C 48.91721343994141 75.69983673095703 43.96041107177734 76.70044708251953 38.85022354125977 76.70044708251953 Z" stroke="none"/>
        <path d="M 38.85022354125977 2 C 33.87458801269531 2 29.04885864257813 2.974037170410156 24.50707244873047 4.895050048828125 C 20.11921310424805 6.750961303710938 16.17808151245117 9.408271789550781 12.79317474365234 12.79317474365234 C 9.408271789550781 16.17808151245117 6.750961303710938 20.11921310424805 4.895050048828125 24.50707244873047 C 2.974037170410156 29.04885864257813 2 33.87458801269531 2 38.85022354125977 C 2 43.82584762573242 2.974037170410156 48.65158843994141 4.895050048828125 53.19337463378906 C 6.750961303710938 57.58123779296875 9.408271789550781 61.52235412597656 12.79317474365234 64.90725708007813 C 16.17808151245117 68.29216766357422 20.11921310424805 70.94948577880859 24.50707244873047 72.80538940429688 C 29.04885864257813 74.72640991210938 33.87458801269531 75.70044708251953 38.85022354125977 75.70044708251953 C 43.82584762573242 75.70044708251953 48.65158843994141 74.72640991210938 53.19337463378906 72.80538940429688 C 57.58123779296875 70.94948577880859 61.52235412597656 68.29216766357422 64.90725708007813 64.90725708007813 C 68.29216766357422 61.52235412597656 70.94948577880859 57.58123779296875 72.80538940429688 53.19337463378906 C 74.72640991210938 48.65158843994141 75.70044708251953 43.82584762573242 75.70044708251953 38.85022354125977 C 75.70044708251953 33.87458801269531 74.72640991210938 29.04885864257813 72.80538940429688 24.50707244873047 C 70.94948577880859 20.11921310424805 68.29216766357422 16.17808151245117 64.90725708007813 12.79317474365234 C 61.52235412597656 9.408271789550781 57.58123779296875 6.750961303710938 53.19337463378906 4.895050048828125 C 48.65158843994141 2.974037170410156 43.82584762573242 2 38.85022354125977 2 M 38.85022354125977 0 C 60.30660247802734 0 77.70044708251953 17.39383697509766 77.70044708251953 38.85022354125977 C 77.70044708251953 60.30660247802734 60.30660247802734 77.70044708251953 38.85022354125977 77.70044708251953 C 17.39383697509766 77.70044708251953 0 60.30660247802734 0 38.85022354125977 C 0 17.39383697509766 17.39383697509766 0 38.85022354125977 0 Z" stroke="none" fill="#86bc25"/>
      </g>
    </g>
    <rect id="Rectangle_20" data-name="Rectangle 20" width="71" height="71" rx="35.5" transform="translate(3.35 3.35)" fill="url(#linear-gradient)"/>
    <g id="Group_29" data-name="Group 29" transform="translate(-258.702 -382.09)">
      <g id="Group_26" data-name="Group 26">
        <g id="Group_25" data-name="Group 25">
          <path id="Path_20" data-name="Path 20" d="M306.575,427.409a2.63,2.63,0,0,0-3.709-.267,2.805,2.805,0,0,0-.267.267c-.934.922-1.858,1.844-2.772,2.781a.545.545,0,0,1-.758.144h0c-.6-.327-1.24-.593-1.821-.952a28.83,28.83,0,0,1-6.951-6.328,16.39,16.39,0,0,1-2.493-3.992.571.571,0,0,1,.134-.733c.934-.9,1.836-1.82,2.749-2.742a2.639,2.639,0,0,0,.347-3.716h0a2.506,2.506,0,0,0-.354-.352c-.727-.735-1.452-1.453-2.178-2.187-.751-.751-1.493-1.509-2.251-2.251a2.646,2.646,0,0,0-3.734-.235l0,0a2.589,2.589,0,0,0-.24.24c-.934.922-1.836,1.868-2.788,2.774a4.521,4.521,0,0,0-1.421,3.044,12.948,12.948,0,0,0,1,5.569,33.846,33.846,0,0,0,6,10.007,37.179,37.179,0,0,0,12.314,9.64,17.776,17.776,0,0,0,6.819,1.984,5.212,5.212,0,0,0,4.288-1.633c.907-.846,1.715-1.655,2.535-2.553a2.7,2.7,0,0,0,.247-3.813h0a2.44,2.44,0,0,0-.232-.234Q308.817,429.631,306.575,427.409Z" fill="#fff"/>
        </g>
      </g>
      <g id="Group_27" data-name="Group 27">
        <path id="Path_21" data-name="Path 21" d="M305.611,421.148a1.445,1.445,0,0,1-1.445-1.445h0A6.173,6.173,0,0,0,298,413.539a1.445,1.445,0,1,1,0-2.891,9.073,9.073,0,0,1,9.054,9.055,1.445,1.445,0,0,1-1.445,1.445Z" fill="#fff"/>
      </g>
      <g id="Group_28" data-name="Group 28">
        <path id="Path_22" data-name="Path 22" d="M312.614,420.777a1.446,1.446,0,0,1-1.446-1.446,12.7,12.7,0,0,0-12.688-12.688,1.445,1.445,0,1,1,0-2.89,15.571,15.571,0,0,1,15.579,15.563v.019a1.447,1.447,0,0,1-1.445,1.446Z" fill="#fff"/>
      </g>
    </g>
  </g>
</svg>
