<svg xmlns:xlink="http://www.w3.org/1999/xlink" xmlns="http://www.w3.org/2000/svg" width="52" height="41" viewBox="0 0 52 41">
  <g id="shopping" transform="translate(1)">
    <circle id="Ellipse_14" data-name="Ellipse 14" cx="19.5" cy="19.5" r="19.5" transform="translate(0 1)" fill="#86bc25" stroke="#86bc25" stroke-miterlimit="10" stroke-width="2"/>
    <circle id="Ellipse_16" data-name="Ellipse 16" cx="10.5" cy="10.5" r="10.5" transform="translate(30)" fill="#86bc25" opacity="0"/>
    <path id="Path_29" data-name="Path 29" d="M35.01,19.7,33.759,5.768a.738.738,0,0,0-.735-.672h-2.58V3.932a3.932,3.932,0,1,0-7.864,0V5.1H20a.738.738,0,0,0-.735.672L18.008,19.754a.738.738,0,0,0,.735.8H34.282a.738.738,0,0,0,.738-.738A.752.752,0,0,0,35.01,19.7ZM24.056,3.932a2.456,2.456,0,1,1,4.913,0V5.1H24.056ZM19.55,19.082l1.123-12.51H22.58v1.32a.738.738,0,0,0,1.476,0V6.572h4.913v1.32a.738.738,0,0,0,1.476,0V6.572H32.35l1.123,12.51Z" transform="translate(-7.012 9.128)" fill="#fff"/>
    <text id="_3" data-name="3" transform="translate(41 15)" fill="#fff" font-size="14" font-family="Roboto-Regular, Roboto" opacity="0"><tspan x="-3.931" y="0">3</tspan></text>
  </g>
</svg>
